<mxfile host="app.diagrams.net" modified="2022-10-07T17:29:01.599Z" agent="5.0 (Windows NT 10.0; Win64; x64) AppleWebKit/537.36 (KHTML, like Gecko) Chrome/105.0.0.0 Safari/537.36" etag="AGc1G-fRWxLzOddpOqVs" version="20.4.0" type="github">
  <diagram id="mECCC_n6qWj8_nHvuNPp" name="PÃ¡gina-1">
    <mxGraphModel dx="4740" dy="2540" grid="1" gridSize="10" guides="1" tooltips="1" connect="1" arrows="1" fold="1" page="1" pageScale="1" pageWidth="2100" pageHeight="1100" backgroundImage="{&quot;src&quot;:&quot;data:image/jpeg;base64,UklGRiSAAQBXRUJQVlA4IBiAAQAwPwidASroBwkEPkkkjkWioiEhI5SZWFAJCWNu/m+yFNU7kAc7/yXoFuO4m+/fmcc2jev1o3Bc8O0/lfzvf9TYf9M8RHfFEKSNwAfQU/smB5fjfmU8jn82/7n/m9iP8m/s3WbcX9F+rb/J+MKiL2H+K/dj/K/t985nF/Yn6X+5f5T/E/4L/7f5X5af9n8pv8B8PdXf+D8nf7N/////9Lvln7H/o/8T/sf+N/bf/////t5/pf/J/kf2S/o//////4l/k3+X/8X+u+///9/oF/IP6P/h/8V/lf+P/df////vxj/0/+L/3Pdn/lP/J/0f3U+An9C/x3/D/zX79/MB/yv+N/uv36+ZX9t/6f+z/0H+g/9/0B/yX+5/8v87/9788//090H96f+57g/9I/0n/x/P/5d/+z/7v9l/vf///+vtJ/pX+v/9X+l/2/////P2E/zn+7/9f9pf///9foA/7v/////uAf93////P3AP/d7D/oP+m/Zb2X/R/6/xr1bOBv37uhfqnPB/meAf63/c+g15J9eyE54poN+fz1Qv2vQn+k9QX+9f7j1t8SH2j2Bv6V6S313epP9z/8nqx/v/2Oxj8CzjLg3oeuSIwreZP2QHqWpf8l06Xd85ul3fDzyA5zKoU0zLH1Z1hNLUmfpHZiZHEAixdqrEyrSqiufYCnrJH35iVF6WwOAunHZZVWAunHZZVV/ZB1RZVV/ZACTOGa/ZABv7IOqLKqv7IAN/b1m7UIB7FWtTqNZyMYOxrM3TucfipyazvGfXP+u1vZgzFfGo2Jqr2ly1D/2muGFFNiHfh5KLKqwF09jNXdeBxUgKF8eLmgSZxBRCkBxauR8hW/s2pxUgA39kAMo5RsQ2nkAc7qKmGa/YzDTI+dllVSPwLsEknJ92t7vpt9sep+0gN/ZBLysAznHnsvrZ+81e/m19e+TWvqU+QAvG66+xqvj/9PA1yO6ijnJ6ff0wzX7LUtjF1U5WV7ygB7eNVCpGdNFsFzLdFSrjl7jhbZndZVI/QTmOWgSNoS17L0bLlv1dl0e7fqXrlAZ3UJw6Ph9W3HaVfHnZ3UoyyGBFjafPs2cBKD+r+yADfrSttiAWAWmT5urCbAh7qYZsNqmT1RcvZCArhAkeo90OVd3YBX5P5POrPSr4DNjPXm7+ye61M/6yzHu/X5e7soSSuDL8dJmBvPBdqAIKQa1l+xxqx2KkAG/sgA37w6+g0KhJM5gpxXdOfnIThTGnS7vli0xGboKq10Ft2NC0faT4VNAS3PcCfAwe4UoS3FhtVgLtY9vAY7LoZsGuPrW+//ElHjklCphmv40fFWhezzI1mGa/ZABvZJlbBWbvjnzq0aXHutnH+3KMHpH5MXQtt7BtsKo4IZoNKf0nXQKyOpOfmOJRHzssrLCguQYsi/YyLP7t+gG87LbJgJClJCkWpyIA6F7R6nm327zWqAaXe5NX5NZZVWWxGAjaEqUqxMgSpcMKpAcPz6Kj82EM8t8DJ16nNM6VTBHzI3W1PdRTHu+089zVZVWTEjWFsOqJleWViZmzUjChS7FrhItACr8LUzPFSO0q2x9mp2SZXEoU6KRfU/mTU7OwUoDLbHtczp4D/ZACtImdAHDzn6KVz0rTCLFKuv4d9q6hfAz18PBb4zGY+4WZoB7ctpNW0WfzttkTlJpn3f1pr8pUpixkZ76X/8Ol3T5b3M8++in/2Wbp2WVftLzA1TX8BpOJZKBvZH2Thr56uUQIW/J3u3A/mvH5WgcraijU33I/3gawqYZsfbgcTarx3mNR8x5//0wcvqG3dYz4NAljJ7ZomjufeRINw72frpq2pF8SZ7prWS5ts9axLJwjvSADzp+i3uIYm3s8ZiGfX7BOjzEpxY4+xMJ1pADzmr0F+U6/sXw0jvKqixmsvajsjikAG/sZelz1vByAx1mCu4hDkQp4scmm2dnDkmZTdbNZA6D4zUPdvehUtH5Ct7oy0BMzX7IAOLXCQteDNEeONg7EgwpAH////BH58XN7EuujO1+LXJkdTZtoNib2aSRjC9ZO5iD13zGGf1g8BwuohZ/LKLztezcqlOouvELnHIon2Msq5rqFS/g/X/ZzqmQhUw4xLqYcKtbfpuNKd9fIsqq/wugvS+cnrycQcK+MdCkBv7IAMI/ldMbN/8ZHqWBL9FuUgRDUO4JQm0Y3CwO0sK1ecPVrS/of2j2hC0IbKcjwW3v7OsEA3ZnEni1RdP6rVIKJXfJkJ3aTYGLJPwCDXZsPGfsnMDAwvF/Dq7Qli317mqBlo2ADf1/WKUc2sPzSyJCDyjV6S+D1oHaK6a14PdAfaDXo68WshSA4tWz6/l32/2+ZTbPU8kjXHRzG2zQwC3ZqG4mE13Og5s6sMt/hqtSKklWPpwPIaojmcdMtv12tI6fZ+UFNnbm4L2gNTMKyo1EifBHLOxWXm8LiQc5zXyezzvNWQsidVfciCKjP1Zsf2RLqYZssXIxDW2u/qC5QGXyJ4TSgnvys63l2OuFJrhj9erx3RX4o5IHnXzt1v/gEV9IlD9YDemwgE/x2Wmfb21rznCaA0L6xNy/yHZmYxbM4qPtPVRl8xEBBsgYKJRI5rKXUbCJ/RXFGTOOwt9NWi8Yz6/HdPxWY50GwewHhEe3yn6ywXTvOK02mxiJsR3I/KTO6Z2ztnxDHAlYhmPskqwTiNirT7lC9TtkIxEMiBSi9EtYhXsc3lzmrrv/dQgFCaZJvQJGBgtZBnYM8s7P0R8FHepaZkBIvqKjgiIVuy4Lonee+bxeio5z8gKA7AJpx7WuWPriZ2M2hA12KiixZH1ItXaFq2Puipyw4pKuBgOjMpRDsWuGSGMlwnJvVDsi77YZlfBrO6ipKVVvqn7PQFSLKPDNfsflwCvZXU1vNGx9EmlkO+rMgjeECq/uhOhAnfTclcMBhp72qcQ6DoN6tZNMsaxmB3XZ/XQocwCZTEKCKY083NnsK7h9Duj4j43kl0JAyq65Zjpu04FKGDwdR8Izlw+kU2PdX6Lt3imchY8iWlUP6sYWVfepj+6pWan8dOvDyq6esQuuNgOTOmgqJnC6fhv8rClw1mMFds0Kt9iY3n5jN1ZcuAjIHUhP2WWPEZFGC2WAkKQF7gaFdykqF4x1HQlzwLadHuTPxgK7j4d1qVKshN0+WSETMUQT7TQdlCJ1fwcl/3TMHnkK3FvJSWxc7Bqy0UynZfNKej2v2QMttwsej07GzBvkHam65CHsl6Z58RN1NE24mkT8VbnkYlSETj4u3F5VWIwv8qg8QWrrNR+PMTEVX8dlaDqF4tZZbswpdQDW4Un1kHwZntlk3dkwgFT+8OvYWAv2Y8bEjX/Aut2rttB32h4zLM7owFzgt59SsoUAooZb9HrjgSOuOWZG7kESTGR5SvR/n9Nv7kLhtH/UAFXPS1YLMzzsrxwlmcMsfoHpPZAButFU97Dnjd8VT8tXvtfMCKYxyrj8/Fk2ghCaG0M162/lghwQsdQtW3HHpiX7lv0RA7BVz0OKbKI0/5ISglcBwPbcF++wOp+yIzjr3mql9SfSPDP/hYzW2hUJraOopxFJdOrhJzuyqD5pBnwaYXV9ZMGZoVPqRFNIWmZ3vP3/cbLbAy/qudoQWMvdIwVmQGF/gvfPonDEirWGAazmMGeo2GJjJZkxyp18ddhMF8CjAMr3x5+rycDu/+fZxSmUNOqgL9aooIvpitBKD1IbqyCikBqXYF16zZeEvZ/Lgs+/hFw/UdRRuylwX8CC/p3WE5Y5XvnAGIqndE26zGTKmkvR4GznOfF3FBXa6DtVleJnr2PHcBQV0PFd8ftGfVSptlvDVMtMBINZgnqwBt0kGojM401sPqqZO5UXiU1S/skldzMtOHvwDSBQC2fs7SCRpdJzBJkr35V6aH3KJPD+nPosoNiSv7pBNDmGRvwcqRSA3LfJtRSawkZd2jKsSY5BJMxI2GxrqWvXx19erRLeFOvvIIRpaRgwkSSVUxeahZplQ+QVaPdfqaHNxnDPZyKU5+cSM1t/XF+aKj9x604yr92gDqSGlFGKblm7CgaNCOqmkX9z8tFnkDuFhLfylDNVV9U8Goyw8BPey0uDBzfp/8Iztn04vn/VjcJoPgf6CZlddiGgK6y6JoBuq3cYjrFpxTQ97Dtpy2qmky9tHCmbcI3knuwhE+mEOovCu1H0Qx2X5GeMnyrEdw0f2U3MqJI/0sI5cnqdNN/zJCQwL1BlQGYacm08LCNbjUIkeslbO/5i9F8dTPR/KbyFkuF8DdRif6PCjShbWOtCA7HnRAIWNgv1fEaf04Ds1qgY5Z8D5evNq9/cfW0LPBPRhFV/Y40NT8eY2CRcEHJN2W3e6VYLVKSiy+rnIqYHYz0FgkB2Td1zOIKanXExkMfvqCqYkhaBqWRxE6wKszm/7atLD5fnywzRaja2h9fI5JY9qDsDeXIqvCii0RQ7XHknEFB0gio7xtSuavGyxO4jrIrG8pvb16clt/eWfv7sw0kwRSKMwn0NjAGpYA7j4bAvC9EdhUOJA3YHbQJtquthxbZfbEnuaeiSFUOFUVGX/AuBNkO7jFw1DJLfPjDnTANS39TiQYQf+0pMOnwo9+WE/UzDpjy1IZBeY9l4IdMvGfpRFMMqHK/gzzOUooRWWW2XnUBTbrbk1UYmxiRSelqaGG9MNFQpAaRppJ6cYosN83u0d6iUBKNmpYIIgNFKiWl8WV+1qUqRUE8rM+eeqFvhzOmaajy4b9m5m7pAd/Lp9bZ53doGDoJF9LXUZz5qSVyWgPBej2s19I/sT6Nsy62Eyusy0bhDpaPLatJqEV4OdvvDRaovL9n+7YtDpDKnqDuID7AeTFuVcFgAKPup/he/+Gh1PomUv6auxxtAsoP+P++6TL7NatmazKD/02Z+v2QVswYx4MDilf48svS0hGuteGoxJb9dVOxexgXNER5jAXkHxuE1BeKLTmboe/Y5nG2O56J41guydrwAiy1L9vYCfyHdjmIDYXvTgUThBIU8wSUCjIRu82+LDeDh3oV/mw0VXoRkaDFoeXkA6dOV/sodg1ATrjUGNvJGwANLmsNfvlemLyLkn+IJDasnwD5gvS2tSjnMh69srPrGckD50odllXHxPC+JLLcO0N3yeAVZlsseeos/49atxzlF9hhbp6OmnbZclDX2lk2B40e7DdeU0JQEIohl5snkgt9PVWMZlWML2tonOsvgGl/vVMYFbExh9UEo6kwNigqROI1jX0LDgDp52jQjKlzf+rbIBGM6tvqkWjvhemYpheKyHOUZ/Ws9HsMlvyOw7cUffN05vv9wRpu8Y8IT+uks/zd5Otbs9Mh8dbUnw8cjrYVxt3PfuV5EQu6SShcAQUBjZL44eZzMbpJuI8idvCtpb+XAhlt/v6UFA6wa83jj528SUKzYz4/KeuER1Np+VeRAYq9s+3vCi76ql7Qh+Yatzjnv93xVAfczrNvYQd2bzQf3mgUNYJXrii3UKUMaxE6/jRtbS47KKoEUtBzA2A46Rh/ERzyPBnE5uB2Lw0kDEGlN2K1vkiLddzWDtA/ZgZZ7tNgj5boXcbepPCh0Ys1EIXHvJHvvOzi7aBn55//dRIgCpn/OlFRg6hlR4lsj1Q1f370fiDZNcy109U2rG+xxt4lOMlEB7DuDZTTHezFK2+XTkCVY/BhTNOmWsCrFaf4FtgaXK7tWYoKjhwwEKW6owXX3oPrZ0qYO4UbauFP2Y92ruBndwHNiiijCFoT7KzOrCISzU3aD2P2ZymPBLad/Lx8o3ke/wwbqPFlRTa+tcUkAw+zXuG8LV+XK4R+n0VPRHUv+HWb83a4kJ6Ybhujvhw5HbaIpPj0a+zhycMQ2PlZTwFGqvot3q7Le5joKxmJbP4mppymZiCCbcn4oJpS3AcD6XfjH81cin7U42cQG7FpKDRcGMMMyevsROxYjgX5vYi8FAXYjWhW3ptivkNEKsBv/inZtQN6vWcRuTw3wVBlCZoJr6qdQubzxigDEbFGANO0Ex6IZ8WJIDMtwBX+6J8XYZgv13HSE5ny1O9Jq2Lb5xIbq5vlNhH1qbfaMYN9Wf9srWj8hV46/Lc5vRUoxIoxcRtiw1yNEB6o7JJ9MAKCg7haoC19/L5+mg4zGIdM05hYTSqRLJUGLghTVKkG0NqcIFWf2P/NGFsC+iFn66VeBUJX8dkB/fWgJl4k0ZM+hY1WDim1FevQrfqhicpETC+ct0xo6uQB4tEGsCSuUi9nAZ5efcqlsvvRDVOswkqP6rFuHhm0OE0b2XNI1yCULWU6rZLncw+ijiqvhcmSmaZfWLkZqcYN1DR69KEIgvaf2iXMmtj/pB2GQG0258oKxqih9e7WUE0VL9Z/bt3UTov9mktjJe0IA1RnjGt5nccfJY1BKrbFRRR881q22DImX3RiVV3EpqlH4n+iDPHdmMdPadQAc/Bz+n7ruHDof3gIXK+HiLPYCVoigB0y368p70MqXrqsv+ckoxgV9ECpf1xqte0uTbU1w0sNOPhSnkFSc7SQ7Qjss4fNahUxlj5LsdOGrjbHAwn3Cu2hS/CKZs/1ycEEgMJLWILmXrXJTur6/svhqqMvTM/3XeN+7/jxAp6QGpAPk+2JLC25QDvCMMUwLkwiQ98XJ+cMCl7AfG0lLRLsyqTV1EZcS/eODL+WltxUPCfR4iVOq10BoYkURvwjMo71Fj5ohu/4+uAaGsH1rvp2yn53dkeViV5E9Jx2hC/hP55NMY/QdWYgGonv+ZF6IJ0LPbo6XYCsYOjHvgnlSGHiEoRuObgJu+gujRf7806Vp9n6/8xVnbq7KL6Z6q3VJ+yjsRNt0xTOz4gWM0JYFed66MWMci4s5vHIQUNCw10SyXdTbbV0Ir5Bsw9ekaEG1gFM2ATPVExvdMiY8YXSoGa/dTUHXN69maYYd0qs10lFKmT71lPcO2cfdRnzSt6G8rdQm+hDwDcYoHeTAvw4pvfUPwgHcOOhnVRBxecqrW/RI1v9qTxgfFGkkvqiL49EoXbRtGotwJx1fmTwzVaf+ogo8ShUgK9Y5+SDHKktIHARQ/UhUZ8ltuPNrRD2JqVMUN/s7F0fMa/X0z2ByaiLB/2JzLyMFN5JI1al4fnEZmATySlkSluol1y1tuU23nnOX3SnTL5v6/kaC6Uuht7XD2miSrgQ7T/gkbr0eW424x4b5/mPPgOw1thATdJfdb1wHn55xXdKxMPUI8mpQOGNHj/fstruevPBPN7T3fLYYmIW5winU0WbCavqgza7Pvxz805XXVMuAD30U+EEFygkBclMUA5MVpXkuJyPAOad5UxLPuP+RBsgS4rQlMNPYBsw/Kz7sy+3CQn62zkoVE0nQ6Obt4p0Fx8EhtH20/PtqtrAg5askcXyfwM45x12TNsg9Q+0Wwf6qgtpw+ubRBdW/t4y4DPHGYezeXXWYDclPBEJegcGLIVDekpRz20QXWF2wuvXvyla7LxBGhwntUut9qxKUyESCJq/j95liXEEG3ji05UKCWFzX+B50uPgm7Gk3oVbyisiTHKFTNmebzQobTaM6MxBUf74foDJNE21osAlaUs6tC7OHFf8Iw/U2TiQypd6QoaL1FkLHkKtSJsfQFL4nUIJkiQKB3s6oBuW0DC+pQ99nPtRN3oUgOyiVRoaEgyMR4N4BC1CBN2HiCWiK6jHV+lacPtgq7RAgF9ORylTj3hSw84TbDozj2Aboac1LdsQq1OHODM4EZwzaM1AfNb0t6pUeUDW1CIN0LpZAQjmne0I4zmdWzx+P9W53OQxTdKft8aD6jxfSSAVzw/gMhIxgG/If+szHp5Cr/8ZVhFoUGLMB9c3CNl3/ed/jZpQNRIDzf3o9Px7Owls23EJap9t30uG2xt71TKz0p3wgaDQmVGyXrjAbgXhZrE0V39Y9KWgz7qqyAfdrgbIh1P6Jj0keQ46z4+mbiDNSpjsiXSjnMqbLYIbXgOm5x6tKYngFu/gjcIvDlVjchPlIsVe16GxJKN4a+J4Vw9tNCV3uWO8qjvFYIZVSO9BPPynyQx+Cc9mVJZpXXJzC2LT2k6k39ubeJi9ixoFKQq4Rmd+YhyuNvxK4OCuqTl4kgxmPqWRtJFtsTOu+7o3wFunIoBYXiZtUl8Et3OC0VuVbbA3KjO5bcY0gGFxrSRZ8ZOUv4K5r8E5vErj9EPVLC1BfuWt3nXqE98SXwgupTby/7UYS3iX6mSHdE5EFNCpEap8q8PxajxHgXGkCz7Oh1jUbkzKag7F/vSqeTRxFF+VhiZ9ZMBIyDog3fdQg0lug9z6V3GcOp0k9KCej4HUpRG8uAgVSX5W5yQR4ZswEdpnmznc0cefesUEierMj7ZJC5/ixOfumvHVJZ5YkSmWMP+ozsRwWJTIBg3xW/m/hMxoVVH0ZAm7ORjkqoZMxe+9OVwk8i5cltAvHa1hQnRCerkYAvw49lu1YNBZGIz5Y+TF8VQlAJRBn2377X1WY4z9p4sY0lcL04iLWUEh9W5S00gJLjOhY0+mXo44XQpFF4ddomJo9XsN8mntpnpK5OpUUclD8tzb2HTuqtxaqZx+RdN9hLgq+IeWo5/Nn+nQYb2Dc885QVK//xl1qW1uR0FdyQP4AkJ6nKloFO8WPlfIZWiE0ZnoYDIfphzybKDR5EKxP9hDcNzi0VUILPaEltlV7/F9BYKvnTJI8BfoQiYwwfIzkYBIvpjWFyLKvr1UbpgjsxZoT0xBdW/xn9qzDi6KnvNZBUjVvS/YXaGG0k2zMNijRkDII1OEEM2qWwrf2/iUR7XsjQr4ZHNCxzyvvTqlpf7ctuGrzu5ag3JA/gyVkp28I4pWghhJtwbWVevXMx+YW6XrtTkmea8sNjOIpMBWPWVpcaMZeh3rVsbmitMODVuDKiVIkEj/9K7rrA/b98caB2058a+0/2YhLBwpQJp18/QwR60JmVurC1n2B4Z6IeJl0CB6eGrHnhsyO1iQvCyojMnzEiuo0Nokc9O0nJOor7JiM8hoTRMssuCKAm6Q4J+wsf/MiLpgnpwBOqVivmwK6QcB/yCvwprnpDcxCmnY4kNCGzOeTt+U+XEvB2lR9Dyi6wZjO8/tilpn3U1rVjmczjxBHi/VOMHyL8DVVgA/pXPV3R+UcKL86hKlLO7bhjnJk+wZsCFxer+YHHrTNV87b8/hcWDcerF6bNcyE6sc6FcuJ6rwpULcA3r0Zt9b5Ksu2th6aDgdxRxDl0dXfvWBKrOOuJzwoUVPRbL3sfqxaJ+uaGPgeWFQ4NkzH+2CVwyuoWt/pmgXx19m7RyN4iYZool32mNW1ia2WG1kcoxZe1q05TuRDd7JzTXCuM+JpkZiFUHpA/Ap8Zqq/FS8qpql/kzPqSjT5TgVdR68G++5pu56/KeqtIzmrwQMh/EuAaQeRVG9z71ZIZSct5jFcBriYyJ6hgXhpqjO/o+0MwWSJInr9Ap5C2No/fyNqhmtYQCJLCgTIkLGjvDWf4fh1W/N5ipOTd0/bHwKDZ3c7wt1Z5TeC06u7/vjFnDr0EB5UDu5S/dXsap68NaWWIKlqFcHVXBxpKlTmv+HoMkLW4HkwRcMgx/19GzVkelW1JF1fDm7iK/s69vNe2OcWYNfQXjLPI00JoNl/6G/+tK9vaU8sTCvqygXIAQ4BnLtrmlfc7j6VpXZXRJkdEokxJ6BOW8rmHF2PI23ocrJwny9wD5qQui+fioY7vy4imYGq9JadDjKe0Mfs1Z5tbamfy1CaHml+oezGlWA6n+9+dMlzMtDqfFIv/DZNm6ZQxHT7RwFKiLpY/zv4JxunkhNB6IPmG2D/CfsKgxfs/Xi6DNKy1UnWUlzcrsCySECaRazJvNyvIr5TI+9GIVtMHLILk1G3EP3DuoeWAti7exSuBGY/SmqVWQKSczn42Gh4T1HCeXSQ9+UhTagZHl3JEYRMPG8lkzpu520l0IWT+bMaNGyUJaME0WGoA+Fk4lkUylsFQ0xfSYsYoub4I6ppm6/lkYJL+dsnnLZ8JB8rJIdXLA3/EmZB0Qbi8jWTkr1UhGx8VODLX1S/YmWcrnlXqUfzvsTX2ruBr06oWM0fxtz/rDsqRKbh4fj4dDr51qbDJtTm+jXM1s7cEvWEkDTz3/pt+sgWriJnltITFoTUC6XcfXfwSI4HS7y2/osj/b2kMFjLnV2k2nlPHFAG+alra9cvzUonEDZlVbPnV2iYm2+Xc6JsqANdSPoj7kx09L0KCiOTkvDznWNu1tjxK6ORbAW6I2ok5PWIQwZoIbiPKEV5JLanZsErypJuX5AcVyKbhiksUVKZENsaTdSWs3/8f2ry03yKKfvc3p/YU4Fl0ugiqbEJ3ZeLCxbb0t2QVOXxzQKrLFA8H3UfqRZOwsVlRFdp0qE+eiUnXjSyHIJVj0BGC+Z6IxBhK4VA++SbnkuYeUN/VOxSNvNN72FRb5bsSFxT/QAb+t0RyF35UcrAmkXvo1D1IAib9wAM7kmr1c0wHhcQmgTuztb6GaZP/0nc3yED/4HGgzvQhhPN+nvhrW1F9gSKWWVBp72UvhbtaRIbaU/YjLCAYRoCIuvpz893Tn0XhiWof9Nh/UbdoKUzUAnH51dtGgHyJRYOu0U1BK4mz1ygjlqpbSL5fXvNE6gWaUVAaIu5YsTuM+QzyRTrPmSYfSUZKVzM+IWxOs+zhA/nJqIJVQSbrPU5rwsf8scf5RK/Asc/xUCCEikukdZJH9oTnK0d3dRosxyFMYokK4MP00q08hmvIJtwwf/X4XM+WZC5GLIafVTAG6qTNUePfJ1JIrVwdh6PBTQ85in7bbqD1aXMFCXDbU2oQ1vOWfM1LJOATpRoQxlFy4T9ZEyetttL9s81/jAjOxUmu5IjpqJzK1QNwEHCUkdW39E6r04JuKUP4Jj8wjsdHK8sGpA0Oa6xtQqBnNly8jCdo9Z5/jSNAfYlxX3fBBGi8a8Q6XJV8jSnJ5qYtMoTPBPLMiO1aFX2JUgQxq76FvHQerxE9K4eyXdwAkhr6M8uRBBh9YJNUERJlcnGdDxmnr1eop71JIDO7K5lTuYaiOIJyNOvzGvPDU0BXOLKq/qC7vFjzFboHzOTGetaQFyNzxXO5GItG3bWdMX0QTs+CnviGMlPSkxm7c8SaiZAx0upCpn+WWhfKm8kzwjGaCx991TElmiB0EycAyWO45atOhTwd+vJTO3b3UpHE6TD85yz2Vb3nWBwejNt2Aq9+HcvZo5U2bw0vlHICGkYFC38lerzxddwbITnFjpHJZnONX5NSV22LKQPj9uhvZqB67zB1Mg+sQM4lpIp9Jf5G1XBJe6r2PJR+8X8+v2M4Dat3QRs8r++hRFXG2r6/qZ/v42dWm1zg5PJaJhXbe0fzjofzLGR85J2utuSk1Qz1sG4jVrOrGLsaL9o7eA/qA1eXfK7ZN45pv7dH+gmlzWRRKlkH7lOqLI08YBGQKsHHh1SQ2cD2H03GPgx9D7Mqcm1lNzNc9tdKvmr4ZiQBoH5mEj3LK6aUloJdM3HpaNIq7eI+miRaJTKqLUifDZe1biDpLD0O5QjvdseOeDynUeyRgubQ+R6tE1aL2jFz5jOIaEtkk0ng+KnuBxTWgxRFLNhmh3rJiiFRUy/X7iNshcTi3PyI8vI9kx7X152w+GENonGFg+aB47sGGyzvKJtQIRz5o1XNZ/5fSZ/6SVgSzjN1I1zcnW0wsYgSNf1XMXW3yHSpIJQQHbwz1h0ieH1vpDI4TqgkAtpx9drSZXE7RBdYXbC69e/SLDankluTU2ykGkh14Xw2VPBY6DmiY1IUW2c1Bddre5IzPsnzI4S3ZpYHEPz1YKSYedOXHq/tyyRco6kKr1+GODX3r2X2lU6iboB5S6NawiuzlgftkCekf70HjfgqiWke20EeGY7zaq3lRBoFTRqMQpUFXobPox85fPZboe4vdPeeM2lVZBxm3+Jph297arfmJ9HKuPcMQ0+F36vinEvjTehHldz89LuPFBf7aIUWRP/a1kyWQgBHFXaZB5GMcU2eEhE8KS6EtbkgBYHu+IRBbR9/gADkioSl0QwKfWNLSg8ZkSHC/W0uGMPobP0J2TQwwYy2ZtNU4ifnYH0zH+lc4CvuINkAGgyLaFG2S84XgeuR/QIsn9EBanl7G8qX2vyR2tnf6df8o/mLSr4FcDbngSdkKeAKQ/ULr71SZkrTxSnLN6azjwWXop1TVFqLEQULxlRqGzWnypIGsVcbkkvXi4ACWJ9GQ03fZWtsqEOTOk1N+d/ZLDuRrfqbaZPekQ9+xopi+FSM0D3paivuO6yudNn0CbqmK05+U4Zb0WvXiqDb7D1BBTFZxAhzfhcXJMqJCm+/vJAQa/oTpqBxxo+rHaXDs88RekqC6ONYbBNwDf3o2L6ErL5X5PwEaxJrfw7ftzpTtKA+Nv+WGMmcvGwLY7jn49Jq7s/OQ125l7urCrGXLCU8Xor8/xuBj9zlZ3YF0hzCW599AE7g67hR8HwshHQc66wIckIAaoS7+k6thuRZIe7Z99NZ3fH5oRJDXlrpOrit+wJptwUYlbqi3pEojMJLpo6T2TO4SdNAFa+FFhdsLr179IsNqeSW5NZmJecHgfotEMjrdn1Z89UCud5sLtQDyWZy81TD2sjCCPnleQWhz87hQxJMlsm+N9TNlZiHTIbDsdsi+ktA+iHB6Kg6X+zByk2mpmiYFmxWwfMOyY7/P1DMOOxY9tald2C+IyFWm13YU/NT5R7aM46z3nh7gc70dK/4znIX67XfgjEiQ8zZlLDXPDZZGYfe/AiWYl2/bwGK8sGIZJ8O3S8s6H1JH+IJEzrg7kiCivz6bi0DB0X1pxUpQHeFNwLKvsYRJrjYH185mAYP8FwPJDWczhhPHcEHPaPg5KawDWRyUiE/CdtGe709ZaYYW3OVnE+L4y3ueF8BPFW7aJ1uMS/GGrGtAQk2hAPi2u1dj1bRXl67kyTGcMJ8Dw0qcmAtw6EqDzsvsuoZliNl8V8dOwiatOkOOqM3GPeiAgMQwgD+eseZ2/9gJOut23xzher/YxD/ifmtoW7UkNpgGbm/uHuZmCbsUloFzXBPWuXVnvL4hmnOax5kfCYZJ3MmznNC8ippVpztBhgbzQNyOPltqomY4Ud20+FtmOwPAx8NBcPk2MRCsvfct55Uv0cBePb28UyU6P91I5zQlfTYFf6VtQhUxGTzC3Q9lpAWoGZV2Gamew+/Tijmbg3jLspbfctmPGY0U09YLreF1yTDHmXaEu18g10mRw/xXMSNQUxZoq1GlLJRjuFZFrqLnFihwxWJuoAAPIuRL7BRcuO7OgkWE/08w4ZffCBFrwZPg4FcDjhcHJltEU1dvyWpe/95F9FBu8y3+3O06yifD8+vKMPqjgsmFtPK7OtfEklPS37a2QPIglP/Ywu2E4sFlO+OIK6EP02xYe7fSz2R3VQyzaXKIXkt92tPG4ScZW4tOa2s35dfAxk0aKbG/polRvb5EUlH4HOe+4iTclidK407JqPhU9xxtKAqZOUwWQ4jBl3a0hGbja3e8++77Tz6UPOy1wpoV1adpXYp8tfNoAmBBiEe8QA1ue2njlT8DVllqaosvmmga2gug67N3Hq6zehvlT4ANpdDe3M/3pQiK4Ug0jZY1rxtIaAOf74QcOYwBSF6A316dF/52SFSWi/Se1sVrfnrupbiJmeuM4ksMoZXGRwU0djyuWiYRWyKJl60O4bjCmQAUzIR1W7lo2DRa27WHdiXUhzaeBAjr4rQrD0fkffuXLgoDkbtFO0oGEflrAv7sywNVewgviy0p58IoWfr0ytmZQscAJWVUyN+3AF8YtZ/Th/uZi9tAi9R5Ol/Ef/+nvhrPVXZ9W7mKAXK1GH8+TcrmwWbx9L4ZKxzLMXep7B2hFVojJuisvQQHRbI4rfnZwnefxU4LsTZn3HoYoYbWlt/Qn/DG24h02B4uNV621nL4Q8Aux58CQz68J7wlNeAqDu7nJCR0ztRasrxkYVv3Ko/5Uvn7CZ/yG1yPkAwWI6mGgdIYKZi9pq0bLP4eEmWNmu5SgvB7QdFirmKXLVEw42Q5aKz/M3xfJj+yT6sP5dOV50CcIxJhe2rc9iroQHD1ZjwHA/HC6BAYt2X7AovEoR4Ss26uUASvE8vT/piqLJh3h+rWZsiWlsYwDKGdV1b3XtGIs/BNiKqJE2eUv50kS2QVMc47apOl60RTY9sqi/7vu0G15Ri+/fSQuStsR5Afi3O4jND+x1fk2zlWVfJyV/g23TtWtjw6QKoExzbWl8wyqVQeLZOH/c41paL28d1j50zu1aGDaw5JUFelsuU+u70yHHj72czz8o97hGrcFIK0UcFyGEyB+Ja6nRb2B2qRbvatafVad9/pZqxme3eF1QrW1kU4Hl3UD+sUftUTwWai3aiuSi7STjf7hMbfk3EqOs79OanoJi+gPAr1KhBlfpB6C+v6+3/yp0t+LJMMrKgwe/Va7ZwXpKyJ/IAb/0G52myIM5NJbir5dMwdtenMd/h2xUBWExYvSbgsM0OBUjikfX70BXINPHTztEx5wd4vVLlPhjEebmGWlRArhcUjeSu+8CCVABOb7hPnFjG8v609GwxdpXa5R7Dl8dIZY6dRaVCQXRbf9/1HxUNrKj2wc1jlAZ5cIhJwZPD+ze8eA+doZrNG+0gZ8JM7vuHeEXZIqtDbJ/LdzUhBfLMjhmozN4XyQem8Ql3LjE1mebTXA0Yxs1fr3qbh9XLaELZG7hOvAK4fA3NAB/qazTUWo+vfAczkMXSlLDc8HxeWcjxOWyt7zrzYxVq5owfOZRg3zpdlDBUjpXVrPrmLhJEcBeOht0VQ4ETR4Ssy7bLUqy6qaMfZ2ErTCoCIaz4FT2pu0fFantrxNOBh2uMQ/C4+2MQbjdwQEqOkGtHOQNUUTirt5aEs+JxgRA+nNPPWvgRPaWtJV+1jyeGx0Y037mx4VFKhLVsUsu6qadhPrIvqY9bulusRdRq868h+myupHVJi9GPNwa4sW+kjOhKvSMQpV9OKzGaxejSPvFfrjCI00kQ/UrBA7f8t0ttw8s7X+Bj+seKQG/uU+EUZ+dpQGWVgMzirtC9JoTCpUTtS9bgmhjMipZy4mr6G4yBcxMrk3oH2+5u+nbNm/v5dpMsVhNDlcC16nQxKTIb+3lNo2kTIAe9ux5vfuw1d0X6NACyMCcU3BEzvY3omQEjimYl3Yz8Q8jjx0BzF8zwy28ziv0xnUV8FLf/FmaJ7CeB5jS9lLvUC6ZDr+UnM3NJqfzgpfcsR4/BAXxlAr6YTiMdnCrSh0/aTZ71brAGb8P6MK0S6sh/EM/Sf21yzgsS/40U7FxyS38LLAii8Zu3Id5gMetnBBhtKlALKfPUgaOGVIphWDdXG0co5NMbbSkViENe4jXFyS77DH1uZXFuZgS+lHvlHkrwHCBZMyIgmrzMtba3T/9dHk84pWlSsxrEcAw2LV7iTCrkhDaOqHGIzV+UfyxXyuMMXzkxxJsKU5XV85iaGVUA97gPbBK3pYZXVhYhUbTGlaG8Itf1P9jiPvw25vfx1GnNOJwrN4pI7FEKqbkipeuzPXc/i0QM5uY9xyVG9jFjVWXl7zIPJVtlOlyj2nev/QDUPzbzy5IvtY1UTHumYMKQUtqDthuduhCRmhjBZD4eNML1QBNwBxZy/JihPTRIAYSQZ6DBRrsg/9M+50I7AjVwaPB/aQpO4QGTgkKYsjA7pTaiBJ/KAgdUmOVkdaIK+wwSnUthpnbzvjQ54sGwzACRRrKY+T3/1KJMHj6Go5a0d2x66ZJYvGmN1TiT2ANy+D0ojwVPZpkZ/JMYT3wFm083GaKLYf5z9P+7ykib9CJmF7naQNcfOKk/YmwgcBgloxyBX8tgmu/1ICnsPMyjSFdVZm3UqYXKxrAgdbOnBN95gCbfEDdZtmVIACh30x2Nz/2o+XP87PLVr725PalrleHtpD0BRHZ6YcjcpfK91Q/X0s/u3xbwLZgJFCsQ/d/2nMi38+oFx7hne6iPDLYzIrqsU4h36XsDAPrRhSZ7a2Gsa4xbH7+8kCQIiAm/UnuvFDO6ij/x2cuc2ggq4kJ+LJm89zFezr8Fqy/1e8KKTjAId9QwcCiHEgPr10YYT2lCe6de3TGU/038H2VXblBDDLxyCJKCOd7cESgyZwCUdKaRl/2DG8iw9yP0jI4KUR0cA6dfrVB++u7cpYIoh69AgajJGa2PrxX6nDy1KJ2QqEZZq47nBKREzTH/aj1Dr11UqCNCllmYHnAlDlNVvcLEL1l/GyJ/6x/GkiPfyjiVKAz60z/ts48uGQxUFFzJyo1MujGQ3gvw75mkKeEuBjojii55/zBrqwflriajP8P3VsHvlMapEZ/lko3VW6SUYpVuTu0wRf33nSkwlZpH0vehyzHdUKJZVwaStiIy4hgNXdqSky2DEau9evlkqv+ZNRvnxyJTF6W29HCPQZ1/OUoxqAf8/Xz7io9WvqOncFU4Pg+zBvcytgQeSNUD/1TvztermEwEBTXfCvgmUPQ4QqeURwqepUp67XI/+lkYS/p+rlqjNcoybzR4ra9bomfK0ygHcfrybqA4s+B3yqyD479hU3fn3hzoodQBic1QZ+nT8gEDyIldJwhy3KZgEOrkDyjIAdMDBxXxopwVKFzbjetuFtWMOobBydzm0kIEBvtNzZvx3ImBMudhHmxosgY7TtSjjYUe3pNyVa+vosqu/iqNbUmN8/NwLs/cy4DXZ3vyOwHn5FjuAz3z5Co1/3spFl5RnnIT9d8ERZlF1bIyepR/OqqA3lWK1M48bhm1Y2aQNnyjWLFRhsBbk19YK4xvqsaFJsxB+GKw7yimQXyDy9dSkrkhJk6II5oaEsDcjIK22qPXnDwCsa0PfG3x96c5LB5r1FH/jjRgD4ar8HPxh8mO7Xd9KqfSN2jU8+lQvNGedaqtYU5k3f+Z5i+9ng3xoR7TCHW9sQ5yeegRtMXairdPJejzzundWkuTsGu4XrLt6gL7ZH0IGClOJfQ4dZhumu+/1BVa8SpW8QSVrj6/M3PSjrviGrea5p/lnx9V+nBu1Vscu6zvM9JBltjUKxvm0CX5z+xMiML2X/FbUlSyuOQt81TVs/4YdNX5NgSkK6kyb/Keu9xQ9q856ZpYp8rWHuLsbb00srIihaEB+jnwaumGQmhivatt8GrjF8rIyMkzPzhT+aWokTCdR7f7J1kvJxBideR/W9q/Tbzsm60YS3EcSaxOI57aQOHzCVPcUHqfHjy4LlBxRSJ+O5Knemwn16gNdQhYUoamil2Fe8/iHUmG/A20Mi9UmaQyIClfxKZ5dpQPMyPNXn64C3YlgLbO04Bt9WXXNJwRW2ye3SXEO/mzn86JqzVzytMt7YSlCpK/X/uIATRhdIE4fY4z8XNCf1s5zeMrm7wM0+jiUH9cDTOB1dAdB8WMqsdMe/k6xAQAMiNVZhy4IUrrpMFIZVXIkeQOdneWp6fP6UsW27VhWi292fbvKjkerCHk0ofNeS7ip9Y9QzpDmRMSH+iD0YV+KYd4IbH0v3hXuV8VxGpGikGZ5ho/bqQHQuPSuQdgf4vJKEEOo+zCJ8xbqVE2t0FFmsMZq3rOX3+wzr+a0ALZNFvCFuyUWkH8ZJD67klUyfgiZPQ+cL7ZQflRPg1LJ5iCVRd8RU5/fl129SEPwPJDBVbmVF61ihI3NlwGD+KiE3rzv6YYqweJdSxTdbS337QjLzWExE7QIWrnoB1ZZ01dJwRSX4bgQJpTOuf/eki8lxitaChbax8iWpkCinYQYFXj04BuaidBcMg18ZNyLZUCFUA98wiE5Tkn+SSLGSzJMoB/qbCgdP12X4+bGSSp0J3eL/S/io/LPAVP98vLhHFiP8VPSnlNLUC52Qj82alMWn5tGPEXLejK0QnQZk9qLJ+XliJ4UjIQHu6IUy4bvdL0Gzf4F6vLWjG3Ynt6qmPWUEk5dEOwlG/WwrUgBLxTyk4vMMNDtDPfSw30Tke+u03+Rgb9GEErdQ+yz6ZG8lhRxqUm3jD30nm80XM4Y8DWqrpblFTDMb6N99tfXVpSq2tZkGI+F4HGQW5qMhXfRIyczbXXs2yaoSGjA1AgD0Rb5abMyOhp4JtbSZVT9P+romhRDhGr6mm50qv02k6Lms+3bptaUigX48aIYOCG2kU5varuUEUVdkrXNo6lnrKUsMEA9SkynL1Mvjogt9oXiZIldKNNqoF4e8qJDFtgEhwxgmO+Um3IBOqhqf+b5JzyZ4E+VA06xKCfpcGzORgkiWooACeRVwNZMCcVOSpV3OV9h5LzW65DX5Hyk43QZmGLmAmH3iNVpsV8gD3MkrDBNKMOutwWjmYh2qaCpKJ6jQs35nOa3Ao5puB43X8DSvDFFLYlMxKhonol9R4+2BRma9xfQFbOp31h/YgUm3MQdOEDboAAcPnU+osBtK2LdhKXPOx4fMphCuyYa9kp50NFqvfR3GTM08uGi23ZGuiLnrQG7oZmSdlZ7i+3mUYojVQXKLbH7qZdfW/IvY6KenQtQggvFKOttIz6srx8xH3enx+cTtDNfuWrYxLcSOHlnxMMQ/ce6qE7kyamMoSZMQznZS7wzvw7Zwt0V2eywG5KySnvrXr3USIiUs9doM9fjRQ499p0gTVGox81CbEaiQqgQS6U//+wS+16OFpUcorHA0/O/sKXWhQIfWNFeldqxUdGBeGT95GC8PGP1ut7qLKy/xFSIpXkiTxwNwsViTl/7yU0jOI//9a3lHzCuaUJPZyeqvjdCnPXfSoOE3wOsKomqK5vAG2W41n83Za6D7CcpzkT1paBPG5L8s5dQavBuoTNmWVStK+GOYgxb1EkA30LNYD2b6eDS/kLBjPleqHmDILBRlSWVSFYoh4q9SIgFn7/JPIM1cCb8Re2q2o8Slr0Ungrq/zd1HFq2djgaiOoQnAnZMWaqzCa2EMp339Y/ocQ8Jbz2T8msfjEHdLONOmskkb8so1DiWAJmCm+//lMtOfzDAco3kGteld3qXFeAKOELfxRIO33Y8KJqZz3iulRfUt64Vq0gIKEVp3pp9iAMgnAQ7+gMrekP1F4fbqRx4259EPw7VNTAAf0lWsgBPcVZKGgoA2Mz5iUPu6DJ2kNXDp4PA1R1QXuby7CTRSnMpehRwBO8wWWOCZdEeOqMUcm6qotOKSBu2P3uRPJd7Hvgrmq24tCVwnYxCTuyJX8ffLXk38Ww2M7LE+yE8n3n2sEOj8n7kpsSqTOOswZzqqN7TOKIGLk1p8NbmKL3tb52hELClyYgQwh3nzT21v7LtAXSmrOdl3xKGqpABv5CmjrvMrd6V5zg67Bt4f9szc4+e399hnqFHMl6D/1jBpRhpQHIAOKj/8JmZMIeL6lgSQDw0EEd/KWh3JCM+n6aaIM81tgB0K8dFp6b8kDTjkuMQOrQtMj5k/WnLVSk7sXUHpqgZCrN/ZlFK5x6hrb5BMwo8vdUGomSe58NuAWrFMLjGjsWH1iJly5gSHW+ugOf8hkNzD60IDmdrVXEZdbp119U32fPo5v6jvzv/RRoguZQaTbNd2zJrzO8boJ1rMV1uyLKLQcdN0yIY10PM0axEyHjtGN53iVHqKoLj9fq9/M0ex2O9cXCzpUx6QCf0A3nZgTSkdfkAlWqxhTrRd4udGU/PmJwoLkbf0F7LBG/9cmRVecFLRu58uNNjctC+IBW6F8YYXyXTLWEhnIi2T7bBfB0FkdjqzgEjxkI16Fz5VJK26eEjR/b8kqLb+BglJkaZrYu2WwTIIppZpaLwyVPmd3Yue9TnMy+I1oIMxCNVAno9sicAkx+BQKJH4PN0Kv/LVL4MeManT4NFSTBwLPdnyiizSWtUZBRkUGR8XNLkIP/aibA06nzBIdOg84OJY0ikXodGQq7ans4Yi3cH6EenQjFGuTRN2TtLq+Ux6pifz5kFXmrbL8LmJ3EwGkdIGVh5eYV7SVspROjYdKUdN3zIrA+faNX9znnNVtw5xarqtIZMVIdBnzaK85IiDVtsJQ1DLRxk3kLoMBWG6/fZQPzddDwqz4G/k6KrHwzxnrvHqxcKmShFKyFn9W4mPfXfOeILRw8ERRWaT7u8y9CzPYCBcavuy4Y7LLuPWmrf89Zf33fefttUMt3qRE7TL8leSwXWrSvELRdGoaPL667whP8L+d0KoO+xTT8n/N8GXN7ydGWJtWTP/IhkfJSQ61+T1kfFob5qJvbnnotMLAW9brWvaTsY3BBdJRu1vdZaLq6daxp0i2va0hjkQKzBu27ZdfTUh7zX+CJYnDJ/gj4ewNzXrplKmVQwNdS4PyazuosVq/5Vf3KeBIPhndQbvPCE9lAga4IfL3QUScM1F8fQ2gh0dYKhDul4oEf/+fvVxNyYv/kWxQ3aNpisfM8Uw3dCQRvOkGbqlJbrGuWOiQqYRDraF2Uwmx2kTU0fcHdU/ONEqQ1ry6BjH+e0IpOY1hX0z4DE4NIH6Zkl1vOFHvJmDgZTEVJ+laR3PB1TzlXFRmDYFYcrCIJ0NrmlIzN9Zbz4mMZyOvvC8/EKOQS7tAs++LBn4Agx0DlL86EhM0AFpCPwuRJleM1a6pBe7A85zkGm0ljJ/Q138yqzjqPTW078mwIAbzstx9dUUq/TWWVX0eKvHMzV8rf0UhOk761FInOLUu7OnFTIzUZ63X6npFIvJME8+LMyqYKCuf6VxfvGjXHihs0J3KAqdqZFGix8HS7vuzXDJ7Ss+D6f9sTcVTOID2J5xWGAXXCEjKrUFl3vN9Uv0VoRdILx8uLcOXB9iOXvDQH75tLnFnUq2wFNt2nDt6HXucJVIz2uKaxSLmYgohaEvNHspslspdXFTv/jW6D/n0WVo4I8M1+yCR2qJ+jkAHF0OQIW/Miq/lIBKYpeGlg8C+cw4GOldxliT5ri3DqUwANHE5Xcp8hWOYDmCJtgUbuuYC7A0gQXMJXFW6vOhYLhDGK/z65w9djXjLJ3wtN+r2jItknw7EA7vUoeLanJpXbpzGfyHwe4YvxQHBzUNo3rfD4/l2zAJm+IBYRzuFwL21bL730DDUMdNEmhoBPcDXmISTjFa3Sci0QeJDVDPvg/Zh5jQosBYsDTmAPWOm3H5bLYFYz99JV0uyae26MUxNXNjCU5+GCV21YM1IhX9lAZdTJbI2jFl4ZLkzBUxBRC0gCjon5NZfH+cYrf2QTeRw+wqYaKhSA39jtzQXdMstpaX5Zkx0rHk129q7pDJBiijh9hfDxX/6prRKFat4WWIGlNTvZBG7pKPxszQW31kHWkFRj4I1FULyb1/Vjg3At/arc2fjgH+S+pm6O7TjkXrdoDyWtxmVkVOQnXPLtcz4xt3n5p0TT40m1s+cGegTRe75qMF5nXW5xWcdPDIhISDBSkdX5NZZVWg+GbLVx02I7nRPyay24dk5NYp2WVVf3ZxspRgPmsHGj4lO/XKvjoef0dgqjyu5N3cmO8Pleugr8vFSMGS3HWwp6WfJtA4PXd7VNpqDP0Whk7BxIK8xylAMX792zjVld5V38hy0RBJqqhIWRimdiqATRgO00DnAGO/Jl1cMwg1Ek3BX37KXmGto+HDeAoAGpnug5S+UlaFGOaoKKm8WADf2QBq98mssqq/xn7Jy9MPVHJ+x72uSrKvr3yayyr46NhBdud88muSXRwYy9pst8OuiZ+vWq+caOtU6eT9oboTnDFm2zbd0CT0HFYo5OsWVLGwpKhJLMwmK9aQSs8sZyF4eqXKv6tIn5x3do7WCOZwBwVrwK9dEzDAxptrQnLG4Dtk229w7+nkb0ee04GtjeXNRlot7+sfqaORKt/WZImCXqw+CHyBdymeXDwPSJRHbYbCmOysyQb7Su2r3TK9LyxqOzDcxW+WD5mQHFiwykNOCZBq98mssvJujrTNVgDej3bflHN5JXA4qQArQpSOr8ne17iBj/uKi34ltk3jWn4DN3lV7RhjdAkjQ5JlNmyidRg1tzpPvG23c6umNs9PdggDubKnC/NngIjeKAWSlVtcZarKoZr93kC3UIOTO5cpUTmDm+7a5BeOZ/9VY27nWrJ/JpJaFFh8QyqNbwkUiKG866Ad21zCDK20eXziouWbFJwLUgDV75NZZVV/ZBHfY8p2eBlC7A14lCphmv2QAY+wZfrQG6Y/wFNYZpcyE4Cu8Pj1dSCMYf/q/KQfuBLZTy0rw9Vn6vQxffbaq7hS0ihzYIyjhU9cjNGLeItpfaPrG0+w5vDPATllDm1BJU1F7bVVd/LkWsHU89IjNTnP00T3WuY2Owbr7316Yqvf5RlqjWQwyIasGYAWKMPm/ZBIyyXFqRKqwBxPN6LKmxRjjKUmRfW3FIDf3KdllVX9kAHBgFsAYrtOSjaaGzCxHxNtuio/F3c7kp11fLezByqMZDjxRps7Xv4LaLaH//ZSFDhJKeOi9I0H5TX1yHbh/x+TPDAvyGW7eR9vWUHX3juk68zIiniozsMfod95769m2FHS3gjw51/7YutLCqIvv6SIc5ZVJyGf+klX7IrTJP2UpX95vyYD2yaxauPZSLLyavp+dt6LKqxauT3klCqC5ABv8Z+d1fOxgAAD+8t+f/I99qDlH3D/8UpvU70j42RvzxJgsaj4m71LbiKF6kU9gUu37ta38/+tXRxY68wUMcteQ5M4/TpRDZM3PhCI0AqVU/rgBbUiQB0qzAeo+prbABPtH0k6LNOgijv6mlmQOkSn4tkRYIf8OmsF/pq0U5Jbbji7/IEshtCQdj0RB1BLy1/gECUSKsXyQ2Lcz62lCHlZSL15xMUZGvNz6Wi5heNdD0CpRZu9/x8UjQjP3Xo889q0w6Nw6OhWKTTwdSyrltqhzrT7tY635hbWBNv3Mh5UV2V3hdaznueKNw+p8gW+W95o/E+GDvSqpGtdlSMB3B+Jm8Ln+g6Ws16OCDkFYkcoECtRj4+ypjydxPOXgTx9EfmNK5eUgz9jMx0Sdrrh8OSXIyuqreP3w9u48YWthcPSLKCl5o6f2ppetNF/u4gXPCpoe44J7fWKYhiIlukI9Clv6Q+oUG8GdWPxgIlohNosK3UKpErdwABUajy0vHaCfRdNu9r3mWhlJYBuBkWwVrH31AgIhI/c5Zi9oftuXKC7u4LgSNORDB23GIP7E3E66JnX4XUykdkDij1zKiPywT3KPAe/kWQDXKrS07gbAtxWj+vkXo4cgEvfMXSY1GalTqb8HphEjckU6qdKW2Oxwppl4KPdX27FOPdZTEcHgdtaXrHAoyAiu2LQ75m6PIsrEGuPaQhQu5BbC3W8U/5F2W2ohhqx7MeskS2CKt4hTJG/TsgCT8UG7l0akJeEZe0UBlnDkoyR0EuM19HRhCHmJAuoKInBxE2U5UA9fIAFh6OMQI/0n3ERhkB0aNEj0xLgKtxcveFCgcJFnwmiMsLPqCHiSKKNiablLd/PWehmg7fGkqKSaAi1aujG3saUnUzpAPz6f844hJvALrf1L246kjNe2+Pz1SyWkMUAK36DXvr8fSWbrjhVfe1wfe6uczODj4Z+qcBvFAe5MWgM85qCDx4qIFHfjSuSwW9bEPEzAtHo8T1z3qjpr4UGOFt6V8OA8TGtG8nzsST4H0AM1y8AOdxjmDoVRgTd+LQRhaaohjnMjS0Wtyu8KUMGAWRkBGiChUtWU+MylNkBC2H/C5G4THpQNl2RD7RLaFqAPq9HrrokmCHCcOj1OeZcDGkn1FQUTkyuEEHoYCPYzg+/rZf8cPrL8AWTnVUYxZCgyi5CVr0XGrdFw/xgaYBfe/ihY7hi+80CVPUrQTUbOeK8YLI8bF/C+tAmc10+sh7DBVTmr4mJr+COJAEsp3Al69AN4OKGJjsORP682fb2qDuORx8kWhd3vCe4fzVU22L9rIBRzO5Am6VYu5i8ij7zKBWJcxSCHsKOdY+UAtDVZzrAAXuhaD2WMgnYuq0rGpvaHyNCjtvEC8FIsGmBZjjsEaNRsYNRofv1fup6Kp3temYHKxuA7j3blq68fvfLMOMnYFNwXp+Q7AdlzU/RCRitXoROhrQkxV183J+ZIwLDwNcBVk3AAlLcuTmwDLVW9GB+H0lTDXZkVnpFI17A4ogcYucbijSTVO2yCnfDIe6+kYPFGzNEVudni2ClxQhcIawPk21t9Q69IQ14YU1iH4AI1FbJgEAxyg0c1iOTbAQJ8WeF4bpKEKwjO9oM0fQkfH8aEhBoZworCeSAwoaznVCEMbJoYoxqDYCWJoczI4dPeN8G93HXWxC2KNpZodLkGOJxobRwBhI4zAkXGs2ORJ3h4/NzAcCerOvZj+x11K2IA1RyP1iAAhpjtbZJq1TLasmQ40HkFzzj8LQAVH0cLXNzauRNS1mjXpYB9fkD1q/ihYGavsfXCtZVO7LH4zjymtnHpo9l0Q/QK+WuGtLl7Qu8rdxXUK4PGKswNmkSfukOLCrX8mCUcMwRWcsidfcK1/r/zAMAZ0EY1RvBh0hnN+FmUEpvXQ4l7YfCrrcwSsTqFcE+79ynKDC1IQc9/VoQ82/KBknAkYdkQTt5LzuSE6Z7mdfgrxVdl+k7S8v7SN5J8p3RwNDAFfTpfyvyziCuDrVM3a/GwSqMMb6CyQAOI1Ta7UtCOYylUPbPbePHzFB9LRZD+RO5vhDRYHpLFr3MGjlveAyXemXZJFoEOk4EbSTpEm8PwmeEEyFqAzXBfp2tD5Y7bNXx1MULhw/TEMM/5FXcfc895bJJINJWeWmB8GtEBKoNFIJaSMUgp24LNwo96nDEtqymzc8wPudYg5h8Bk0QVwAHxQE9PtpEUIXaVzgQm54d9XUulgOn5L21dsXQnG2NOcObPOWOXd7hSH9QQoU1Mj9CO3kIow5zL0jKy/rCoLbO/waCYMbOCMl01JhfXjlfIMJunUQUYFIR8Qy5uA2UziyhnxhQgSIxSNRHRCnhcJmqhGEx5/4S4bkrJ4vEfxink1QSJe9KJSX4A75hc7uN/mZ5WVW/h9B9KBqHVEEz9HeBbUFM5l5bXjO8cO4H0aryGd+HNfoPhImLMcvsA7LiY0nGempAaZlu7FtpxUI+F8C2/ApkBW2HC15MdCvQ7sDOTTjRjVhD7JXhyvrHHzUERn7LvRpTcrJnuDRD1MSvn/VG/iobEzTQDCSLJXqcUPSnr+wS7tY/Qkya9P/8XUMjim+i3xK9KK4XQJ4uiCUrT0cqs/onw1vWCHEH+XfeEKf9QYgr/nCuzgJFHTdkveO5E++eoZrqA8gdzS3HdGgNS7gU+bB7BvrIbSYTcvEDXmG02cFPEtj9dDYksUW1oKO1PvRJZ9SBSCEadj45hhJ59kpAA7S9XFd/MqkjrwXzB7qdq35IoCupdfXVjEKSt9WoIP+CME4kkXptylQ/Ik858rbdfwxPy+8wAf3qQdn5goEljWKoEdgvKAbmrriXkX9YKQiXFhITH94WVqxZwkfl2M6AdzudqLHRW4ILz63p36nFSIABQ1xAAc4F9hBqhT5oXg8vpGQi4GS5dIZSr/y/bv1j/0/Mf91YSJousUbq5m0YYVEtStiFezWLwrv6pjPVvjsFJkvwLTyK6BSQa46nH4VoaJkIBJDv8W/7/2e7+wtiZkJTd2HCtaNFWrai4wvZicgbKIK3dn4qFo7eCabFRv89U6RSX79yy3bfn+IuXXahhj1k0FYHl5/yTegDFUWJ8Qg0kip9GlrktFNfLECxUGLyGcj4nsOLXId87FS3GMrn3yTy6WI0TIXaKGeps0Eo5gX/0sLWN7XS88U7OJi9ls/H3St0t2VhJ+KpYMMMhaJnCdSj0mfjGqiENZqKJrK0iCD1QfwD0Iev1qixQBTQwVSesK4T4B6ZMvQNQvORZRUSvxMDmiKL4feo0cWn9fTCQRFT4DmvUx011dWPPQZ1STQDDjHlP+S2dN59RdsHAXA3gOlIxskJgAHLZ4dJDHtdcv0J7Gaz3wgydDNRVbxbDjinE5BwBOsP6/2zYCDxVMtnHj4UV6AtyzyDL4CKDFUzpbPT4XX+DPE/D3nYH45wE+TBYZtB8jQBrEMNTQThbgHabZ1JBwcOXKf8k++RxlEO1lKTfY+JEmzNXsQVb3iCOwjTaX9jURgPOM0Nfa/9ig1wyuAC1Z5DQQCkUIz/MAmz75eEWOJNl2sr2Y73G4SoVO1NIKsZBBeugsjp4HyuOe5JfNLc0wVk4Df8r7L+QdrM0N0u0H3MPAzSA3I5j6wVloNRtnXp6gbaqGsyyQxuyWlf8AJgxDBChMIqJBA1CDwJgBQVYtb/lA1RX3+Qc6wYW8xcuWZch5tW/vBhQ++19iXUKcJTHIqg+hdOJ0rBVvHBUX55BOzZGPgOlL3chiZTS2ETsam9leuEQ7NBR2Uj1quOvBn29GW87Q6tTA/LWH4iuh+huJQ6Hv6hpW+cO7KF5/U97okekqMLf4uQwXfBkPqcCcDSkNhwu/fpoGM03gFSdNBz4Ee3lY9ka/2GjjdkjmSCJ/PGVLw+09h8v1BS5qt/fsVU1YbJ7UY6lHoybiuYgtsNLx+96qfepCI/8yonsJe4JKJBryiO8DzPYgoxhL+Z/ybRfg0cCYDIJG2LiZ8oJ+qYVKAMovq/O0paPoZsSQF6EQL7Nv6MS95adm9AEV6PAA0uXzp97+TWPaZnNw1+iNwEdcui2vy+URzS1vKuu21IUdGlRJ/w0+Zkid7qpYq7ra2Dic9DIYBNckgZVvDiCHJr4gDjFrd/IdvcwA1PMGBLEpspBy4teeG/QZSA81cI44+CyaX5AZ1OkH/IXcDV0n3zw8anvvpoZG+l5oWPATThx0EtEERnALxruL4qLi7dm8XM0JtVKDy15r3C0/NBnfAF3A7wK/+mXsBiM8wYqjC885CtYEDJQFhLyYW9jVOFR5Pb+6TjRyA2ISJo8aAKW7iessEqFqp3SGXKQCQ4Xk2zHNgElAuhnDAPE/8F6XW0Gxe65gcJhMu6bG1bj8Uqa2wnR0iR/jsZ66xV4tt6VPD5qvGdPniuXDhltK8nUPwKDdbTSCOvoOWVfpYNwiNMpLkVWBy0ASL55Juc4BnjsqJtcTAj2n7oGRI7pt/mQYYcRFm2eIK+NAWmQ6f8mgExhrPD6cJuBnzpZLL0l5AEpjCXjzRuJsl+aQQKcfvGBl/dEWLp7RRLktcMg6Ck0hZfItr7HD4CdghNVSBgWZlOCV/HED73Kle4xHmA2axvqYDC1Yu9f1mtjTakoI+iQ9/lSYCzohsXhLj9uUk/PkV6P8Y7oj5ZK0pRueze1EWr8kybFmuLNiWxiQU9r3SJWpLyLc/BcNuXZwqpen49SOVfy2O8hpYAMEmyf9Mkoe0HpoHfukVsSr4nxBPxSj1lPW8impUOKC/mPrRekCULzZZvhevch4rn317D0L+5nSJeKgfgSzEXGLVKkKeKOqMEQqCX5WG350fLGVRJuCBHqVvMeIJ7KL+bTXOxSBN2hnIZaSxQurYDQwJ7Qtn52IE9zi7BqNLLbNDgbw/gmjkOU5+gsmZkyA+sye5DH/rjeZoguwfuie+jGi1p0k40WQPYz55yLYnoE4qcQCN9eGGcJBlo0ruJbhFu3gHs2AQAXk3h4ZQomLm9V9E6OgEoap36UEprPatGjzWrjiU5p7YLLE4A5AZf0VjRXhv8kcZX8PYqFu9BUF/EyHGDWq8HnwmJsMCajcRlkrCkwjP8mvgvUDULtWXoLs8uMqPDO976mYyBKuY+HN4Vfl0vWJMG9dk5J4p34rsS03SUgOyu42IekkcEbSKULWfwn6HuQytdQ4V+IATIUw7YKXqIdCxXrD1Bt2BlJFYQq6WTgpu0/nHy99dPgUUo1UaneSNVzDF21NmKUpVnYbQeJgKg+UENDhCFxVxqjczcEO5r72N4G8kZXEAUKdexcynf0V8xYvxxPI1CgTFVos8t1gqezNR6sEA4H3WaGJON8gg7C1FXufjDrY5TF9qM/LnmDeErQT36i8kmtXOgiC5JTs5Q0oolhkEAsN2sx5KmStDMxXjuC+YvuoSNYwapKr5aGcIo0sZW3+XBWzdOi2yZYs+vKgEe1tVJfiJmV5EialaQwp76jNaUfkrH/mEBgYiTBPtcz7W7zbuMl+YrL+CkZU/odrqaslPVDEeXPq2DiiPj52GgHKcMKOVSWe6xWZC0/x+6dt+etgmUTPaTtnb8U67f7sa8k1gKqP0SCA9Oc5cDAG0MevqQDSjSA+/hc5VyLYcotfrT75oDWyinEkV5WqSqU7lmdM4oR3BMEr7uAXA8BDpr8pGW5q8mW1zVdqQpPG1aYimnbfgwawkQaVHYIoaTWx4jxKNs521ZvKs+y69WWAH1EQ/471vA4dP5I5AYPTq3Q+Y/7tpvUKLYBuUrWVGetzifjl3xv2I6YWIpXCdRKSWLEFKGfsBs74hK/YmGHrNCLl+OZJxsYz3+3bqUItTQOv7s+bpBPhX5Uk4dOPDvT0OoN+GYec5ITToSXfB1MkVpsndBn2KXFx2cNcqPzbkAyHNM/q5uOVplfYYI4s7OKpcnF7zJJMO7RZCVjEuAZ9XyJps73Ci0W/bU6p9b2CGfKX2h+yEq6ADkHSWLxBpXxQCgUzCoMqfz/CkTnceLZhBdTxUarqqw3XPjXXJmqj+Gs+LVwrjgQDdKnCKWk1LTZ5ittYi5s9rpBqSdfD1YPec8Ltsyf1CA1cksEqidQ3hgQnIdxdB5VuMFwwRfWhgsqKh8BKhYBITjiZEPYT9DYAiGsDOxhG9ET9NME9S9iHYMqI3yWSjOtZlUVj2LGMDpmggOCxVJo8/EMsCUHEJbLIkhavI2doEDX4VJVY3pnmPaKUGfq/pz3lMNjXqbELa6WGkMApsfQA+tSIw1zy8Dq7UVnjQ4AvkDDAdhdMghFPkgo0DC4DVQG25R5qNgf+aoia/NNE5p3VtPB+EafrhbLm5RhHe7s0HCvUUCrnEAROL+pjUlp12U2O7SMjcostogxaYumxhnYy7tSzu2VNpjfK4VzkkEqi2lh/sluUc4zjBBxCShzB7KYecnQ95bXni/ao3Wf2TWTSTM+enl/QhqE5FvI0diqjS/cfq9UAhqlfjVjwkRhi5feayARMZMhq3wqPvngeA1U3QIHS2KWeeHC+rVkaztO3R3H6wVrZ8irfCORIE5Z+8jGJqXLtLdrmqNyZraayXaPzoph+MLtGp/7diO96rPA/rgVwvnEVAvoTlGzyadzTqAmJ+zAPJaH8ZtnUst/CVPg3A2s5ON3kfTPaTOu/F/XAX/5KnfUu12p7QlA/q5KjQlYyGb9CJ2SthR7q5n6gnRnxuQl9826wGMt1+OF8s7pzNst9jrtT2wH56xK2kKFTwSWHQkTlcHeWmjwuLZVpUg4uoSbpG51L6DnydyuBZbJrpsyjq/wZNJxdI+H9D4VXwvR1/DT5mGF4q+Zbj3qUJQWLXjNWU2CQaVYurb48xGQeVKFWf8d9WmU7jel5H3zifze/L7UsZ21OaLpuAW5aUqi0jU8adk0tCHMBKjJXxzADb8yIyAmPaJ+3rgLQx9o/V3SijdDkkNwBBGLOWDZgTSblhbeDAc2TcjY2gdNhLhoV9WgQdXhtOaUGnQyBZRn8061AEdXIwlJJvLGSZKHbPTUu4kEOb5OlUSfSehiiJKmLCyAylBTyCW+dJBURLRAWyaysCC/WrwxVeRoqHR4XGk4feUN1Ewbaz6b/zNf6468C3xOAMFgtRl9hYESlzaeCb278xpBa6VRHLaz96DNVGQMJc+K6Poc+xj5/sE1G5wbRl8WmQzkHfBl3VL33Xr1d9owEKwGyb03DJmD8xtY7lMIBUFvI9VECebNYfvU2Mhgg/oeWT5ojltjqp9a8jKRMWlYuH9gdHWxx5SrGzhQPLlUZYOvhKDPIp1E0qSRVdmMjOzNAAZ9YzbpVAxg38c7TiUzcvwMMzroDVe8DWjmLZslX9t4QCiFHDsXCX9n1uSKx05gMI0xUNd5sw7ucW/mAIisan26qHR1hjTcY7TK+BUvCrLQ3WSLdpEZEXsy4AUgGUJ5fRWWuMdtDePMSX1Gj/kPaStAi0VDsrJ+0WLu9xRBWMgCnC0ClZ+Jz7nwU2GwAwBPDBjb9GBq4eWh1aSlEutFAvsQ16KnHdoOPCF/dVzq+uM3b3lxZi7Lw7wFV9pJQ3fWCmKJb3nWs1lgQexYDil+6ghhHmlCJHyGRIEDXbPlI8SydZprPaAkiTs3RXs415km8AX5oDOFi8FK6d+hdmGEBSFA0ciYcUVCrrH3UxoG9eNTy0QaXIaOBZmOnlu97Fs8w3jti5nyWhUpJjkoqssQ2ubiraC8ELXdNX15xV+5A+Bd3g6HLc7y5ARJSAbd25u6WhsAQsUourlWfPkoK2NYX5RDkrcvaG2GNVGl2PXKcb7q50KhkB2fF0WZreAC/ks7bEsUcpFKVwWgnGn19sadrSPHhnN7TDHDWfZCypRF+2ktglEgMjCJpk7ykYrMDRLiKioEeHGhXMgcjSCenGHPEyGHe6XrwIJMwSESNFwJNOYA3waBlzjqRLC26ka6qg8ooxnztnWUepcvA9fhA7wMwVtKQ8ZwDTsJumtUZHPzxFkevxZriKWebfzMHCqjDiZgEf8Pj2nIX7ZtnFM3CBkghJpZz1QItgfWtadMhie/Q2hCDSfQZ8YXqQHkGswS+nBXR+FnB2dcxgJF+8cAFj2/VsPdp86hoOH3da1tYRAuVrsQBu4HIY+8+j44jKZZTPuODIZjJVHQ6SXlgaMsi21021BzECq5mzLcNQEScJP+LC73e9qewj2e3wgPmD4yyoJfmtspH+rxE2WOcZuq92TMD4fEaRELjRXOKR0cgZbZfF2XuCs69mhDfZBx/uztEH0uCLUBDhbAjX1qtlWxFULgneDY8FZLSDCEb46ESbbfuRILR88VdPt5FgJMn6Rix3+lDA8ZIdNoQzajgsIKrVrLSYCBk29YXf0GI67k8ZOEeWNF/UR8Kls39GpQzDNDLi/E2cixjMbqf4nLG0imBVDKHv5ElhB9H/+VaPR+R0qzOw9PpkGV0CrRgLOr2JLxIQjZ91vZWddarv2kZ3Rq8qiuBebxDqLEclwPBTjor6G2DmHA9JO1EaK/o0uU82a4J/8qCmq/xQPfkY1E9YsdQtxAOv1/KjYu5HcnNJ1VPVx3d/BivRjTs1FCY3QfFKXuRsnr1hkPfewmDqeYma8E71uWS/iKNIXGB3Awy2z0Xv/zKut+CrKNIr6uiwOiHD+KWLcSNOZ05BKtkhuoHWiZNVxDkMG5PwkL9HedQLtRP6e0n5xZPtR++XYPWFRfF6usupX3CK2kYRiCyZiWR/I6sfIQqVre1WoaksOvWj4oGXYN+ExKSn6FcTF7xEd/JTDMVLPWlh+paca/fg3qHqP9y5jWxQlsAtZpzOQD3rIjxlY3IuPFTLYMgS6WIk8KZlTjUoLO05MyA2ERs0ziBuUzfv2xKAzMVPdoAjqIw2eIUXI05z9zwX1QGGmcHrdJLkTsg3FAcWizjCzxrY83lq7CFCZax0RRqLZA1QTCn7QhTDsq+lUT1x2x1HKb9n8nnFwPtuZIt5HDBlVnYSjX0k0j4Sla379k6d5/qo9rLjuYdaIKS/7OyMKJu5YSU8zTv/vYA6B60yKZnoRfj7IrZ/Ov8+/6bEZV9/JUSSbENKIFpBqP54OZV2/2IqEYmzCBMZv9y9MRSquOQmGJkJp7FaiGoA7MtCeQFFYlyD2PvkcQyW3XH00SN82EPYRRMvebsoIoDsgt4mjt0ZwtJIX3lKaAiOfGigU66q02Qv4C64IS3gjiQzxV9nRlB4BWh+EHMJ0UPp9BY1HChflDpW044YGxOMd85V5x44K62GFJhU8fSXO9+tvtAbGnMmxwcLnKVm9zpTk7WBS13A4qNigcG39NYOyAh80TFER3a+o2DsO6h4pj9JFaL8uflC6nNGo+n2oTDs/6ctVWm/YS/1sMYOqwK8y5sxg/bfheiA22NFKlMQPYT28+aq5Phj9jYQubS2+A6vq1HFLYlzYCT5TQCMUrH+E5dodDG5/WwiofNqaLotf2t7C6G7S4sOXGtxfF0J3TBKHtpl8IhCQdN+zbVGaewegpmNntJpRWtICWnSxE8+OXOqtX+FjmzoHdTMboMK9uMcbDYExPaT9FnFvXQtm5IMvliWFMrKr6RAsMcsQhON0YOAPa36VoV2X1phXOQzfQ9OvE9TAKaEvC+Av+akw94UZUkKcDP4r5gdrY12Ar5+nSp0+8M5Y8m051huCWknHA9IpLQzYDMygouPUll7EHWBTpebchHB3vtT5tHI4wTSUGGnsW6I9e9hBDuOsxTCvc4cT+Y6w1NJoqPz81aZG7dpphBvqHtq2Dmr4SN5ADkUjmcgAdOXIFzQKFl3UQi52zSkok1CYUvU/g7gYXoqvfK8TD/4OrRNVWlxl557qMCT7LzgJmLKXnrbSZ5iUoORi7zXxgqpF2VhFkEFMnzYncT1GRjhATPPBt3ZclCLYfqrZ4h01uHnhDKIIp3qC3iwYxc+DwAI3AcbNXBJDQeK9QTckv7pOOxQVeqBP1Z2Va4mBI0XjwpuFDd8BdTW9RJsdJ6ApebY3Vp2OwiPGTfrU3VQ94J5ItRtTz2nZl8mTxixb3JocMykdbve4gWlcodG/t8PZH8YRe2XezePAYE2+e2GFo6CLlrV2XH1stI+vdpLaKJrGxfKxVnBii3wrK48QbEvQ04/XT5JbG4SDXADvgv+AlvSpjhXO2f+8NqGkzr73kuRP53eFwNpot1vuxh/hAeC5CzI25dvsTHNFbF9vYPgTX5gRrolbH4FoM7AgIrqA7MNTn5IcbwzFuLcQcXR0V8i8FMPNg4eKv3NUI5OuhYr1IrfjdnjrLRlcqsU7LdiUe9ng+ZITXME7slS2k6aLwoGQYOiilnCjq/OIf9jZvs3hUU0TUHZf4RV65jgtYmf0at0nJC1PpN1nOFmIN3BBu7e4sjj61i7CcFIBUxHgnKeOeygsIdlqteZKr4diUW+sL4h/p+ne5682tWahERzuD2wS+1IEQCvSS28grGOgymYvBvc/WheoVLePsEQBlohisJzvyKL0Ic8t07m3EboKuu7hjBb0X2hrhCo87RppjyYrCOS4LxHKXrfL09FoL9R1lxRxJldX6RFBBl8fcuSBM9XiNJoaTRupZ7pnW6clb2Bp+4BOKt4Fj3IX75Z2Syr3p7zO6EhpK6hQeMBDK//JLy9SWinf9LykrRcQB2NHSl2uU3PLZJyDsbgr1n0VX1p2y5NiQtF/d0FfDh2SWRviKsubMl+S5K/F8xdth6Jupv2i7LEAR9JpM0xXWUiQUrgGl/FywHompRBErsZQUOYa0ikQmRxjRyLJKy7OOtuCfKZ19PRyN/b+PW2aU+VPCjktG29ytqLE20UjwbjtAfxIrNEKF4lqCmVQM1NxouVgmq8bQRUwwsL4psbFiGjuzCHIqi3zjzrLoQbLqBU/yV0P2SgbLI81u7VkvFF22aykdjrycY3dVuBEeR402pneY+oP9HM7VQOctcrqdVlSQW5TtMlJX7NgRN7T0A/SPfYZVEjQXKZ+OAEzpe1ibIiKiPrhv94VAxbFeOuYjikeZaYf8E9OEWnrEVH5/zqBtZC7xlSNzWjTsFTluM2Cz6SLdxAFbWZBBwUF0xSnNOB2bgG3SnwZ38D6YysJ9yyjzSVgugVoNwiCGGWr36LwX8C5FWnKPqhKpl4TYo/jjq2JPNGyrijMe33RbIPcf2RtyvCP+hhXIkgzjsxE1kfGuvF43v32PBGwL9J+318k/ZxvoNngUgLkH1f4Xcz98Barj7H+KKHoX4qax1m347jFI3nHcFTjhk9SUOTPqsIDIx0+uxmv8kK0faxCwtw1nVN7zB/JmmN/Lxu/OBxkRhgyTzHWiK1Y4weIlqLQWkKg8rGd+wG3Oxrpk7LaE+xa2wbwZMJeNNO45jyXe4yQU0/W9Ee/QpVG8S7VTVpfoIo9ReSY82tNV5rVlI5mFMEBkLKuU9b0SXDUno/JUGMuLB7Scs7H6x4CKuQuYkuzKHOw+0wH5WM/EERjTZ1hituWDs6LrAJpxcvRHaVpSE/gXCx3riOM5sDtWKnZlutAnp/CmhP4FzNDCWReabwM0iaCxTfz6tpPOzv02mCzzrZhWPqyL6wUyJUS2N0atdMCOw99REKK7TBnrfluVqTS6JcAc2gg5+eqUmfwXYEg9PTsShdURjbGRO7yhAfPtUsgW+bqhsVGFHyiPQMyO3KansPMUoypvWGK6nZOwcrTfX9sqOcCWo7gu3cvaBcfXafZK2ucziY26zvkrkuP15PDDP+QZSJxWVHlfa8ZtYVplMYfnEOa6wAI+NGbqLUh66VHoP3R5pDCVwnRtzLHRLmHLIvQcztqJCHvhufNRYVkHNjT23cJVSJoJRqhSI2EP4wxwVnwaS6hO5BJxHrY+jJ4enzO1KJcAncN22dwyswlM/kHZadj8nZm/XY9fk1FQcrnFw8zjvXnZ0rHQVMkwsQsAeAu9jjyXJsASlBU8yDTZla8zfVM3TbcBmGl+3lyx8fzsWWJv1OxYc1NHYup4HrlPp8w8TlqjP1AKbyFgatp9CVjnCa4+huEfnY9qba/QjTRKRUojk1YJ5Vpocp//i+sX+YSD6huj8XGnRsJwpNOUax6JtGh+voqF9N3n1TRgodzq0mXCMd8DSaA3Im/FsJUjY7dOPJIA4ZAPxClRjJLWp8wpPsTjJ0ZpwBkoWgvpks1gZyrdTRb0FecRHFxDdiAlS4EFUNqKXpJQzGexmo9NJ+68jysUvzIjCP77JWrh11OfTX7mB7ctU+3ckAXtufg6knRFsuFMipqq/HhnW5QOjsBMlED3LX7lrF5ioLovgYCyRVyM6I+JB+Xwq2fZLwDQEempFNGxJ8n7XOHAcrYNN2ZLF5rDztt8d1i1X6EuOZ6+tbOePfkHyhoL2XNUbkGGLC+A/XPOcgsYjzRUGMUYwOelDQghKk79ogwUGzj0YvVoYwIhDQ77K59Ml7ap8OZmp3uZjeyxdMzyAc6AfgZcPlV6CScnvrM+oc2/Ok0V5TeTcnYgKLtNFTd5nc02hiAjGYXyEq81ts6r4+FACZnOTGxz/BQ/hebohmudrygrcSJw3eOO9rJ6ZScvlyHY3qUaRrWDQXVnMN11u82HSqWEX8Buug9ufoaYKVTAIs0Yo83nWK1QqkLfZikhkC74r28GkFYLhm0ieHZd199QeMjH3ZrLltd+yaaL7Jc0ex32CBnbWxmrzUdji4RqzwnStkZkw2yJY0vIKWA/BXDDOXqLfhiy5lNW9MqtANSQVfF6UjV5JVv3yCAJ+GV9jYkJIYHmt5/4dS8WYu3giO19WDzG+txhoU4TbKy1QfJ84Cv/PYRLHL3zaI1m3b5GuhT67CfnRdnKBs+oNJ109fEWryEyo1dSvGDLE5HqsU2PtD//V8M4AeszmK8necxnLdveJULsQct+uLfTA2HrFmwFL5odioQlbF1nD+QzCMeWLjsokEzXEb8wlNcYoqUiK1srZ4lQPv004rpYc5TS0oPyN3udENSpS/2dAji0qmoyDK3ib0CiuDXZqovHSHSDMDkM1esJuoBpwU3fItGxwaVIkQMqf2ys6RjnP1Vr+C/Olv2xsH1nQiez6XBgsvvA0PwDXGLH5mYd+xvaGWtnDP73B7mj9nk2pgvpaeMUrzxfG4eWhfP9N4cW+cXmVhjPDsBMJ3RkErP0UQirXIe+iaIDuIbUEEoQI1QGE8YycBryCAp+syT0meUpTg1pHYL2PNz7oPzx8Q7d/hvRwOEEN9LxHZoEzZWcGu2wJUxUt+N8RkUgSy+bJDaLbVvS8WSi/7HC0cCUK2ZqF5JurH/ymVG8WtetjTVTWXs7eK+wFnmVg8V7y7IM0bgFEhx0u3KQJXMF/vXPnQkl2xB5MhELTl4NOXQLU7I+eYEgKJaiHwxFTMyulbamQfi9fnnOF66zcTWuh8Ni+fCMrFzSUQiuvunEP7uW/loQ9JxB6LD/2iXxmPxfFsgI/rB5zbUnOWH/4hlLyWXrD3CHQUHhFzhdfcoXj4W/6Bl8GYunSQyP9WJ8PTK4CFodb20/gxHs7rwqwLzXc36yfnORjubW/Xy/8J/+1gnDYlkN9IOrH6xGbl5DoHZtWazB4ZRQf+M5KWA+lAdDr2dNrttK/qyr/W7EuVyRJGzOgRzIjgoYMe5LCgRV1Drt2i9muN/S0a7lA9I2EW5s9x4uvkrgAQZcpxYt3RqkkVWNGgJQIbG9XH76eRe88ljzwm0d4nmerq3POETtSZuP9ABAngdpkH1n7d3/YCiI/id/Um19e4Z9QbfDM7RSUJkvBWU6DeXGDyP/ojJybTUcuGtVPiFfMx0QBDGQ32ZYitzt2DK/RAfV1/+qg9hZEbJ+6arqgIEhJMpM9nby5wR0RRop7xlvWZWJPd57HMg3XMJyB/Ga95r/dW9534ROKkQhzXcnu1q6ZFn9swWMUQdEJzcz5zqc/hzV/hwBCbqnM5UCFpE0QRLJmbA5ivzvqobYvDFvHxhWPlWRlRVXw3vFG6pRe3UvWZTwN6zkkTTNaHEDbbjHrolpgYMHFbrLP2FR08V4QxyXYaaVCUUIOosnBMMwP36XDXeDAVGBC2eF9eqkimB7yFWoSgVDBD31jesCw9wkydCO4yRubVSAcXN9LNUgxAiV2xMGc5/C/p8ws7srApLrc08nMaHmRaOCbdseivvIjiHzjTCfec/nse5kt8e3lg0wEmYDAmrxriHGnCaLYrumnlz7fCEqCt+c5YsY0S4gdUQP1FZ5PfTijkY6nZ+ww9qRSA4U3V+xx0xJHqKB+SXp/N4oouJTEhNNKKc8YnLpZrmBHejNc3eQnQHQwXgoDU/UC/itbyjj8b5cnwMRQoHVzjZWt0ds8P/BpwAFp7FQ50gQENHjCnnYTqFlNTkikKGQ3/mZCbeLJJUwkrXo9xom2/wm791YRKKdnGU6XAOqfJaygozpuZTCsEriRrpdF9EqKoDUhvI3QC3YDj/fzMn3nspgo1NpafbxkNHqf021wxIJlTSQ/3Ub3fxGAFxJ7P12bQXmLv6tw37ZpMQ4Xq/YefkcGviGGD/eK9LmUkqYOC4Q+yAAO4Zoh59KeBKDm4GxOMbwdsMPII4cWHi3wirthyCm6YxdaqoE/B15QSUlhO+hp8sEsNBH13xsYoDWFMtraN1ZpmGsjTDVlp+PFTQS68+rpVWCNYPEQPtvoRmKmNW3xcXHh0Yz3TLCI80e/T2ZjnzCIgMiaVEGz0xX3W/zkigJquQBO39dtqiJ6HvbUn2dOEK4OvUsjpqAbfH6zOE/3/cdrr/EjU/n70zWtx5esqeCcAjYzCnyEQSJc9H2pSCvlGylFdZCFlkh6H9BqGN8LZ7uVhsQ5mVEBaE1cpx0x+qzYdLYsQ9pduP8/Rtt1HNQk0Q79JjX8Xirn7XZ8f9X39NILY7IELKaTpe6EGWZl8Zyo6vNg8UbSpk/G7GIRTQCMFO5owPz5fOy5juLaY1Ns73e+eWAd3khWrlUOp0zlUTgkhjQrlt8idIb8PgmLwZyJ1DIXV0NIxzi8JmM9tfip4jdpz4x6W/ZEKRKip5J7tkCvUOt8fO02lCotWtQz38SEBD5VoNsWbUYcEx0JL3yiKbTHZpex6MJ7S2z2CbvJ/R27bv97zSXxU9UbGNOOd3J9y6k6VV32qRYs3Drq8M+evxY8Ud9CtSZqM8uIpC6+IhZWWdFjH5vqzHijuU/THSpgJG7n9HKILKnJVCAnq9REt+zi6Dc8O1DWnbX+BDxUOfbydu7XkxWt6DXc9OI6ZRx3hV1UDvY7dOGYiR4R5P3qBEwBIz9ugogXO2aLiyGnYO8RANSnW8zlS509ClJJPtf76er+LLIMFfZ1TEOlWqffKF1thrbuhZBsfdqjYkA5vQ17uQp1gI4nPqR4Qk+065kZqUdC5PUgcCsDlOzy+Snh90OR2Or7WmlpGbg8qOBSGVnqkYGhirBuU88njQaX+MmxBQeSHpY/n9BEmjpDq6Bvv7f8TQ1iIT7SRXJHpgdUqnnbm42QMa5GOLZzETxIobvkS/S4kZ8RZgFI0kPyW90XPL7vKmvwpxwwNqmwFbKLDoXodc/k7O+hevTdn8qrHFbYfl+nm7W62LH7dHB24JuBX/y73EAKUEse9ky2/pzIDr9DkI9VZow3Wpnxjp7K7X9I4ZH9+uGtsJ58H3bsG1we+bEi83QGFfvBxMvEyWVgV1Qgka2P/q7E9uwgatMYfzpO2XpnOLaZmVXX8NH/aBGEl+i6mNGyKBH94iblKCimVrZs3cMSTGs2qcMoo/wdOz2YBWMlBAmAbZNS87l63s6h1Tm0HK5CygRw9pggVtW+xAqv4hMlGZJp7MeiQrKPm2BH0s6DyR9cUYzl2CIFAXpVYYmcXtfNyu9bkkGM/lDY9jN3QYmAvode3ih3J5mU2o8/SUqHTDAFEHq+J/NphWg6zta/DBKqRK8lhIeJolP1khfJDu/AzP8rIx7s9y8HHRz++XbC9/hptn/ZvYT5DYaLH5HtR+J3ZBASjXu2NDvaPKie375Wjz8TSE+tgfqGEU4brjVkSrMehx9v3pD/mUAzwhjZ0WrsU2Avaws7NE6LFNBOukPVUlDvePYbcPPwKOeBCX5ZD0S4TkmrGtkXtVDxbfYI39UphcAenE/T6o8jTnQR717+t3CZY1/Az90lB4fmEpw+Ra+tQ7Q737yn3r4VmNT+gnUuX5X1EQNiCnNvN98U631WmDmIBEP++ILj5RraUtQMUD+1B5SEHopkdHk/gAMQeXLnqh6CR7AXngq+0si7A7mjN5SlqeVhMah5U8vbimJijhZ75RctphaN/9xkz35QWIjHLjKvv7gKu82BjElyWkP3wRyv2K9ekIAzY0cnz6xRI1cl0q1CLrbAq6bkAxt/kWJVNxXBUsTHm7n6FmCfiG+ny7gpZoGBsgWsTnOo+28csStnObSjMSB66KNUBrVqNsGl5930kVdbTysm0wXBZHb4sZ0dyrMEg7ZsTY3FY6C7DBLqNpO7LScz3eXzfMrib7NP9YUv4ZwTmpgsPONydqxVJ7vrrUFqX5PwDuzAvKr4ycPQCfViTcjMGuUUp3jl4e/2I+tf+LgXFRiFnCRJcT+E2ltylQ+tlK4nbcrAmagPGPF85Z1m6BXxVKtl0coPBAuIywHWXSdXR3NXMSMmnnHFtUcRt+NQdiTCbwIXBHA9i2QjNp9oyFyxIHug8bp+lhNPWm02WkK0iKxHkRgxMQtEYXAK7mxqXtthTg5w0koH1wtvP2ruaKEtwgmwcZIVBcLruPiHYdoFKu5X36Luqdkd+uaydjdnzllimTp2uMUZmmn4RCyNjL8IoAXUteWoeu7ak7OoYPsVIzgfyE9vOEoArBezm4jeS00+Tvbs2w6gOAD5CIlDhW1NCcXKxIUVW80V56c482hbKFhyUeGMBsCvAr8Zn32J6mBaf8cMDl1GD3AeJHs4gGF3U3MU+7NNdEav/FFEq74/ew0FRWLG5MizixTJZZDTdcyfzmVuNsIKwWIpEdei4r+iCQvV0RjrK4sNq6FbJcVgQLo6P6zMUSAX0ssmwGzFgF+x5E2FD/LrIr7yRuvAYMHo1ve4/Py9Q2wZNxBuwcO4MSmhMvCcqsGcM3jpanc9GgE9OUSc3gSUIeONkrJNDEw1R4YLKSljJ4fjX1ph8soHoQ7dkk5X0yDMagKehxK6qXALhQkk8DIUjwRhKtGN2MT9rm22qm4IDogomYEB0zdUt/tn8W6+FX1Ri+XJ48WqN+IqDelGSGVxIi5YJqrOJjaD8bx+Gne+DoyirJgYh5EtrTyltkSwJ3vZSCACW30IzG4BgjoyUeu8IynETB5MG8VJUX38ZNUt2eoGVSC7z4pa6pXWFpwM6Mx2Ss4Pgf6BrdujzOWilL+73L9eCeReI0lHdypzahA1sjRFqoT64/NI+t4WFsCBmzob/QgPHPWoT/Ujg6LEQvyS8Mb99Pdvhe5hUeYYuwGBJqPum9TSNyiPrbzGR95o4/PX5AVXkACqY9c2s6uaVoGsr6SSens31TgWaeDsXMq92G22WgAlRzgh9i7P3VUCtHTjRKg63C4eqwfPbOlMry1jsHMNy0EunU86F9FJnKQg4WRJNnvzh+dFuX18Si83U3dV46X8F7aei7Kqgtws/jQTEoC5/xMRnYo9adrsdbDeUMu5d67S1802MitZwS1so2qRZN49bkniw0HavpAx2UAoR0cQdgm+091+Xvbgoo0x7bL0RhO+p1tw7e9YHkCze0i2piMTfsNEEbur7HhMP/BL8mEVDhzQ1JEc7voOFOe59UZA7pEUnlrGzg2bOt0q/zmnRgVBMb07QMTbhOYnIswYwQdLwuG0255G0o4SbXc7MBGg8rmlsChGciEWYAf3psvmeUSTLmDcbul9icxVCsc0qJODN+1ypAK9eejciZ/PbN/Stz6f2NE5KTSiSvxUeunIndZxCRCt8zPxxtLEMjW2umxTSc3VFR4zO9NfTYLoDDZ7PYD/nFy+GaTb2ebC1rrhlrAwE+geUzY0TnQBa2ne0t7iqPdep36QFTnFw8zrEEnVlSsCCN4wcpEgMLBdUvw+ziukBvKAWy3t5Umy1QrvhtNCC4c/l70PCFkslXmqJFNKOUAUNcuDN2TueAywb0wsfRqvvoCfvI5a/DbD8L9nDeZ2aG26J6uZ0n/0MNe4245HFK3zXdZn6NW//ICwJ90j9A96zIWqRGG8V8rcDt7ViF+DNs0rTOJfT03lY0+Jt5Cga+KefvzPf/VxAxfRp+w4rewiZRjSywwYrJ8P3kylsQ6QyKrFEaysJ7guve/WsLUnsBfNuiw45feQnyMdjAzj9/dNRiA4MjKxfvpk/3WRht1MZ4cQ8MKUBdfDkWiHSho2tuyQH7f+kgV8anM/Pgxp0KoyozSYIiZJQ3hdSweRk97Fy/YZ4RWvcDYZKGpxxsWQXbiwAQU96szQH8nHCzatCl9JKqPJ611luCa3iMqm3egiqePOqgLrrmEUGa0XSogrL0ASEeUPBfpefSqjr6LTE7dYI5u0cj5cUMekGx3vG/zkVALz4h1Sf+dzcfo4BRRyLUP0xwrxxRuAnN1s10vvjDuZmTTpclxIF0BKGk+GLqzda0hLa6kh690cjO5/TQPUxwo8C2p+nXPsUXR81fmgIlWj0/u5NnzYQ0jRrm/n55v9iZ0XIVfse3Cg4G/NbvA1BatWlEFmpkbxWZeTj6N+eSpPNMSTij9hX/HICj0OLKMVlSgBt8J+PpE4i5zcQ9kQ0L5saR6iYJPwp7pBAxzOjjnu9LX/qL65MbwlR8Gr9kwMcTfI4lKQfogAvHNI5AqtQMhc3yNdPwPU+3AUqzXvcAsfgpo5SaLwybm6hfPeJGT3v46mW5OxXL+OW5/tXyUjKcizVgm9HLXhKC7yeI0CeBivySZlDcGVo71Yvrye1vsNDlhRV1L0iqe7rjxK9rHKLwRk7nCajks/T7Rk/07WX1did98vT9FoYUanw4TkQq8HY6GcS6AFgiN/LFeQElnEsnj/1NWHfOqEEuvc5PRALV1LrFeHUhoFbxY+xG7RQWa35N7zdRkVFBTbwnVPGrnsu/sgxwjy3fVcVcwqVcO9KGdbEZPCjvTxgRqLef2p+7nOPRxlKG4+IsQbFd9mYBLkTMCYqaWU1AHYiannZbxzEfg+LajbGLZsKIVOsYzNF6zeF8fw9gXgAbXbMDU176SsVY/mvmlEu9NWRrP5QSiJUQDMmNW/XGo1bOIXFj4asuZfaHq2oF9YBfG/NR1dtmTGDcy4DbSC1g7MknO9oJ6d6fOuG8FejV6f8N87JDw2PAzKTiieLmLSHRY6ItPOgfSn97cIpUpGlOVzIqwVJUxcjR2Mh7zEhJ9Ucp6R2VXLuxrGfr8GeLvRUvHYz7yKbzgWqdjF4XxHd9rstIzdCOa6vrYzcyurX95C4AEmQCOKOLARxbqpbIMEIEP3wLC3ftCi6NWFbbQ1SgjAGWXfyjRbn952B7yW5Tbopi1a4Z7pQYNbMJ1+GDCu8poT8obwES+K5h/78YUbmGfo0gbKeGdxzeNeYAIoHDn8CXHiOIE0LHlnAc3AVIMeWkjjrgA3NIzhnvrs9FlH6oqkWYeaBI1NuWk+oA8q5HkbPwlLFMUZ2ht8LPAn96O/n/U7Eydl+RIQC+noNQ2TYZSqGYqEZ9YA9l4nnny4USQBVBmQAcrv4XIDlhfY0O4rCXeXNW1gBS0aayPVmwdcColhLmWCeglIAcia5RWuIASxebKEHb4SWAA5YrNpxcj2MKuCWBwDLGDmwBsxnyxioVgDUCPKoR5kH84IgWY8KRQ1g0OVpu8uMfFMvfyAdCe7jhGbulaCl6jIfPFTQ6/i7h9TqqxETH3pL459J6ztH/uDmLlNa7E4gtfP/bi3nfGDTCtwTg0uIB9Eqr4OG18ILtuOtfOa80SKSJ3KEACVjQ74LoRdLEiTiJiefytQMjrMnj8EkhGnuBBO5bptfhKZnbyeMH5UD2OR6Z+0mnACOZ4m9Z4rmSHRsMeJEKi6MvLPnuNzQpfWwsn0bY9DvMjSs6KpIS/lGvXrZa/4Q7kkJdptNMapzQ+8UddnpEixcAwwX8CL5S6EqiRtzidBThYZ5TELmRQep0yGytrpGsrHKmPLCgfRrIR/TfkQ/fL130hHvJHAc2FfnwtG+O1Ev8J4f3kX1BMcMb8CawbxTTyQq+QU4X6JRGNhDhQAjIYxrMKsik9dJra1SeF1BoBnsHzOFcr7PJAAEhyO1/9U6hLfOLeYZfiKq8/8l6ge+YOYV9gUCDZdMTanN9cQFw5KKGgzJCs8RVAinfM7CD2I0bJm3KSH5BdzndJSOYBIMEtp3ve7o2XxtKXGixzF7lbez5209YVIcnKDbU5/FvAVccKY1d5QLNu6lKA1mPBKr82nCQOea5XeUanBsOhEHhhyhugOJXCaGD8bg8r80uNX2zWkctpmHjpo+epHJpTnkb/HrwOy/5rrwb5KhkbZ2u5JlB3Be2MFJr90CeNLW7+szdx+kVb4s1MPCOXDzr16s4rmd9trt6qEnkOJbv733wvBPrzuDVxJmOLmEUpt6j2nB2YVimlYKkabhttYIFZErBq5pexFtzZxKoi92RD3koy7U9Fsp5H90MQ28zKHP3U3sMa51S9GDRYB9Z4mDloU798ThzUH2K8hLehOthAWEMjjfdbaCOTrc1gt99LiC6eop3ANPR2d22/YCQkoOMS4r7PxG+c2Uy4AeOq+Y3ai25KojTDzBTDRuDZgk4wx6Y+TEmytLLO5fei/r885iS1tMFAXIME5Rd2XMNnnX2eHTiZ5P1EP/lsyjT0Iid3oUSMdYJRXvpbfzBmFUp9ruNb9hu/GSzB8pV5/LmcJaP9JkCyE/F+s12tcMWQboOTRb/kqO8EivjR172XQLcS1XMVJS6XBW2UQXlTVnapEvGxxpFIDmGG8ibBLY77IhnWbLecWOIaHbnzt541ZTdyt6nKJkYTndJfj46W6oBbycFu1TiOJITrZLODgV0IADcBEFIJyOreGLNJ9guv/Eg9ADUI3Ua8rS/SssZ+lH4GBtOBHThNvMWKd2gCicKEJqUuVBAg+voRegQkWxFbt8TI6mOIiDmU/eRF+Va20V1BpzUnDQ7rr2LnzEaJbVmxl83ogfZJjdqZYddyoz3Qs9gQJKjGamj6wLdXw5D5OPOfIGjpeKlqz0QZ1xusixeMXdZKiiUvlr2RimUoy8Ul1vRifOUdRQwSnJaUey5P1D/7MPbybaP1UId/HGhbVUi4ECD3InJuWNkGGF84iz3YsH8fHJ5oviMczHoyFfTRyiWwkMOGNau51v8wf0GM5eIH3FYQa9TKFIJlgYSrkAcL2vjiKUnS4YZ/ARRB20PP+Y8NIhs7Ytw+etXQxmR0JraGGVlCNxuTGO4QKNusekbnCiAeCewzirxJ4yVaIKOQleTT384QXGQI5mhoGpIumgqFRbGC81rHVf2SmKPgS3EXlZ0+JGmjbZr+2JiT/+usbNR3P03cKnIRySug0kRW19RCGVLTW7Y1TzQNfoVFXUVddHW0Dx8Hb42AK0Z1Qio2UbIPKA35A7Uo1WjLEqvTPuIECt3n46iSPqYAs0MBkizSZzkeNRu15dKSIPlsRKf9XujNHuzuipRjC2SDipQZHOqJR3EWIorbdLv7hQUBA6d2SMCEUGlL4BQjvjglagRjEFsPJfe/bt/VTQ+HpFUyx7IHkbBx423GCr6p3+wr51z3dCrab9Jh3px/6zTOsEhKEzPkUEDe59xRxC1NunPEWqf/kregr7jUgyNcJV8ZnvEDQskKv6/pwXnzKLzCg2DhDZBnBJfOduoEz1+OjrgK7Uxb6D5Hm1Q4tLe9apVZ8q2GPPLayQ/ftuExqNEIg3vxk6OTrTbWx3WHZy02x+dkG3dsynaJdOWIC9TcJ2jG69dgSl8DQHLx9+sVziK6jX9cY0B9EQAQ+EGBtYS49aNmmmD36bWesCl8ycI2oOOMQLN9oD07RYj8ASTgt1Fs82Dkn380rTwLiTzMA8vVbnt4Ol7/WjgYrZUMiydpAiVD44Q9e/UF6AjPuOJkUNFmYYA44rs+eeS9OZYtWCf2So/kubqOW1BYHpNrAlChM7Dx+VudfBkLyy3DLAtRPtgUEJSkgJwcnyfs4n1P0EHbh87SIaEZ8m+MTHXE29R49fA51VfB8NE++zUQY0j3hoqh1WKAkBcutHO3Q+YLeKGWZjDaUWed8G0Q+hDDh4xrOYre542hI7rl+oVMFGQqr4IQungeEbTeC7/WogvzqsPIAA+e1X5VaZDjICwAAvIz/j37XWFJPdjG/6hT2MigsxjvD++9o2iDh3JjxjSUKnRoqTZtin/Hp/2CgMyKdlNNA4RvgpxfzHfPO+aKnwykoAK0wGrimRmiWF9N1OTGjFwNUI77Zpgt0V2L+QmN51zYqNuqAFiALfGixCTt4keobEsg4++5OCIgeXO+GNF2HSIL0XWg78ylrYzWNnz0CCDi3YU3gxHVCcsKNS8dqak5th+3izzKJPtgNm6B1LutoOaWP13v9AAukry/c6zCWe/wF6L8q0RE+muJ0WCbg+9o68pw1oIKH8pIg0zUTAw+oZUDU9dKVvL3WgHBcMolNgxcXBc8+25c80GUnQYFbFP5g8TIlrRLD3f63bl5ol7f39/A5X01+aBLhavBAJchf2WjSoRhILD04Wuhokv5AeHXK3+t6C1i6p8xFaB7hajtA7X460t9ookbk3r9P3GCRwE3gzV6j24FarOEyTvLeWCwgCLaxI7KcSl0+x52G+VqnXk2C7YBJZotyekomtwfR+StlpZyz5g440GzHbB8YLUCA3K364cvyVu+j205TcxLTTrcc/Fyx2s+81s42K/zFp5QWZKOoKWNLIzw9ksakgt9dw05olIubwv889u24bizTzzF7SA0nuCcUY1X57oilmpcTU8wemrtyvCDTEJlkFzWbT/t8QtGnMb/qyXA/0Yoy41gi5Kb7MhjVjK39Oy8mO9+TSvwY53DWQ72excJtSUL5qSDqebgaAAhOZkNcXjtQLAa3AyjoTFOUr8COnSYvka4uo1PaDFkVvdAoCkqswV6dfD505m1t3XUrbYLlUMY0gy1i0V1ts/NpG96TvdbL3xlcA1qCaYn2yfY+btV8eBpQIjMnYmfdDNWWzDrIA93TWVRsmbIaGr99XNr+Qwq+4m5baEEiOVhPo30hfvDINxCwoZCLGmImI3mva2gXX47fKimKlw/jG1pRxJRMTq8CGB/BC4jpvdREzP2QbUMxJnRKDmG5zq/7fNL3zo6wBg2NOGCzikC5ovPRJKl8BA/X4wSvZ0tstKRVxFpF2PvOuMoC0sbxfEuXJnXQ55C5zbGIob9OydexfOcUA1f37hr/vb1E7ZqOzr0Gbwzd9TjdHGJt8J4IDt6TPa50bp77k/9HILt/TxV+Jh3Rgov0uzrf4oBHAIkWy7wUbH70UOc8mrtFLWL9fh2V6h+j7/cUR9DslORNMezvNUSg3hsCJP+w7eyAB2vGL3ErQO17jDnJzkXnQ9hRuHQffGMjz3tnBZlh72MUzhf8HW2QgqnP4B+X4Xu826Goz+n2om4KlVWB3q10CB1ZqA/Cc1YmdxUXT1ZaI/Im+eFzATn2PbO0Fgy/kpEpHkAKVbAzfDJIZ/HD5n0JVu4h+8Uv3qvQX1FmFjzuDJXMXXIbOMs+sAMgD0EHHuYDK7RjG+yV9i+FLIoQRoxjXIX/XL7f+LjgOoE3TfiimW4VhceJHkCbreT8jK6U2UfqHt50FHFcpkwfR9w19XFjiy5hVzDDjRsvQ27xBKJrFnLXuUqC/li2cJhwOdcg3Hk9olM6HP+FC2AZdr/SJ0c4wBjB1bnbxkr/wSf9k9nkOklrYJ02/3mJQvE0qq6Zex735P5mYge0fxSO4afGpeJCV5uulaxMqTUjTxc0wbseEL5ynU/4duaYnQGB/32XZK7v3igOIpoVKCDa/Cz/QeYeEbt264UP6RwwGri4vdxBh3PUMGSxEXppOd8EGAyhlFiAcqAGeQf04o+VhJxxfvea++HcII/e3opwwZsm8FLhZHLttZxXptCJQCkLwfgLVJkJyFm3scw4XAJo5GKSkXtviA3uA/nhus7cP527ONPbaBKojT8ULjawgLRQGNbH8N8Vya1JlYv5PhmpghUSd5V4gFdkwFgdokhDZFIm+uJUFvg+zYU12AiYuoKwQTIXe5ZcXrtiXNoHJ1zbgZG1pm/DgwdEBUD9eMavkHs24yCLDQaeDB2gGSwzwKVRyKXt+TrYPS4uj0dfL0zd8K90iSEbtvooBVphSG0dS4ufPagrewE1yKkWMm8fbJ9UHPCiaTPE2gLkeyTQsPusFY44akcyw404hIoJiN3X0jpZXlj9FAU49Tq5b6HOGrVP6yuV2VhrPs2xB9zqCqWIJ8p8XW68ftkMv1v2qD+X8JFiqL09NvduTqXBy5cpPvjg+sRUikkq66phIA8cnFlS831ECX6hCkGcHlqr9BE3799kLAqkkSzqJroYS/XDqff9HkCgoROzeqWnZWzVuVbSsXSSuVvnKil6AMMqOXPYTx9AabfYTV7b2V8C9CahVV7XTmWBaVQcCDqgVKdcnLJwgzM392O4Eom789xSvZWoyDYqywa8ooS3sxOlobp+mQUqjwkGVF+NbO9I4QkHhxffSHXQVK+L3u1k9OsE3JEKMRG19jFVJTgZsJZB/qoGr38Y7PectFaOTIvj3HoGfpF7NPi1XDb9eTE3XmXUf8E+UyTr2OLwmzm6jVXEz9MkAfN2J85r6hVdU0yxNc/Rf30dCOLuUmASOcZbZdWeSFH5Oj+VZosiqGrOMp1rM/qw3ox28Oj/qDaQsUnhrKveHVHJ8H81Yi6tN2RrG9JzlFuip2Fl4tPe6f7l7L/iY63sFf2JwM0qUx34MKrgAAqebsad8dYtlNcpcgNJXlGVJCXFuAPQ4XxUxEECcenJGNg05OjSdJUKFxQd0sW/xxPiHzJYyr/ERBIO6WhRnsClPij+qfWSt2G6SQh6a/+3Pl4gSqmHG7tik0jKbIznCeUTEyPPMRwFs/zTswMXHQ0GGXvZhYWidGqAfHi24tpTh9uwKzmtBC4xUWxEtw9S+QGP2uauDIrdSN0M+CoImc95gjO/YZJsDrdfhaJXSfL7draD+YmTT8dIAdA0TV6a/b/cgqeox6QkdYBBVEYI1wuOlJ8r3b/N2nS0IR5zvQ5idEO+oagETWPIyUCxQHCq3x1JrIW2ZZ+IcsTkj5+LAp+sKNucwYZzMGdjzuaHzNCZn1Lu6mzUXJmef6gsKTJgU18G4WLe/5QozdnGHSY72i1or66krWYvMlbaqc0qP6uulsrr2hTqJeD4E924mr9TprCqRyf4mc6cEQGTRoVeJAKyGOnRvQy2Y6/tvSkL6s/yuNEtXVm5o3Xeg4zGNBaQdJ4Aeope3Ge51oBv9JtZmAzwnbuZn3ddqsL1iJVkBnso2e/bGwfkxR6gekauPMvmS3ZmzBefLbSsfTb4fUUqML3tf3dW+O4xqTMxWosCBPPYTmT/ZNShuNC0qmYxkWJxy6XTg3B+4VVsp2S+hYzuEHKva7YqdVtQORV3vxmdBBuxpLqd70mRpa6nN3RPrXNsrprUkztUo6+ItrBG/CyGuaiXxTbjhe0eqrwy6PjqZyB3jeKNMju32NtEiV/S+mJpv2hZZ+x9U8Uype190J/9FTZDrEospDRuMZvWF0W6YvBoKOcNZZAZP28XW5nosD7Sl9v+/Qkinj5OiSIImaQxKHX8G5eY9tOitOi0s5Vvl5JVtukVFi7A2u4PyQeobaStoxWs0E7Z3OP1BrBa5SQ0vOKors3p7WggIxJLyg7n5jXGEZomy3QH2skmYvn19ILJaruZVvyeNn4Q+g+gCL+pHH7aRI9gVYOGFtrRhe4/OZ3Tti2ajcIxJvRNcDMDOcfxVCd99hOQFsz6Dydk5fXY6fr3DW8hymxqwxnbAF+tlcN3bBlmVSHO1btnHQIF0zhTzLWDOrJ1jBkyHOrYZCc89jPLXXCx9LzaPCGhub7GFBzMj26fe9BfrDNhcUQpbJaeWWTZicIbiSsPBTpqvRGr9cx2S57WkzbOoNL0vpUr10c0AALIaMWxWIM+Y/xLTrUpp2lHqo0gPtZ69UxUWer4jxUxUxFsZJmsHS4RubB/bWqpd16bb8GpvjRFM/jCxzyXdHMaNobckhWDnuBQAnWeQytW2fjeoUICuBs8XV4BIhEfKinUnlI6YcBmedio+ODvIADxIqGPksAB05qmpMgbi9WnnsTiwc1KnUQv6r+lhpkbbJvW2ssMWy2vvEeRhFQOPbeHekqZOJu4ehMSCGOfw84bpUuDAgTf8C3Sun68qksSlWd6vMvUG/SK+QkU2HC0CSCwic1fslfdv9H07SYBRiWmeTNruLlZsVxTztrNXyZPvHg4eqPKaSoDIuFpvcTYLNYsB67cxGJB7tupj791Y5eyYcI4uqB2S1T3SeV7Chw0PIU2LtomX60nTfyvnwBiaO821H1UAn88Jjw1dHkNeG6lC0Cncc4RH94YngHGsib6W+owkAXxfvF55CpOMyN7TsuxqP5FxuivpYz0dxjU5borMadXcq1lf8wsYwQjyEV+VhJL3gq/Xe46lKPt1WkfiyXMYLgt3z5OXdbCDVTkbzrS5HKMbe8ALPJXZSRcmChOYrDGkTX7KxhTX5L4R9UlyNY5FDN459+OJ/4+mbvvLHJ0QCtaZ6r1f62GR7+KXLCse62VwdRLCDZF6CCGsIQ3zhHvQLLNiePeoU0EsvQEnH/f3HCtnG9lWIvOCp7iQ79ySj2nlFq1rQBM4w1XzoSds9Dnb4skp7Nks/YXcYN2Sq9a0SUtRYgfILqkqpTT9wOfAyB7RNojsu7s6VyohIfJSD6Gz8HZ6aJkpYdUzPUX0PDamMJL4Y6GgJVQwUMhwLGt8HZPIaDxFN2CyFSzu5E0fAZW6zpZodBp0LMTy3MYf/LkUA5Jtr1qjkeLgvW6P92yfAjVqK7uQKqCEg51BEP0fq6V5UacrTFQWmcMd5sgqWpymUrNTD/MmKECUfp1OWHqny+FoaDg/rdi48wUOHIGAFdN/8cF/S5VbzJmFE4zHRv+rxbowh9lpwgAIwoWYaheve9wssDPO3aVwxWDNJMmkXVeQO9Z1FMJM2ZSx2EKBtQWYQOIasbFIkVZbn2jGUEBfvNTrBtHR8X69iFFwZFPlAZkaGz8F7XlBW5FXgnq8eat7Gj5c6KZWJtfAjFOIkD7PbotisTly3/d8Asj7C8wc9sr+XaDu0/hW78V8vo8Mi7JpL1tPxB+zw0YROS1BeR2ZEedwgtNg+25DZsYLKerHtDoHcjrFhgq0Y8B1ril1qPL8HhUwaBaM8ewk597SwhWyCmMdpZQAELh1f+didqRv5PpLcEJwNkd0L+YbV67Vx2dkSTZ1YnOzsIsCz1C0m6NjEnnQf/u/9O32l/BMSljLStQdP3tOGd7Zcdoer8XykKgACzV+lSVMMP8NoQI//KF1i02juTM4THf6OESCIU8YzDyVQuyaKVNIEoNTWB1tkK1Tc27SNU3ToaU/71mcU8LjC7pK02eMiOjrTYC7iCjUbqt+3va/gAxwrqvD06x1VzmdhbMcmUmVzWk4/dhz/FHCRfyWtsDHX2zE4nn8qFUe5P4dMjyXmXQHWiMJwpIU5oyo7HSP5hN/5ehK7qNAgm4D5BhpJq0FbqdSSC+gMaaIhgdbAYABZ5RXcHxdhSpv0K3TIMeDhhA1n4At9kUd7PLdfGUQtoh+gNTEBQJ2fB9n7Nge5nkGM8bsqwBu+xmUxCa7geNE2Y4e7dc4b6AhJjH/niTO8RUNbW0yWuvAeQs4QJYxVyFLyvi9ys1ewA4kJJ/16pZvDf/x/cv5vFCgtjWU+5nJgd8qj9BM1bwccr9vSKejTtOtvf3aifQV4FY1Hno/+8/8cUlVwvCt1FwAiMteu/0NnWfYGRo/Eq/ebjw+Oegsx0Xkw/zv/2hoc6+4hDK07NtE/DbxhGNipB9T++x6J6CLKVNA7IECgf17eRe8aN/gpZ0VHVgtE+wDC89RE9Di7w7YKCmU6Y99kSWwibAkBKI4c5Xyad6XH7gg6RDuhna5xTO6Zx4FYzFs6m20tzUBSIJJlziKPVWRmEMk1ajnlOhPupq09udDbVcOUN0t6yJNVN3MOUo/c4rc61se3JQmphP0vK091s2IBeFsrzvEXteAVXS+PIK8jWva+BP3+7UXRNIVtDMkcBUN+F3mAEstCwDKNOtvje5GAEeJvtWn8RvJ2oeIpsqIe0++x7i4LW/wxtgu38UwgcjmchnsiUvESNJGt3ehgMfBrtzburM6inKrays6Eg1+28gAmlvb108e8It/zM7HxFL04c3aRtNLma2gzQ6OUt05bvkYFhMQ88/HrFtUUA3tFsFc0kXicTqH0bLtibAUgK1njR7IKcLolqNDPAmMHi8JmGNZyEtY5mROokoc50aNzVlq1voiLg2VvJLPHkxxddBrvEaLJ/Emtc29O+9WOR4TSWTavgGJJ+miUvxMoRoIyRcaCZglwva3JTtm9uDN1u7L309QoEw+2eVXxrVSFZzQ0TpNRicsdFiVjlsIHUiDzlKHcBOVB0v9+UeeT/TGQSrMl/lYDhGT4v1eh+np7Myj0Ko8bb+kzYAESH6aDI5/FjX9vYyTnVuCwpNH/O9iWhkW757OELGB6D4gas7AyYVdOkOjOno2nyo7wiGnAMSQ/6KowQLkHCt318kpNNarGqJy4kVWPbW7k3wTdkrW4WeZ+VDNzZlSEnOZ5Atl93V1ld6wuxpki6Nr0u6lhkf/zmF8Gl522YeAuaA5sFVeTAs4PKKDDX9Kyrlzxzc8+fR2pKWwHDIjS2MWHJpjDaUTgNMvy+3GfNw8IB2Cc4+f+ubmQb78kA5Wnwt8oi1NWKk1wXB7ZsZP6XP2cmWmstD0omRmB85xEoiPhgITdBEgD88PKfJ3voGCZ9pNc56EjeIrkdCcMza2ixv/8dDDnsjUYmTDR6OAdjQMylRy/c7DzWEDPB7on3S95dpzewlRId0BsKZ5l3jT7IMLW/27BY7kcA9YPMBQCmLe+B+YTikhgefDCmKymv9rF18UXloDpS4Gl43fMPpsb6fxS2l6m3P1kZnRpWay8hBwlsxFu5jXxViwZocb2gBWGNIf0LVW4jaaigBdurjCRjNvuAmmoct13AEZnR2wbbFmpMTP0xVlKHkNA9nD/ntBMq5kJUNhU4b0B8HQz+ICW9skbWX/eVVzF38CZ4Jl36brSFxgCsYEmFZvOraDuqR0bJtr+a3lNrjKme/ZMR1RncWa0q0gOpATteC+2IEIx7/HCsHon+SwbFO/z+l6XMO25nMZ6NJ2DYpa1c/BgS2p7zUH7fP1hX19jjEW8RxUQo4yq+TXbkk7YKEQvOSXeOKqUcFPS4+eUYHiAHakChAWxWrAAsmxwYrm+e2hnYAzCbDql79HK0XGO2BYALZDDUb/zUR2SvJnmX+63UV5p/A8oavsCf2UIhzDIRL3fHfKV9h0Z0/KAY/pakeOkR+g/rDK1sKRwGFPgLjaRJ5mJf5dpHwiGvlh9pv20nKV9dRRc6lMxH5kpsBjXXZG7C9/qElaa3novWSNmO8+SmFDW0lVjLHOnXcAFxixs/48eF8QjCAXHSgfnGXM9MDzuWQ3l2YOlOYngGn/NyP1wNx552Oiqt5nYKAAvQnTJQab9PzyJYG3Wb1LVfBcFX2FXIcEIcewjbH2KC9gwt5uek83qQx6hZAl4KAPb7c/Xl71S0O7J15PhCq4Jl6KY6c5JSdgfL42RDJS+GUXh7nqFxODSfe/JrF4Kqoe8j/xdmkMsG3xJRuZ2kIeamfLVnSodd7qifnWEFuSDjvfSx0eBkoRAml5EI/okOIvQNQiRAEFbgrhYrWJwGOdZyV8ZFz8eMwCrz/B0mjrewikri5OTf6bnW72zi+me0U4LZVn8I5RL0msSlFmUGwjCdPaX7E3L+j3/8PjuKjdbXef3PH+8qnXvv8sUXrMbAHXzBahhCxFUfq6yPiUiRngKfqUaaN6d77jQ8wZpDy+HQtuUHjjnGbdmTurIFa14rYyEIAqKALbXatm5N15LbywWdyOKc2OyGA01lwDhHwyLaScyKMrM9x6ITFQZRv7gWsZ2jBvkqG7SFcLkGUHsNDMkQfkSCI3SPru7dUIAQsQLWNUyFojew2kQT5yiJmxWO9Il1Nl21QAnpwu7IhgLLhwaHA4NrILQoi1tMOYoriAhO386OLJmJAhL8GNvAdj1cDoi+i79CkaUlnoXja+vm1GoAodBmky16FIqgO25/9puDkTZHl7b88Au6Lr9p4Oy6febW/Hfl8kktgOMp++vtV87dnw1n8/VPR87TjB49LwSv4I7w1Up/Jgr7nU7m26LHoRHzie8allbLECkpcTC5e0ToI4TI+BaTuPwWpHHvGgT/MtwfheFz7hFLkUVP9jcCVrBZCG5gttyZx+qVX4Hmyu1uTTUlQBVAdqBBVEIk89fcKhWpRU4XFco3iK3eJa4ZGrK5IFqlSd+H7HnTW4vqx2XRmgcQA7Z7vwSMBe/fSRFsISKN6Gw6C2/lE+caw9yEmShvpdBp4FJjCd5kbbbNxl5GAykD/nWgtXnR9kA50dicA3ZN3z5dkPaXTiRbi25qjXtUgvTk407ho/UN/KDjF2O0AJWGVxCkP6bZFKJ/uQkYVWf/yaXFoeiKgdbPnkbFe9U+mR2GAN4ILoZ6eDd2Sc0146Q2l/2P0kRAaJ6AMUKryYihuE3ucXp275iOU1EMOAlWGkxRRgFbw611czeWVsslNfRfequSyIt+KgGEz9D+wk0QjPYgH2s6f37Q8EvaspHdx9JOWM+RJKsWucUTPg4Q/3ldtJAauIspsayZheXsRcHXiaP6GuKe03Cd4SHNpzUFo4ODTqWM/MlDJ3rLqRkQKm34P5Yjsd3kcduV/1Zthm05xPyWAIz8EbRZjwq5cnTXq4ss24rmgyQLKqugQc6o/AYgMhv9Oj37dVhUAlxBCJz9NlENwmf12SL6db6cRvzSNwy2yldwDnHmOqXx/oJpTRC9XjxKhP1DQUc9kQ03L/ZtQhNHgUCJm7tpQB9MQA51kh3rvbV05xIStjFqhRynBQQzEtopEARAdZSsm1BLWjbQ7MprRZEzBGfMlKSJVer5ud35my+IGzdzjiiMq5AyxGPxYLxLvtkHK9cF8X3xM9gFIQGxALiuTniJAINbhp42XcDstRPIJ6+kKjC52F1AbhAtYqh7XeLP+vePBkWFbqCPR1V7bu9EvAKWffOBMdmplkpZX6BDDDkW6lEOG/RHqMOyCQF5fXERPcMivxof9C+5he2C39/2sHwVUb2h+ZmvGQIVnUrk9T67ikyFPfrLuw9Yta6WumOb3UhLMs6x84+jVhs9t95WdJvPKwFS8PItwDXwmBPbIbHLbQIB78lMPZOcIyAoEnReeu/0F2+w9bMAdvXTBCEY9lzJwRnGV87SAmRXC8/ePpI25suzDdNNi7FEknFzm6bxp5q0bOkqVMNZjDemihzacny5Nl0ZmRarK5CwHIMHB0BSmYiSBVwhVIabB0u9ndiDyw9sMhczzRhuRTBpE+QQvUcvbx0M0Gag967DeGfulJTlJ6JomMe2ATC0fWRzP3QYxekOfrg+G2wtiAdPbvQdyYks9k9AUeoVJ4hMoHRS6Eg4lrSi9DXSOEuLjS4zgcgtlqzGbed6WrRYmuuiIFnmxR9V1aurhOHr9utBAU/fO2uUcTNRVf06tmlCIlkh+qF6iUa31nDDKwbOiMHc98gVyTS5TRlsw+ljceirHkWz7s3memUymqtQysamNnj8q1kaUFKS/JRt8JzyGrxFMw8rbtRClcnMZht8knD8CBheF0VxNy8n3JVCV6nSP+ZqJhMdlrRpafU4GDx7ZUw1OwG7lWESfk0ghoHDR3o2FxDysq3OVvZ4YAgDkKvetz25XDKLxteEjAjey6OCe5wLweUusthxvbnqmJrCu02tseX5VlNz//D1z4Y+iLhwl+DdPooy86DkM0eksyfMZBotVKTd1uIWAnFYaI8EAGDJdoPKxn1v4LmowUmWMnYpVVCxoGc1WWAPZbLCMCYd0YHEOP9nV2ui5OfKd3PHSBnKIzJIyFtBemBr7yYYlULW3CvEyjSQtMK/6BATHbKObd5EoXiwdt5R5lW6SfpngM/mzcxlO9Q3P+uxHhfs4Dexb+uqTBWzLXN68YVyez3EsLiaPVPXVcJHSiuIMYXodpwkIhmjoDzVnhQEdmvZH1ORxA7/aJjrNzAZXeXfnVSbeYFPgytp0Bjf71IDnBam3ajSoQ14G9n/gTIO6tep9U7crewt+cAY2+o5hrouo4wEAz/cBySvduq9BPEtUFAEq7mozV26MsBQRfkJvGB1YiGWzGseOZTPbPS4RNcteTfpaDrWGvCKxW9iqrppLM5tEuflJRwZbseDFdwSA2pIOaSiDsVoHMEcv08Ib1qwbx34+olnrd1sJhJCnGvZW2U7RqKGVT+2QqauiE9cRwp32m1rwLbPmocDoIY7lUzMEF/DRtttP38IPCzXbQbya8g2TmyZQjZgAkslZtqPLaKPp9uSOuq1lTH1h4c7xuHIgyKRbc984vfolwas4UtW3aPdYtTBvhfsvHCXpbGR4sc5XJ2Vi9QvFrLYGrEzADhpUBHdCNlIOeNUYc490gPLoc6TPx1RMR+KVum/VVhOOPC3evu4QSBNxqo9dTlF5XSZaez3J+H76xc4sgMZNdGLuCZVbFk6vM/h/t93yDX7gCju7FIhhdatIYvIBLWXaOuEZXsBaqGysCF4AWDwrykyHS4VktWnXVq84krJEJJ+2v1+NfbZMKXo+iA6fnz18mqf6lXO8WCsPIxulnT/JyeBwjAvc4+mqhglVTvZ9Et0OKBCzmgg4kmZfd0AC7OY8vj3FEFSOIYk29I0Cx3gTNMBCeK9xD60NKzGRC1e/hzMX/N9NY6hhqmWsNNGmmS4b1rnSYH5J1XgIC8l/HNzJjZWl71QqCoDifwhXb61T7b302vYgUUmUjdNN80BcyXfkTYvBOar7RqFxzpIXk+MVseJGrlU1ZdsHVqg3AQ8zX9p0dQoZ+F3i+H+FqyZzFdj5WHiVmM/z+Jpqg1WUi9VXMLkYvpwxcpqxMHnec7wUyAZvAzDg6pehoTR54R/+DC5v+vE58fX4O4HvIjZxMhZxKi0mBnYO9Tcjr/XX2LMhOoGuImCqFk4vRQLap619odgQRu2U0M6mz4TGsTVfdCb2SDrMTnPuvqFHOnCbZ7kMi2GTw1VL9AD9wTJCcNoUgfHjjUFTGBkKjjOgF/eQsm2ZgYF7CLCKMjq0iNvZLjN4A+r7chQYFf+YomGXlybVQNbUNP5qgCVj8xCIMnakh0sPUz77PGeYMXQyDwskpf0gGFBSrRn27oBsTZ4r/o3BxptaG8tJSxDtXbFRSgsQT6iloE/8A6Hlkl64NFN1HdyL78YjaxUaA+gCIhIEdc2Qhu+TMRCDCDm0vePPPc4TPvM0cGWp9dWMAVG79CRf3yuXhs3xP1Smj67zW58HOskwB7Q9jO09I9msmLCrbDSIBxkNMZO9rhfUSkmvY39OwpQA0YPxU+xg+Fbay84ltOnDbqC2xG4NXvjF/ss/X7v0UvXMCvkav+ruph2XlwUBrA31JpshQWj9dS83yNW0SAna4UFGvYa/YAIKYix/TxiAs1FcVHo2Yq+2DXbdJ/jvjSTGxbaHgQqN9SuaciZAzX13C43QvZipHA8hFwfc7KKBPIsOoQ4LPUivF85RsvYAs/Da3urJm5cDQnbfdF6R7Cyz2vA6aINI8Gy0VXlqrxazL8FnWvgVTT330qSfwddA0i+07Rz+fUcMZJiWT4zbKCxMtcQnwJgHTvGJJCWYUqQLkmtiffPxJApxRIEO0mQ+Oo0NyISfxsDpqvMKxDdwvUddTxZPrzZrUMJgEnziPt7XpiY6EszbTn3CYex7k9lvLWg4Jf4ke7rYc8wUDETGvUYi2vzshqinl6knCqhaU71+okRLRy6tVxu5AMEK1tTeOhCUlr1736i6zZaWU0q9Ae8B8aiakS5xm2/XhUaoAAGEJG+cWY6EDtfj1v23GrWYhr3wBtlTf7pc0XE6DAcPRD2ILtbXH+FSqXgId+FJygCbGBricIz4uVWLXGVoUszaAyjQShcCq9tJHnWs3wZuwtoJ8II4qF+JnHO8+25cRBMUtP52loOGZ/Uw60EYbyk+mKMf/2Ba8YOyB2NGa+QezJbmy+eugiIm99l+lTqmByNw7ZZlAiz/1TyEeRCPx1MFVOJsga38Pl8bLALRJQsXmaJEKODYDiQQEFSozOX5J0zUn6gjOsHKyT1baxEav4jFmewp0h2Vqn6TwpoziA8htFLb/fsV6XS6lK0j75afr52WpwlEpXyYFycIb5+6Uh/Ufoc/wGZZKLpXxOVnXCvxDLleeVVI6CQMs3PTUZXSp/Ub9VYjgEqUhwuIA+JRClAJ/GxTlxsTkq8eKFAshC//SAePsORuK5E7jaKdLU/pBrBxD+7E8A/PrqvPENc4VDun4vUYJLX0kJdKt1ldoiVqWRdUfGC2DaGwVUcUe5lRJXszo8Nht3yjwQanm2BXdwqn2ISiUtNCRsTLZgdgB8HMFweIXUo8zo6H5GIA0GYNDAKftUvv6LDDltoapH/Iy4LyYF40xyxffqxDUPKjpr6SuRYDR4rSUCLXl7blTUQTFBMOcf/9/RDMXUsXAXDuRnxrUBaTLLbqfB8Xrb+d9l872WtFsJcnyAwVlaKBNZX8UMOPMBPt2RpNvnlWHGEKKNnXpGweCi3nMUAd43SiWNdTa4Yv2sHljbp10BLt9QpOm4+9WT145M/WlSoF+31jZ4zVloE0wcqhdwYeJg3pVMe3Gvnr6ZMnDc8QByxeOMpvplfnL+Wuk3wPj16NlGTUcETFV4tVt5N4Zd8UV4HX1gBpqiFlXoBO2ska7py9zkQCM2UPuGX6ldBZ/YeiJKgW0GDQSGw68fa/ZFKKyCbltDZO4Fgy6GxA3WHMsoS816p5SiYbCyMAAfqCgUhpenL41YP5gwmP2tor46D5mtKZipDrPC4AzWjMjdZLXdnoyTuokeDJAzGWw2BvdxpXhyJT8zk3vWrXb8/fT20l4b3ln2lv9BFLfVnnd9BwYt89DzEHHcHXBO99hgt9gyMZd4zBXX2G5EEtPZ9Mq4A7xw+UeU/RUgVQ0GQ3zNvxPe9Dk/oaBx3cZDHL80BtsTQOdVI3FCOiDeFAT26rysjuATE4lDO1fKCUVVq7d1B/YRTc6BTuz80ec7qQq5e8eWaTxnbg2trtKaGVZ9F2L5/AruMHHT6ZZ+04C0bcNGbBfj/7TwY/RX03ZYjUuqUesGn2Ws2sKizvDwyyFjt1M5qVDHkx3zw/ogAuNJiBXGDMtJecIXVKR0r8CHB6X5kLXuS15XCsBZyaJsU12bLDM7zA8vCwRIIjblpIqHUKecetZdzF6A0nO7BaRJhY1VDRYzQM3R3lvyN3gK7LnBKauG8F+QtnLWPn73BCADeaOkdKtZljM+8bFpiXejktCF4XDuBx+7TLzxEdqdeumBHl7UMVgTvFNHfGb7EIbweysx/iXVH+6rU3wvPS2wmrUTyii7NylvgI5Sb1l5zVDZFTuzree45V6Nr9wnrVrkyMbZsyb5FgF1foBA2/M9JZ0I3NcytQkP8hqzjVHhhqtPZAW9eQixAM2S3U28r5zcyIpTpEfPX+Kl6kOqUllv5FviNqKIivQUjDpmeRGTZmaz6PShqFqfHTerw50IbjGY+E1fy0cJ99jhj5kanwKicUuEhGS/QiFnDkIkJNt1ERmf1qTjGtIX06jp1jwTGwwot0YCgT1LsmLm2R2bQhaaakCXR/JzE/tdpe7fXAZKWdlnPVHTy2agCylw0qgEwDRzw1Qd6iPHgi7lGazMrk5Ru1pxbXW9GloPulWXqbESZgeIYIm9hsAl9woJZz4ecns3Juqp7jfl7lK6SSklvSk7+kXGVq4/N11i1iPduJaGjze7dUgg5bdUPbCwQktOIkmAZIgulBT3w1+vijR0kuf+p+Qa+gwGYMBmwATd6WkPebaEuzA4Pb48FRApaedKUCxnsZ1VKpPts0GEYp3f1yYu52i0gvvtC4OlNolWLJIz7oyB+mpXH8qvGIHqnpSRsNjvQojdIL0V+GFABM4kWUHvqGEBfFZXgLys3J9bju3LaJM/2tijAmabIbG653KqHB0ca5a2eTiIPOgIznrZ3T15r2mBhhQJwDjMUsBX4tLVbLjCq802ecgveLVt5CrKtv9V77PXuL47gYNWku1L5tU23hDgVAUd/uws4YecvU6s+TzD4lXgeiKd5ns1f8a2ePpSF2Kvxe/wwT23F8FX6b4UweCLbpCFdmPRKAVwqcYPxOlfVnC5eS6HNA4ibtmCS9oL2CfwTwUbeKIkeeC3ONPNuIA2cp63str/sZwh1fuTVz2xr5p6VuIriMKlCLNFZNJQZ0rhtLeNXdMY46awsTCZFiEGFV3R00ULGMXYuIGwZBoO9osOemU/X5sfhiRz/EhoygOjPTKeo+QgI98x/lMNvaiFopr3Gse0Cj4+LZaqWNw6qp/+qnhhoSxeBsKW95HKfPF47v0q0fvlJUnlz99X95qHfSkIJBSRJJb3iFYK9dFE32ESInaJQqrsgOvQGATPbfF4/FwPTaQ/dVdS1Ghi27JmQiDxYCoNprP2UbppHdpaUSOJhZv3GJLZUAalwrCrNhlQZz4OdKxaFHO5pDAUHSIcowa+DOlO9vZ1TvFfh4WCjqFXzhOJJpRONjARu76DJ/H+XoBkMmXXs9j4M+TDdCjYHgtw7Ad/385eJAIu5uPxGHte/LKnf4NZSTf+JVeYo4u9saYB+hSLLqCkZMruHK/X8NgyXaDJV/uz4vRbpdYSyAwy6khMC9N5+i3ghw5ETiLBa5WU7ZbfYw0gtGj4qHzG4+mmU91g6ghSSMhkMAiovdM62jhpDIbOfffmWMCDdUWRVnRMI7v4IFJ1JnqXnUjSnNZ0/Leh+wbeeMwqxTD7DgP1gFioz4cEuNJzUgqxsOLmEF4WPvYzy4l0j6MUq7aZ1C4VnF56wP59K8KuAGSdQ7AGgnPkFs2Z+cnCEj3q/4mrVpjDgDWlt+FEXZZ4JXKHAxmK3+aB6BvLuK7oKvOQaHR8BB/YmZMNOzay1AWiAgSMOEWH5VZ1ynGliP+WWzG1vjj46C0EGoBgEox3o2+VefMcrlJLKIriugFHty9xmB4HutCoHsqIBQLbFVTlO5M9ClI0MczatajFcXp67yEKPKoW9xxsY8xWNU5E+tr/gAvGhMjWI5tv62c3HGVSNiSHQqPQwze1RYjS5Bv273T9DICpuENXTAKHtytqpU2eYZDbtBGop7VCx8YzhkVOS4SiJ1ZAtv2MooD+coIQxsoqC1/nywGs6ZFrE03D1JwYNBC74vhjsxrgV2OJ5ScR7lJbQ9aP81W7Sn7wH3nu6nFW7OsAosMEFqGgdJXjxPxEt+jRQbuvvNpRnUInY9fW511wGQi5n0m7uhithD3H8MAkC31nZuo8Zn/GDhtfNiUPcD2LfJgq+XKuz+sKXKwmqjmZxjQTPm4Sqp5v+E+3pXfv+3s9SYtwB/AyuiIgoH/Zn+nn6KbSZ9nzXLnqRsdPO7QXC8LFqHi5LsCQgFCA56hfmKi6OgQ8mKnOfuDWsYu5XQ9ij9TThDIw34G/D10dWSaPFVvXGSkyWIlu1e7ba6PDTZdXklYf3SFek1YRUqtsmGOJK03wf9hzwGTtuox/YGNNyoMrmRjxXh0HhkKgjD5bfzh1PkjnOOY37FDZCtny6IKA60TPhfGJa+roS244CMs96ZeAbFiS4Dk5LQ0LxFirHzvUvuwtSg/z+TmizAgATQInBKP2I/ujUiVZkvp3XphCbbw9xNMJlB3c14voIpIR7grpFkH10ZUoMyLfwMiNaXTbKufjX0RzMtMlKx6UksnX7pLhnl7SoRcRiuS8BPIlkQzBCfJC5FQsPgnK1kZTuBSS75fqzhKuYjOLjYiOzSawJGmGhPz4gywTsPGRgqzIXArNrGuZXNiPy/coQYTkLioCiT7a9LNJelVFh8yuYqXRl+UmYh4tRCpMocWkHsy5gWL5R/7pBisPRCfl+asFsE4Uln6mug9GYuNwO6y2gU4GeCw7SJnerv2FXdhe5rRN3TDRc7FtRPleV3+7rtZvCskryLIDnd+d65QRp3ohaW2+1vlgWs+MQJNjsWbLxrbdOvrWt/7oAaNFFGXT2JptLPzRNMEtby4wD1382ImIhLd2jEMLwqrWxi43LsvfcmjpnBG9ESVnEiTUWOA+XFvvaGC8b4QY9NjoL2pdlwb2QQ4XjINeDuly4rrYnZwgz0/s2wWYN9nQaKNNj47ozZGxGXxEX9J1umRKbhtxZL8kT63aelzC3nd2N1KFaJsqZHZHLHmQe1pu+lZqNuvhgOvOptW6Vv2Lyv8BdJjXtlQFBINo1TFyYFNRVl4kEWCaENVOCQ6+wfgpyHXA3lj87V4xCHfkLxuWd4gXlohw9G58W/HlYxrv0g2gOMR1QHEpFnGOahSsq1Cr2mR8iGdXFJW0B6disE1Qa1QdaPzerOrMUR6yct+RXP8i5I6ZTz2farzLq18h21DEKz+BrFoHqBiM55oiH5BSZlu2rqK0/9u/V4sDDjKVgRiSPVbF9ptFdxU7/8cYB1/pTpyqx1X2uxe4xhSubjcpA3RzSTGlUax/Al+540+8mGqu714orpTsBs+DwTcgJnmDgt/mpaD7ipcMCgFoPi56Cr1OnXttBoabhAQjOw+uYbURJWV4oRqEnmGJEy3Y0B9rTUgNLV6SVMEJeE53cEjnM90KGDsLzDfwZfWw+w9NbpzWGkDEDcYXPvKSodSjRryIN4oiD/11Y755PrTB7MvSB/pngVYpkOi77uZSjb7pvmN7dT9emvv+9dmWzk8uToFdkxCvvuzObOVM+JLstjCQVH21BGDlPu5zjgI2bO025gsI1j3CiJET0HUptuYEQELLu2TwUwfR/qCuwxcaw0h3aIlevuRSStRmCDTGkCwc/l2+4G1N8mYL6i4hO9Tx4JKgBEqiuQyxNstdStyTpmq2ZQV+dJJQuirrWywVUQQ4I2Rk0rKIL3aACyuZzPdrQilGXGqOJxcBk5EirQ//Penf8wPBqzev/yxxN3cJ7V0FHTOopXIAr7xgmhumqPk7bRey69VgGJHZcoSnvQgNsR3gl26wucUK2Zs31wx6/QQN/r/WjAF/iudBLKqjysymhwMN8BTrIjlykofQjZpX/wwIqhq9PQ6dcI2LeLxTI9BzDgfTTQpCAkVRLSR5x1qKNPbPHWzBK/ZnkdZK4xXxJ4V99BoUVBKiGUZ2NcCBt17TUPnV8iJyyX/XDz1/GoFGqivtAXuUlCf/YS75CK3S4ppyXSjeVmYqDM1UEh20FV7sl/6IFs/0CAhO4ZTPOLxZKcwR4kRq+JP75bC1q/EIV7yoSp+Vi3n8sou/5wn6MPW0L3IQzHvbnfj3vZt3z6db8KnI0u73Aal0UgyQeQ4TSMcpkKu9xfBDi1hXDLy2LdJhvT6yOwSZ+ijwJdx2H0z6Y6aPFQ8NhtiDT83+rRnAaXFBdE68bwkBzniMR4p/HdRFkw7m4KN3Smd0a7Iyi7eqizBGJtDBOnz477XO7ByHND+N/DEbLTiwMf8TxSCqmQfw6Ihpo4PGsccB2qTRfSdarTAlth/sRbVLYYNE5Cbo0vVky4PUa+fmTH6JayYRTiMcEpt4XssnfHeOXpRiQIi1Osh+pS2bPZsGsIgfirE9+8YXq9naF0bnBIs2c5FtnJTNodDoLW8bUrZj2aPGuiy2Bz+cyupDRZ03cNRD5IxvDZXc5FsOOpXR+Lv8YDX1SqGRZhqmJf3sUEKMxdPVd+rTI0/QaQVgOc0AGnfq44yLiHC1fVWs0eM32MZMqnRk2IzQ6JklM/X9W/8YUhZAgvIb3eLEPH4T70bDLZ1Nd6yO8K2Q2Iv5IAJedA1Aa8T8sxkcu/ooHTieftMzL+WKWtlWdRu2OPhNMwy7S5xMmAQ2poDBQvjzKcfO/5aZ9gaf2/kvGkldHyPxeBF/ElbZ+a1DdSNJ0deIR3LO4zLEr850+mltFrIj5PEpY7ZT8689iH9UtQHDHol5l5bsh65sxcF+8LjqGj86XC9LSTlx5EXst84faqc34WjUes4PgZ8JIwMbV5VCLLEwNkBwgGX4GENSiNjzUYe4lr65Y1G8fIn0hGDn2dzrRlztTCXZZHlHB9OV82TutN2R+Y9/iwqko1lBBP4ZJSUtJYfTYFW9Bi8LBNCy0CbsdwJOfcYn2tjbERsubQjtmmV8tu85zlo31OhUycNt4KTBO/RE09hi1p4ND3O6Tm7u1DZU6VfVYHv2HYeLUOlBURUdtJLQsQL2qCU9g9+eoKxC4lh7BzbcljycENA8+5Z4F8ZJLQ0QNzpvdgH2g4QolhIvsPaVhhkziSoBXP/VlGEfz0+EyCRaxC6efDZ62lkhKQSjkkySZ8udEJXJeDv1LnMUuW/W00sz61MYp4ZK9eyY7tJBVgfSwjUbjvvaf+/OlPBc3WubvzaG5BLqilsC/F0y6sjBD/ZpfNbxVyKmpi8iqCxmNHeTHylrXcU8WZtTAXYhVh/YZYrGl1aD0xsP5h08TyebeTseByScCub51y3hgwt6sNuEhVkeBAk3sor74sirkCEuZIG7Tb5n5867NlkXkQdPeiWct6ibFbOvUqippvav4uqGqPV3nFOvtQ2kiWMWa8Qj1p5UPIi8XwLF9XdTIGQXw3fQPrcqEiekli++oLUe6wmvxeakLolrVbaORF75b/98I99VBkWO3QNWsHJUo8BFJNvJAH91yoKwDyESgthMmBLrpVi9S51QNjQruXZAmFVUWZw+sEl0ALb4RMmMRVM9G3dr/YBBbhAFFZhosbTSfRY+4TWQYnQgmjI5c7GDkmRssja9VbGPc1Yk5knwRCoq3mDuQOX+289ptOGuQ1gB3A29o9HtUinyGP/g0eXMn6Ev6br3VjDkKWpae67DxoDXXaNUHVI+AjsbX6kCrhIn7V4DeoOTJK3vA5E9wz+uwwAppDDQNOXyfaaUZTiXSL534XHan9bVNRW706nb3/Pra8BC7kv1ho+4V+/9O34OpTseVtB2B28XjhVQuden5R8Ln9USTGSwQAwSNzvBedNGnq0jzqbcaXL04H65tZir75dTarMSyMJYARYOSQ+lcjO8yrB1QF5IrU40DnUNValPJvGusRJU4qhJypPAhAR4hF934CsWV1yYNKiKLdGUpHILZNTawcCxeX5nkdknJTqmQzneg8hxFCw1E+9HJRGRD95LwAMb7IfaFt8j41G15LX8yDx5AsX5Bp5pMKpujFkd0HXsmsAjcjTYv3eqhpYS6luPTQ2PkVH68aFchrUA88ycHf1CzZ76BQXf3UMU5aSJEYtwRL7emqI5sBytDcI8LvyfcQlAUFHOMa2/Wxk1kdi3foYTnfSVA+TmdfcBG14l+bvD1UOFAfP+M3yshyTdKbgF4nzZMsW2KKbEAN88yYNxF6Bxfi9pgdml9NUnsXZ77ZcAArgjFEQ7Tkz7J14XBG+ozj1Xd730JFZ/t2U+gY6HC/1YFgRnxtWhciSI/uPl66gGc2TjHUVX4/hkx7cL5g7eCrDHn3H8RLLS8CfXj9IzBONJDms8usIxnXrlCX4x+TA2eAoZ8QqrSq23u1cKRyqF2rb+6rN2ybU4QF7npkooW51Sg32wZeJ9RbLvhOO/bVNzNK2PVJXyrbrBDzFtUJ1uAKyR2jxVnychUyz6VPGZs2iIltmxSuBZ9IxvVXxF0YRcHAAYzaAkHZAa187+hPLqQiVvGvG1cmq+vbh22ePktN5SBunTabsMfSzrQbHz0ZnpXZy+llvB28IdrsdrVbosPcY4mQ03d+wvaS1zl+c0Cvgqoz3TytwoSHxch/ZolV5oduUQbOOxRl/xhIX3u9FOXjPW/LMh5j4pfVH3iHsMivvg6oCHQTjxNhksJUNr8Coeyko2AIeX5lYQQh6ubfwi8Af356oDogqXlXe9hzOQ/tszCNbaOZIL6Py6l5QoS4MktrwBY+qBOHPG2zHm/TsOfrZf+6QafKk7rBkxYY2DplEw55voRMiI1Ywm86QpHWyR1q9AXjwWAujCanpf1x0Pcnf0Qo5H1QyCDWnNsB9ygr3zUaztDste2ljsfSraiU/FgJ/zILDRZrtR4XjBm+KS2G/MaGI4mW8ggNNHnNcQ3LcpQvuXfJOln8a8MU8Y1WTlMdGD1NQgb8I/nHc2m931sWy3eL6GoDWhSpCf0S9GX44wqDGcBfDC8a6hYU2MJEcB0n5QOAgs5qK0y/6oh+8tO8TiiYHo1r8VCGTau/YX6jZ5u2JmG2GqEoF863WTbivIvPkAKmvmxkX3y50wGZ1bSnV9lrvYW8LOQIbm73Q6sqnw7/42dCc5W1SwChXeo25zhYy8pTd8qYvuCpPIAf/czm+yFZBPlOJ3nOifo668KthRsydKXRvP0Xv40ENk6KTFDs+OAnSgZFr1u8yGTmGtkL4aIlm6BWXwfRKjc7v2A1UKiyy4vAy/Je8B98Vi9TmUzCrewE/rLu4Xyt3yBI4U7qdxcyVYyksRN8kq/cCBWJ9h1vP7jveHL0gb91QZnvwY360O+UWHoY7vw5/kDQhwqgekF96gb2XTr/iJP6/rugqO+u8waCTonwcstd9Mhu2XieIY/wLo5pDgSx53xBZOgKoT/lnaub8+0RcIQ93ytRxwAWfByQyzXKjCSQXCy6liofG5RuerI8idbgxN3aucQlMNQXaBD1+Ph52igrrn8WMBnIGwkHo3IlW0ji+q9s61VmxaiY/1CjOSFIN6c75z9qogIKeudCg/ZyfqgYDmUt5pIDGzreaoi2C2wjnFQ7NK151XBfgPudzYFG2KgessUCuppzzZgFJMNFzCDZeWJp4ZxmRTZJk/RL39dOI/npiKflO6JdVCm0UcAumtJIHlAdV3yAvdw9z4w2n7u5DMbf2syu2g6anzq4PbGsdUKj960LS7kVkwyF5nMHSK2keqh7uRfNR330Zl0kbqncvKdGzae+yo+wp4ASf8gs1oL21Nznj0NWmHNmJ+UWlj9bwmgzW6u8abF0mUf0hylOf5kDcZg4ld507aVrEPPDfbVJAHKbDqjA3SiQCFimN41NEuhAhum1f97l9pVPLemkhXIR6ZQM+oVZ2+zJ5ZHGRoq5Uflt4Rmqq7SP1crlQjzpwmaD+CTs0ahMXlynSy3T5mVQKitAb+TSkw9cUudORnbNM5ogFfdZ/+p9UT6skFLEeY1MEpQOK8hvyddh/NIoLi9jpY+FlNTHqxhuuqHsiivN8o8PRPdHxaKnUoC+mdwNMgkO9T/HiHC2q9tnk2JuhUIQE2ukcr+zpMSyZ37ORukS38CmwTRUbsmfiBqCDIKPQzBxA6zOasE1EG/BAiCoCaXMTyd5IqcCKZl8vmyTa8LweLfqg1/hK3ai2b5n5Sr8VRzK53ZPyApY0Rrf6+JnJT1gkMT0t5k5LvVyKTR0RGcz7cRuTuc3DUsfmX9MougRhsLMlBIDU11RmuwnN4NN0ZrL3bmY5g53S6SCjbkmS2NR+PyNA1ZhA5oyXSJN7NTIh4vAnw6qwZBeVu9gFFwJ/x+yqlt86atlvUROltVvLf8vIOLf1R5PQQwblQV3PXASv/RFsscbW/Zk8h48XNcNlSBDxoaD61osdtOQfWmEPQrWtN+GUJoxaycE9zuuPOWHK/42Mizs8c4Thej2HLuBlf2S7ccyt7IHcL44+LckQghbLNB7Z59rKUJOHdB1GbnvYKDhkRc6z5/34q/5J56JME9K8EJ/o9PSyl3w8qhAS4go6sI0TG1NmyWNjVKPuJrRSdIHOQ3eRpw0bwz4ow87VYs3W3igGArns0D5ezySKYAuHDXieSBBVQJxgabdFUBOTKfObAFv2lwrksMM7h2+lLwZJFjaWJzBkdrwIZoXYEZxlz/FXiSgzYg+GlgKzoAE4Y2/du2+5vFLT++foT0zaDgh/3S9jDXkXWMI5mCAuCbwAjio0BefwvMIKKrnzsrotYzHFfsLrdFyGPA1fPdlQ1CB10GtkXHym9raKM39RaU6eF0ShtT/8q5/0EUMcy1DWIlCp/JHDznD2qC5cHLetzimHY3MNIEoBzjqe4PkGDmQ6zP/Fz9JJvcH64pNMrdpD4WQcM7Ldomp9rTUGlgtgw9Rv4hGlBtwsDAUbAodKuWLbUADbHAIuLZIr5+VurSepe/NASBqCNJFh4fZGhmdNGePmLbJYWKrLXCOYWHwq7hf22GdSyaBZ/gJ6cg4Vxf6ZxAmmBuxoWU85F8rbWfi+T632MfcbnoX6nbXlCRpHYoLAwEuhrQNkKcCxp8Fg88ojlalrs45Ae5KlqhLcAEodJOg1IFOz9/rptZSCsuqAgU0O0vfteqUXEaO3bGHclOQC3PVVIS2RP2sXnbdsDKYxWLBU52wz/fZbPbllc4blMfAKJ8nm+9UHoFeNGWKrYzhTbY0bnasl4bG1wG8CU3jDVvaHMUkf9q+cX8YhQyMp3JG3csq9uCPOlCAC+d4f6DK7pts4reBVmzrTPwBfiv/nCyDPkCOTZLZfEdbY/uCmZOMGp1lFmcbs9JH5zJbIy+GlgFS86COt+KBsbY6MKogXPe6nkDIbrJJGBdcJA71eTgNCuhDE1kW8skVRXMRTry1KZNJvc1OWuIxyUtSGFUdqYEPMg72m3uYQm1cK2wjL4OK4klBXgFsG1j6uUvczmCxb8oowuzKbOdhNGeU1UBM0cN36n32GXN7gRGXM6/77XBh2XQWGd+Ro5I+gv+jVEwDoPzWG3Sxc/B3ivXBcoW8ea6o0ZQWYNgRJiYD8ZOzth0VJnjSyB2Xfj6zxANtpJ2ShiAnNXTH07ZqA0ITuqQpCuqQmuEacoFat0te0SB/hrsAf76rYJFnOgJTmLUW+VniQlYNcpIGaAml6whK9oG/3icLZKjgeAbLi4M3nDE4xgRSLQH0tTsr8ubuJncgmuVqW9T9vC9Ex/FKnIDIGjJuZptkgFsl07HJ4Bxwa5eYQdQ9pxSb9c6xt+K/8/DwbPlRJeX0rIaYSCEaR/kt0PxiBQn8e/GM++/akEi2Ag6qh9sPH2FbI8yGduHjCxbqJq6Fs5vyyLHt3MusEiETynjJuIs2mpJyh9bx7wZBAHpzbICf69zEXfKciZ0UoXwKxMy/jCEeT/X9F5XJQ6LW/WzfcYCQM9x0QxSffdULzNEgEnW5wS89RJMk15Mx8BvBxPF47wH+hNqGUC4Eh+NzWns/9UAAu1pxSe7LIJQoCUqBqWcCqpL4NeTbWKlTKO0bLtXpJ/UL1DXw3d6j1pUOSO/jx0g3VG06ufeMv9b5CdPdaw6G5fj+9FKfRhAdhYwkcXgX4ZyZwCvNxwg2Y10IF37cunHPk7z++4SJrgekmq6ozXavFvkvLfDAbs2ojCPkebWTpBEbxmttSDQ05bV4grIobapReJ6UFKE+ATZnv0IjCSHXO5XLAmAWrCabXuLehhOvIImFlMPdGQ++0N5RT3T8lDM4bVlTwP146a50gvubGDjE7D92YuxziaP/ZeIXVzhywuRRRFg1RPG+MkK1BdAsJAimmUcr1CwDHzyTMc8wH1u3zuxQcpLSB8XSDV9yeo6VNEue2vwKeYK8vsg28IDGvoxKo8Ehf5IdyVVnWmYfj3ttIWLPzUA5ChwAVApH8QFjCAhH/IXw65lL2Ixoq6QMpBbmRfzEvvUfm8pkc0qnU+oIC/wZdM/KGNtmV2k7UQWAEfBhWOSobR8LY6WTb/Y8SXjk2mR7pC3o7lKdUnS8ZFSp4PDdmhvh3GLWV6+83lkPepXcDTwg8P+4qCJaV7IqISlyr8SLgHM4PigeVsOpPtZg/6Z/8Ww/oRMEmo5Fvv79rEuBC40bdmvtybZ2oHC0ooLJ2jTJupXLsh+BwHOEn1HFyHkdH+XkhGn3VJOpxgfZ5azqDoWUXtTJQk0FurpK2QzVXtH9cOJicNP51y6Gl3I7w3mWhcFszji4j0naQMi5WK5uuJ+me/B3FbqF8UB8NpvYqLa89N4ffGFL08rHRDdY67aLm22+ho1TjhN1u9609uJ1Dzo4WmqpUMDV2V04e9A64W4jx9UNHmCb50MNRUpS3jyjZgQrXLicgWg7/oxAgk65winCArt4dcPpPtREpJEJumLMP2Vj5QunT/SNGwP+4d5xBp0YLierUMFYHg8oMZZ1dNdGYO0zzES+Y+djgsw7JkISFGCwwr3xbhR562umYJ1SKynJgAxBeq0+k/H2+bNVDh56LgHPFUKH90znqzvr1OEGKICkN7f+nipt/YX0CcXn79fHRXgbwyqkIXkhBBXNcvNGtdH98DZ6d+9ntV1jue/mGWmSbDWtZE+he/5CzCY4LFsYaxbDDwMeGa76PkRB4k0eHaMCoUt46lpMjKRgQFlda6iZIxTyuT6AtD6URH2F/vOvaWCnb43753yQ5M8Cd5WPZLE3SQ0VY1JU6ZNmb5ahrBw2QetjA+cNyEFXggIKt0FiktMBUJdJoAAqJUchMfhXkYQg3g6EuRiSA2AEI/jsTrGX2fgAIeC+GiFfgz09nJeQ6K0qhhQw/G7JbdyonIgitVS1DYCtcHTh2qbZWzv+J4Ol/q3rnLhAsnNcl/am+i51nwGeconEiPsUQ2JWQQa+bA+0XZPibPJPaJ9XkVp4M71VSjYaw/RvPIwYUYB7TltcUA8/viqXwyKcuPJbYpSWpyjIy41BPL5nvKyrjFb8LQEQKpppnukM+AQ17/mKZpC1ADvogcIWeEsbnnf39t/qXjE9DTBjY/27uWot8nbzDwKKe6K//LjNclrI4gavidPokTFYxRtU6lVkwkfb/qb+5EHMwBx2A5AQH/Vx2YIhUSpa1mqjNsb9gt0rFgUdTW0GvJgLFVs45WtH++WLoTIM5Se9imLQ5C7tjcKfmxxLK7k4wz6Xe1GujBInPMkb44mm3/CMJPgZaFa/kMXvQcAEeg4p7OHb6bqHvWMR6EMMPA48yMmEgZm2mdhTwef+T6BUTHEvAcDfo+jmiV3xfbwnYibluZrTGVnhtT9rGAIxquqPBszx6c2gURzbxXUY7r10F5dlBtvES00pPZ78Ywlv6qHKvp2ZDbj3jH13BrZVZT9HcrkN2iOMbe+HdkfIqXMMYRVYc+85LT2BA3CTPs6n+xKJK4ZYzSDRsQeeVZXHiLF5yxPPEvbtCHIHH3KUisFgMuYPFZKjZh7Ip90SE9zlwUCdO6MT9SO8Olguc9w5vvLLAxmW1irkqevk0wTVcgA9QHTCtelGoINpF7GMl7Qx6hjrJ66sQgk3BU1qayq7MmEkvSDnz4Rsepsr/ODltKlzis0yzOS0jRq5y1eCrCIUl6eKd5kzJ5UPVm2ukHB0p/7ajhucXW6xtFqM8rFksZRsWb2HynBWynoAn91+uRa6AWwn+XbPEJsVrwQAync55svnPX7iS4xAYo8riyTVYTyjzCjAQnkacVSmxy8sScmDD8StX7Gq8kuaTUxBslKqhrrU1TF6KxfctigwMf7vrrBJuXb1z5jA+z/hsB6/qdm0mHqj1BBrbFRNYspMhhJT25oDkQr3bL9rWtM+1a5JJw/EmvSxWmGRMnl3puk+xd1PiyrqyDcxMJ7S0d28stEQrP7VTPOxoIyIuZJ95jAZ8pfknNnCTsN1rrIwzPnhXUD14kikEwgzKlb8qO28uqIKPAm2yEuBQQieh7ItL9tcHHf3v4t+FGdW/mohvC6vc8xiOPudvbmtisK/+xhdgGxTusBId8QQZ+p2QlHC3beV9IhgGVeJq0Ox7HESNydHrBRMcYQ9tkXXJd0jYyo7qyCfZpF+joJXKXsCy8rSmK9cSSjMawrBSEvWM/upqo5B4IaC9xZ9aIZBPSUFDfLCrbBQfeA0J8XyEWiSjCCAE+VKPpF4OfPHYGNg641TyLw1ufb/iDhyocgKAiEjdo7oenKifsFtSeXsCM8+ASu60DLeW3MkH5TXUeJqCwwYgHeE3i91oQdLcUrNkIZQzQEVZzYihcGemD6xs18n67XXk7nwb5e5VZA1QKMBye5lcF+Tt0dEjshBepXtXXHIcUfnNs/L89GgXl4WA4ko+nJBIH+ScVffo5dyirUdBmO9iDNs1pOfHQu6kMn+lSdvks8M6lsMIsmSInLTYetlrV+nHH6uojRyFPI5lJY0Yfhl8IzHmnJdbR4xTumN1ZR3stVY3mdF8TE18F+WEtQ2chtVaLVZlWbBqaIVm3Ew1SQTFVniA30eqAjOJfTxrVRjsVkG92FmNzW8CAlS8D9FfnKqTKm3iuhsU9LdBumfnLLfeHRqMRU0BY4saJApdkcZXuFwjHWQ1SCgwi3HoA1OrNdg8fNA/6KMpiYABOX48YoXRSOyyAGDsF2ffAft8P8010mcFDbeuYImlQhyVRQDYphF3VrZ7pQI2qPb0ndOuw3RCQW6gx36dEixaoT3GQ6uu2egcbqMll5JDMxx44zlbfMVFtLb0RWhbMAFSV+8ehYEvTBYIN1lZEKe1bSVp50l5MixwqIbCGmN10ZfTAsWLJqKDvBeRVIuz12lq9UewT/LO2Oy9VkD7/0pAw9r2VQt0dJDoxPs1cg3IDGTTE5tvz/xNf5DhYBSn3L8GC8CbPnz0cH6KLLaVI1DBR3DM5eNYhSeqRGvGdXpAHTsrZXoW9RSTZc1Rytfh6Vy9VVTiTlZlX2NBK3jJtbmyd9wlpaNFMX2tgv9fnxnDH2FVZ9kzR+nMvRvV3xxCzH6VWBLX3zbBEfjta/PR//IRqzHcrIdr5dDoI1EK6gTTK1EIhWvoLV0mrYJ3+WlqZhaAFExIfljVEkO0uCn/ZFE18AEE5UQQ3Xmg8FArrLYzlVF08d0FEK3rgwLz1H6Kocl8rDHB2Xroc8UiK+ukm31yCnK2THkADV2A7XOcj4eiZlyQA3M3Cl0Y6Qj7BBy5N+UoaDUClszeoWtwKIBuU8EcZf5elaCA9xs1ItAKUn+l4fNXZ7nFEdm5AhwPfU2k9BN0LVkJ/IChvn1rvLTX7pitTivCWg3jf7+qcDeY+7mHDvQAACQf9fUenRMS/qGpNm6EyqTn05UehA/6FRJrKXnRDHAMmlJ5lVcJ0uInoamD8oUlFH3tC2V4Bi2fHNRhZoUMTEvUyQZQ8Prv9H2QZCfr/QHlv1AFxUldIll9xJF2oIdczqgIludEHtyUMG9j6uUFlX8HpKsosl+Sa6WjKOjhn1OrBhZC8Ze2TR38/308K23BhbkEtE/JpSZLFb9ISJl37k3tPMEFtvE25YyS0JpsvLDDbRvaoYsQlEhccPI+G64DNmkkPDfn/pPy6LIRc7LXMASPmy8Ji8fECT6gNgwjrdzcrmZZ4NlaZzNmD3UpN1/NZFrU7NF0c3oP2bLQsN6KwBR5rVf4hl1Mv51DQ1Smi6u2cds1ESd95rEvzid/owJfve4gnzQUrZ7FDOP5Tup+pYDcZD3V6ZXR1Q5uv8wsJiql6IjZj+lBCgfm4jouWjwc/sr8f6yVQ0b0ZrpDNbZabxX/VDcd1GTTbMuixaUgmAZbu/DmmpJ8H0Z3jSPf3B8v5mkRkjk96D72rnpSVbIb3Hcn/PD2hpa5MGyZQHFvOuvrWrNxwjnVglr2uCb0Lo58b135jr4qsMsWj0udnn+q22+SX8ys5zxOsWElK6MJTzEKdUdvd4TEoSwYsRTQQwJAa/BKnK3MUX6HPlbplbVn3t7FwF9Liw5KRp8+roaZdXbfXCxUb7dCrV+QiS2o8zaM1KezuJ9WbGcOMQpWpkDSEptDVJW3Iqu+C+QlCIZMc0u5sVZX889wHYU/tF17VKLFa1874X5aoFSSwZHlUjOldV1ycvWSzSaro9K6UhjbZrS3wWgNPEWyKnMFpEQ7RsyfW+X1hGjpytj03XiPIrtK+QAbVlK4acszkF6Z4gbAeuGtB/dzn8rHRdl8CGUVeDC7gLZ5m7e4Hqw9Ges4ChVKA/+zqJx5mzZfrHvaKyoONkRLXXaYDueY3v3OJ6J+dqpHg+0HoLfJSx9deFxYxRq0Cyrbs51wwV79uNFu2IKVIYXCOG1eqp1rIkRb4MbeGPQa+B/yjcLjAaPom1TTVDB1goC/xK9jztlopXN5787mnTJfTRP2Awp0VBWlGJEd9CsWcz/QiMGidED7STKbFCO7WtpuoiDa+et0cYFkQz68VxEep3+8ggousCtzhG7VNWV8sDtXt2uxClgRgV+t1kHIYaMB/Z5JSAoWLItSDGPL+XlKw3FrI5r0Rtiui04QPMFhFBW35wYCCXx0PNTkNOonzNxdJJSF1YDFKk716SJxR/JDIkI1ABmlSrDBvg0uvSBeI9oBNBPWkHk60PoUTDKm+XVP0zBLueB6Ocu1kgXGGc1bq1Snx25j8W+eHkc7bKrZc23YTUlCFsp5g7J5ry85h5OquewcryK5sIoD26SS2TkTKR/Wh6/hNm1BF0L2VC/cid9LDhYpef3hmd9yQsO3jfyU5hb7yaABpfaYX+phdH/SJM4sPgNUGfpzVE55G48H0R5hHmgAqSv9H132OAnrKa0gkckP4TPCZWdrXDbHkMefKPrKls+vmsfz/y8r4Rg0mVFYhIl6BTCKCTy4yTGEhY9iTUeJr38MVQ6hX+35n4SMRrGdRl5IQNfafXoZkW8bmC5yOaZikV+C0vCCncMExkGAB6c41pGLk4Yr9D8y4NX2OEcSzV/8koJrhpO2sZP1A1wIPZhw//ZBZHcLHmDlKbAKUmd/8DIFlmAi1xj+r9gA077o62nzjOCyMDR6SFAHCqJ0px80NwfyW5uYE77qGAtl+/5OtBfg/c49VF13zEYZ+R5wWyzaBgNU21pk5AH5KelzQCptfH2mYOi5wmj/idzLfrdPqF5k/md+93HLDV0KErgPQq6f742IVRbhLvUUXKhQIJiNYrgJhQlID5SJuhLpEJkm9d6+QEDY96wyml8Ibmorq0ovkEPE9lJ4ealmxJ55t4UZ1XXAIvu6LdbKQZ5A7CYOkDUL3Ik5UCwuSnkNaytB4l1YfeLzILCrVJrHmzUaut9Xa/ZXuQ47Ar7BUA8iTZmZCaKAcF7OiW4QLf3M7ACgwABqlFm6MZEbJgDRlmYYU9U4fOCrBINMXN7eSvgPfC8yep8+TUUjSIYBZ7/DYE/zJmkHv2AWDoqVgesmAUWKXvJgZACdECkYwt9itgL/L6erhnt9dHtPYR9DDh6s1ry93rq34SpKKAAFUeWlmn57pzXUwPno1bou7FNKU9KNmvzIfSU20NDso+Tlz9CkIUXEAG6eWbBmoBwWMmSYO48jroNPWsi4lwBnYamAqG222Ie/cMJWPV0X9HPPXShCFJbPajS3zOzmS+Q1JjNrQ7EQHwoYx9IpT54cVZRVaTCNIWWRIQNTEvJZ9M0pY5QK1BL4OOVhBziSDUWxJ+z+tW65aQHF8i9RNb/U3x/IVLrL07zVegTtb6A5mjhI6TLK82g0r/mHKkn75A9uYDNTQfXGXXxntnL0B7wHv5Hn9Ma4Crk7elOeiEs1dlGw9mIXRW64OHVPdWUWToWpi8N7RJjSj0aNAKHcbe9wCgMOqnkL0PDtt28UyzoK7x0djl4tg4Er4KaBod354psInaXpzHNkoZJq4EeZvNMwXhfB5TvaZajtWJjSrY0xIdoNWohrqaewpNnajKu2PbGTm11n904fQBJ4rXjTdzI7ebTfKJ9B1OihvQC2wMR5/XWtUvWcnd8v2IFzTyLp5Uqogk8bpFpxejC7uMDA1e/ei7picDV1cI3ujbTf0YsJyvTK3OIqsLNYTReYwkaSApJohevna+KRz0ACkwEVWJgT9K7Ycc0tM3YoPoJWAgHC9gCtiOi9bd+pda0HuSkI55M2X7XMlIyKISRpn2bF6PnrcFTlAfGyHL1Ch6KEEcOgXGVZIs1MGrUcMWbuuKMor2VPR7a1PH0zO6qrKyi2AY2JzA2xMTiE1avUvijcrrSGOmy9kReoVWym8SfLaMKMMMWkzf1taccQvFb+lG/JLckqZ/HkVX6NTEFemgAlD1hKSjIgVh9g21TBiwBxjb3w7shI2ImffySB4BPq+5grixQIINOAKxY1p2wdp0eERxJnbODRX1Hb5FiZ0HopyympeFfgWULRtPpRqcxwLpgjIVAXxuqWtjJfxO+4TGUVB7YVXy64fMx9smDQ0iSk12WkCgbtILecBrJ2Yl+fujAFfCoszP1W0nnSFLCzcOK2pKVrRussB4s4M2Mqn9fXPGV9DXEU52BoAxakvy1rkFnHZtMAeunMfRSAkQgBcPalrW5VNv9N/1IxRVJ2wddd9UEVbAKa6aM/VWhrVjIHbps2xGwaYehFzHZr+tDoIGPjW7fbNtdk8flDQ/6jUDJx3Q7IQFOJ68VANfU1Nv3CyORUKEnPitVNC8UalqyMl9SAo3C9CF9HWhV7mVhpCPZfgM7GsVfzQFJr8uPMezBcxPIQWAmYUr/TX/cy6JvveZsmSXFkEkePFmQUX1WDGTyTAgK5zGkJDZYXHmvixPqwTErUuMykdCZpjnzsTpZ/1pEfMo6PmJzWhJ0XstMhLwfy5euAtNx6iI/wd2rz28qVhO/ORvK9H5ji9FwGpvuI0/KUCgBHrxcBQ0M4iWkmDb+V854kRTeOJiObF6USApGqFnSkC0iN+k53bcnJpT1zb3RdjNW6Q1u0wAfsP96As+xwgoDMQrfCOIEgZ5kh4DGa9MwQ14hMClr8jCbGTFWyfOryb1Bgd/09MCl55LOJZ1o0Oo2OK6iqEancf1E5lrzIB14LmWcAmvFKNx0ZCL9guetCPF3uH9wK+PLiz8X59KLv15KcsZAWGMzdC1UohdZ9oDNuINJQMep6swifPPBupOtbLWqor8fFl2/U0VkyiOhbXpZSgt1ODbIxIAgQ6YX7oR6SIoBjMf/IlJJKt/KvYk5zoGdQ2/NK0gPCEFZzD/waJHZBywoid/2s1h6pm0/aaX2ruMJawraTfaEw85mve7AUhsu8H2wBXrBdHk2cmdkE1k31o/kd5fz/gY9Q1XJ1G1HdFLJGEDQKbRlskoAbHBdcDDMDbp16pqF/ExkzWJrWA1LWFn58gkibV92hdy/ihZgAXP+6E/WQnDD1jlTsh6Rtf8W7srFC2O612Z2pnIwqpyOaKkY5pbZEODcdJXyCyDNFUU55OD6TzkE7UV1vldLGdUdtzit4/9IfKQ2azp43VV2EGn8Q1kMliqsrJjtqgsq+cRK+/18hxrUbN+5NbEC+ALqIr6yII7XQuUFSH+tzcBYI/bMV8RtftJRQkIzdunBrFKzyA9/lKcXtqO1KGTM9V4BV9rQwxejOPgcQfbYciJMhzRxalTL6qs4mORc3RGDH4Goz8qCoFGPzdbWf5nmvejp3gSVy814MxHZdWCIQcoorTBcjIdP9P/bpoH2wjadV66fSsAhsDOG9FXoBo5/cngiOCPXbSEfL/wjVraAAMyOvLOTc9hzHlGGZsUncTL4wcyJ8/r0Q1VSlHwkK17zeaDKSZ91cHT5fUn96OCkuI5RJE77g17gRlV3hllgbqmvaHMInwiyxTmjpURO1J/yaojm2gW8gyC32nuCRa8H5bNjz56Kvt361F8T17UifgdaNljMZhk+hjSW868PzP7NKRdVu0ueZMGaateVqzeqN/osxtqbLlhLOfW0yhHiTpzYlEllUkVm7R6mm6nHvBxSNOQ69z1RLqKAuqOknia9fbOv+6hJT6odvcMm7j28XvghuYe5uyPHvMtU3v0+0hARHquwLX2rObhmKUn4Z6TIK8+C5cJ9THfc/RwRjt9VOfnjKvg1ynfMS/lPk6My7L5azb7lMMEUnI9wogzFPACJLtm/e6KGFaGFpIfzl+OJgdFEhhjPP0BBu3qPQptJSaw3jr6aRWQhcAwczQCZpWfqNMQhys27mIniy/9MV2aaGzCGBaGhDBOeGHat1xh6Kvf1dO16NwYWrnAKM5/akDZcPSw5h+ByxaOz8lNqahqMZQOf9PcCYUi8tEVbggLdhCjTwp31bGMFoO3WReX59KrUxDV2jVZ1rdjInLyz4XYyIUjpwqFb0SayuJtov64pGN3e6AcKE3Y4cxiu2CVqP2Y8rIP5bNFc+QoFL4h5Ju4gHGoEP3ZAfGoNiV4y+F0TtqzjB7DJHfzL6vvUyz8LYg3sMzQuu85SAeoNDIztQIYeRSfra2gUtVoaTn9zkBlQJP1AVxLZ3C7ubN7XDBzSBr3XLpLgcsDaXelvpLAO7AeGIAwUxLmq23CGR3HNFMhqjr1K+tmiTs6aensxV68wnilyDUgMRJqnVexM8hfSaCK7tQ6aa2lszfL+XeQabLO0ZFQSrqW5+rXgKjbjxR17bYl+CpnCAg88hczZIHFS/qVScwJsmiToUKZ62fcJSb0on9pNTd5KPODnfd5lnsjEo5IgWSYU9uEXv7ezUTcUwRlhjfvP+fa3EjjezaF6IJoWrXyOiXLCRaAUxxneNPvnYwXox0u5sL+vwyEWnIQMqkczM53ImANRTXMIwTlro1NKCAJdLwNRg8aigLTz3fUZQ2uY1jeDo0d5UwMP3s1QxO2q0TAHrOR5PBkiBJ+nr/a0VM8CQyVS0R5FdvSgZ/qDb+LA/1MgaTEr+h9OuODsnbpu4qKw689ycM3/Co4bUmDKYleYKjmu3Q0xKUBRSxPRHUYUENwhljr9d1IX7WkD9CLzbSsGJkDZ4MT2FtjFwgCx6q9zDH2YI/ev0LzaCoVWPDqsg0XHdM/jxhy5pFtncoN+QLK/gzmDtlUSEMLSzHCdwu2pk3vMIzArXn6HP2e5t2BKqFKha2QcBf7oCNU90ZKikk1qjTuwC4fQRiCD4H+DcBmKT7Nhpnkwe6wL1Rs9c0yN12y++wEPDgStyJeszyv0UPz+9yPQ9IagmblzFtwsu4PfabyuEk66RljCyiIXwIcE1Y7BonyV6a3DSqTIGKt9ZoYeBD7KA/OXh3BQUrtn3KFo5Ioyxvbo0CpnF3Lt1R+LIpBg6HVRIyIBpZQcFRIErR0LBXW90QODWA+aEfQvN2brRz4ZcgPVxsbEzjNSlWkAnlAMk0S1scpD/exvRYboOyQXuFdRSqLKByj//Zdgh3jtU5jJR1WxgbTYvmA/vPchtu6cv+TbtHTzrfT9r754KdD/dvAe0TXzG6BL7oL2nzWpakUlt2SnuP9JmYYvdIf60467IZ7PTokxAyH8HyxwI7ErhBkYtalTA+dNr9H+6t3M1NraxRlEWPyXwvEv8R1+pFBz4+hkBVaTtxg5g+GBuimc09PbNN60KsbkghPeEddu3+VX5NGD4Xqh4H24kCj8lYn8suepC1FACsjUgKyXhFhDCVM5E01tjRYmL/9XO+3fFwBBYz+hg4G/+OB/styJeaDLwxUBnF2Uu0zDGp3iwOqQeAxv8Jv0EmVUXz43ZeyTB6+8eQOQomPrkw9cH2f6J3VV/fo25UZuKj9mzrTpYQKRrgjS8RD7gFAkZMTCt3acmY2o+RPZURrOcH/WmNzDyNM2YTfBQMcAboZUulQss8j7JjXQ4ovWvkdGpe2TKZbdAPSIOpnHnSIkIpW3ipUAuQWJzKBk/cLwCV0nPDZO2NZU0d2/ZBv5xYE0GabS4WOdGuq4D9Y/zmACyAQD5eQAAAHP/C/pW8Pv9JzCVCG/zSaE+nV55fKpLrEgpgKTFQRJ+dec/pUZbllwEmxOMJxIEI00ZC+zfN/bbfXPJ/6otr/W7JW3NKMAAFnpA6SeUIKHIEMY8LPyqh+Djlovk1/KIVhTc0GhiszWFKo8CFVRbmrmrbI7r0h5K/LmTQ/xIMWqHn2nNr+z+39F8WwSIHaNcDoQsZdEt5wLL2+S5ys3Jtx6zws8akFrKPCKncFPeLcS/EmBry1rgaFgoQdG0w+OCD+xWzlcQUSGIxnXPRy1VISzx13v9fIC2LqmA4QDSXfzAw+NUAk6NeAaEtxrYMjNiN/PCCKtDysc516i1+PUvC5niQRX6eIFX9Is8/VPJjLUTAqqbkJGQI5Xc9p+xBQ1YWnhCNZShd3tWiI+0IpvlTBmwETexuWPe92kqZxJOTGsokknHu8OcT+BF8NyHHcIqT/ds3ofvFS9Mkhu5oR/XFpRSfUX/tw9iCxmtCRqTuiVcyLf0aGAEZ+0jUKU1Vc41uYxgsEJZuy6DSI5GVfV/+bgj5TP8WhxZe2rfrwXiUMGpm1lnOlgSePRtbxIJmjS/Rthqumhij8cyRMBPvWxm+xWXeEQv8g0iDu6IgDsOQxcgFrUSVk9U9u4UPmeJ5XCceOKHNaPm9e+K6VBAOaj2XT6aa+k/CiYGOQwUzTstVJ9SriRmYkkNTqsmMD2PSriGfUoqlpbD6htIMaSNjB2Rn/wguwIP1azSmhtZOdsxy9WKA/8lWpjTHoob2CdZqy0RS0KqHCY2uLOaHR1oY6oB/PyPllC4YYnISmxuh/RMVhx2MEjxtgr85ipxfempSic+NYOQ4t9MrRl7Vnh8aEGxeIPZazFFzTzODHSAnVh8VLeFUGB+pYQhqakPQBVmWSUHQYO6gmPchLoy/FW3ayLInIUCFU9/7TCk5mwwh1248oXT2fmnkuEBR6HSygxugiOQYaL2Ywe8mYDch0gTguJvgFSI/CQl2c0DooSfBZtJg+loUlfOd4qMsnwxL6Z0tcAvXYEXi43ZCd0eoZh3wRppXo4uOzg/G+g5XwJrbopKrEAlcSehUnzJEPp4vIbljvQQ7Uf3a/stqo0rBCYKX+Dp/6vhOfJTddSwKoazyy9RnOrLiIqSeuZUk8KBn/8XLke45xRNABMzMt8DN9TOTdgqYVTFH6HEG2JNpkJUF/FHuXuNMGWjUMv9EL7BAIBcrr+vo3jCYTXUXMVq9PgniQC130CmqffHNMPB1zqC+PQ6Jpxowaz2+efIQf9LalWxBVTcTantBsM+N8I4gRK1l+p49wnMPd6N82AlftkjSyuz3n7OpdE8p7uYEKK63FsogxU5Du2C7Mw2xbkFqB3L9tuNP4w7jSBNkO84WQ2TFtyjKwuoN/67o1JYsyB/ik72TRZ5WLi/i/qFoWaMnz5M5zms4apsRdyTBuRCXfKp63Qt2chsA3MEmihDJibxOq1MYRRET2kniMaUBJNXlUo1Ls10MWI910VeyHe+ZtGql9lAVcjDlDMKHEhnUI/huwYHw+m1WGDBnQcI9R21QwDqYMIAvUragXwPod6w+ilPgWAe8kYlZfbTYom27mAPSuc9aw6lLstJBT2H7B1wyQlkO72TcDc1/fPUZvkijutLsrSYMW8z9AMb2GtpEb5IR/14l+REDzYfWkFLgMZUOFGdwfUL3bvLHZiLCiQ1Y6AczmUXFKrVT3UXmAOcv+tepcW5wbU+P95OvRqej/2lKHcOx6Rp9y8tWBOmMmUEM9ngxYM2ixW8YCvSnt4q5rV0ZXTR/8gyx0JPtu9RCwWeLrAYR6i/ZQaFK/qVsssiMGU9lZxCDbjO9DC+56iaObBd6Hcz1EZ8fxfm8KFBmYXDyGR7mDlt0hbxe3+jfaN1x1nsUm77XSh2PjzHeYoU7VnBbP7+Tyd868nUoDzq6uE53gf9ipf/L5Rno6705Zg8U2il8BcLLrBUOTf6v+KFcKz5TZCvPl7fq2XmCSzNwrkfSH+lIBNCY+gfCUs93d7LTZsJUIynSyQwEoHWnASAJluh0jkKs97t44i3NjcAj/1Q3fdp6UaUN5fxmCXDXKPG7KbTyyVmobfu9UQG/wXJLNtptBmCPnjAhY9DCzr8AhUaxwdwmqZhX5r01CwBT71T1ZtBLbL4ZwtizHn4AFVAsNT1jFREgAACY7GMenQGRestp/vpBm3n1tbE4urnLSEwm7W0hxv6TGHNIbiJkGJcIvWoMlUE7QaNQQkkNSDmRiOaURNe7IdLS5QyXfYfRuYuDLq4eXYFEOCx+ASLPgES/rPz1xsS1BJryVdvUrwU5soWiHe09AxF19es9xNUJCrF62FG7P4p7KHO3LHZVF9j6Wj/9QvUxORUGtqGr7RYcg4qg6qz5bv5NN4b4balhEzP2DH+QYqv0nstqE8ve3w59RTNuZ68dirEL57Lixr2Gk8Y2Hhti4UOfceeYEa9Vf9YpI1Sp/qXQBpi98mT26YI+aUnA5KaSojm/j/Jux1PMTIJwsG5VC9gUlp8UIE4jocYvdox8K8dfTByZHUC4WyfxvHq7pA07oFx/NsCr3QjNxlFO4oUrgi92xweTKRsjZFR3WLZKSMdnj9fTx7wnPn3LpiQ1BKcy4xxsAhqVWtD2nEH7mVqrjofdHPZtHCcYlQLOxW2ZfwyqLu7SrdilmT4d+cfUZlALyfVUQGQ1PawigTnCaD2Kp/0ZfSufQ2L3+gw6ktiatib9EoLPbn6ZGFp21sRyRIrKxbcwpq10uE7zFi2ZGZA58Vw86F3BHCA2BfRZlQ5cyuzrZRIccQSoKxlkjgFZ41dFEHrzb3+5MA5vmOs5vuLBi57iD6m8UjdfItCiQ4V2BY7Jk5hORkDjQmEhX9dwwYutCbZqKPrn+OcbCQG/b99PE7d/hbD0Ssg4jzKLFOcwoI4V4jx0cf6fY6SNOTQ3CdTPDYKbilrnM9UsSIk7rXi4Zpz9ODLma0gZepF1rncJQfyoEaQcYBD5qDynUvBf2+qO1XkUx3sWT076WMmT0IU8BExAjr5h2ILuMy8kfBkezGIjVLH9J0IjjwnBy8bgoWsIEBpPOOqDWNWn9Y+c6KbQHNSEZLalwGrWwdCExYwpySNSpDDGTPCrlJCqx+bKdLebZsxM1ANo7egExTrpe+bB6vPQE9q2PNMSq4hAY61EiqpMxnt4UlaGA9qOIH0Y9Lqhilz4b4eV7PoS/DdRhN56brUbzZMN3NnYp3jBkoRWa9+nDo3WUNy5QvBucZlmj+Hvmqh1sTYZ+FbSv0SpDMixsbs5HE2Q9nDnutXSd3zsEAPjaYA+Oogh0Hz7Tgo2Mb3uHGqIw93FPn/fSTUdRAt0Jrq9168RgKsQ471LXLI4/DkcKlGiwTApqNxe2SbpEBItWNRCV+/zKJVKME+15egjs+AymvJYObKLCyWfPkJGF7vKYMah7mKVXe6Rt411pwVGFm0HWzTSELgGK97f6qV3q5cMvb2NS+n9MCkxtqS1mChBi3IKPcXoGkoTEZBRmZJOMhp++RUeEDOGN6kiCQmcNoC/QdgHES0uE7YAlSQH8X37i8Yi4H7SLftNyn52KpoVaI+FxLiIzULmdHGlCnl68QmI8lJGHhtDyr5y900O3CUN8YiDWtDHiaUpiFCcMQRMbm4GciFjVifnjfff7jT9EFrU37Dl7UEGVay2gEHIkwE9yPWshrwiTcxkBj+KCTjqqUAl/HR7q8bzFo+eZgcrOO5E+QPNipevvEyULU7ixrlXAZyKxWec41hsWW6Vwns5oyztm+Akc29g0Qvg20e9yhXMORHCRXUwRRqJo0XFJxLArmAOfIcU80KfGkF9N65GXK9+Eonz+yUW0CtK/D/K6EVJ5DKWWtFAfMlle5MNFLUKE2EeW8axTbyLu2Lm0sGNtRfmVxufK+6beg8f04aCxLScL/tPwBcKVKs2HTEqOVTVD5rBOp/Bd+dQW5cLSh32yh/PdnLC62GrLVPrUth8ICeE6eeelj+rEn0tfCaHMWhoxcx+pKwNDgfQt0kMMw51awONYFLO6RZKqbDwzI4oy7ZVzkq1BAOxhAqQDY4/oHlKnm5ES1mG71xjkMaOaUJ72d2ZRY7i8Oy//uFlBbRdgPwRtmQyvzhchxk17XqumBK9jDwTZN/85WMQJ86B8b2iv9h+anxeENTQ8Raai6MaSXqAoKqOgYAgJIu79Ap8IZxfkfRkvmWXchnNPTB0Zxb8fofibVxnUttDYFEjOqMzMOmg9/xtsFiNrMLOhlb+BSnKJWggyEnXeaKe/2Nj8347Oxrto4qhKQW+HC7XPtajJ4iy1h0FjUqHmu6ENJweiL/AEjrS7K+/7PPmOjTWTSEbECRwKHKb64crMvYNTJzNEXW/JfbtZfuasSRmZDc4ANfeuA1i+/RiY1AY9YT/YL6tZM1X6neyM8BOT5+ZBWCAKY25j3pAAAKTET3ZhVL0wpW7dgMkJesAcDZZoR0rvpgOBHkep7x5j3KwRpqlTGLCLS2GwU2sNNlETRltWB1Zt/Wr54kCx4ESGkl+yz7QR23cqdk9ggYkXqyBQreqPZzngTdQmT4mFwY/u1FrVipjo3YA5HAFUQ2sKRW4io3r6YUFt89rB8viNk5snnARoZ+ayzsk41UFqpdTRKPu1tGIhvMHVz3EhQjCSqKM8/4X5oCBHKHF/OdAR8aF2xWiQ+oGTaoLdItICh+ECE4DaDTuQptTe/HZQQ0S/AYHw32BPI3opL17W7ZgfbH6fZB8DM0mpXYSMfZ/Scw5+llw9LQf9QZgq+0u2Jr0/rGQ0qQNMFRR49tVy3istxchmFEYxWo1ra4j5clOwoy3tDj02yognsqQOQkWRRHxs4keSMAtNjz3r+1npDeTtoMN74Pg3EiFoIH7zQaUai+z5sDC8mTTc2HacFWgJEIs0FF4hJkwbsVbADyjjLbLdsvIZauU0VFg/i5WPSjqpNaX6ZobAYpoLAemJj26oPHWRFXxbga30sX3bugSRxchXej/sC/ud6YWwnEWQuU+T6B8B/7R0YiM9pacmdLFVh4fcwXHkWdxqe+yoajtcphq88a2rB2pBNagI9glrQIcz4havl3W4KtI00vVXMNhPiwPTRT9SD5wuUQUlArMUP7/DeDstVZqsjc2v4g0rO2YSUWXVfVcK/jIPldLq7aXIlB+XGx5i0b4pzEn0/TTjDoH0FlEU4HHmSh/6jq29V7c0+AvxJPGELeU9RsZueUpWwMBSPf0NdyNAHV0sZQiUBU/hl/qZVre16MYwmPrp5q2qIng4cTt/0pGvnsEWxJ5hVElsrhnm4ruk7ViXl4x5szXMSZGc2nmCGjreMHCowoDXiJWgYO8qvIAzR9mpEgYzMkCYbQScCdpghmX40ymhOdERPSKLO0d3W5JSCWoVR7ncnclJInlfddDcpIkuocglMFvE+jnJiuX31xJ03vFauXb6ARHqvDBpUl0nPx9oIbybkUh+cjqXNd77IHP16p2mY7EhtVJSf30K9DkvDDsmL8dzn2ywcrSswIvouXCRWdjjja2BPBalrbRqstyfr2paNtngT4Qxi2eJMHhBwUem3ZumWmQZsrQSbPVfJXVAVUFI03kKDgQ4oghxxvs4kXhlrSFYd+BxJt792fGn1SPX43SKSl/Fk5Rfqsl7dr7hgsG5G+/Q2PChg+70quSNSZvsMVb9OTp86KGqO/BA0m426wqFkpj1FlgIl4bBKT3tMdTMj8yPNmgMDEtQYFpuFJBOpJW8iUXdV+dp47VzuSV9WS+GzB5e4aOyGk7FlakCfuHfUu5+k7g+5uQWnRcDB5v2JLm7UYvT9MH9epq21YpEDm2qbWQavXfQx68Ea+eIPeNsvQAAnbxJC+iY0wy/EB2ohHNKoKscDUdGIUkhffn6XcFIq8UPapQJj5PZhc47IbDrlNms4DvwVG0m8DlG4x2ltjJ9qEoFGii4Oce23YMZJxhQwRWfAS1dunJiVAQKcw5OUAIzJzPngrimcHAR5Q8N3iL2V4XnU0aURqwcjuNOZm9PJgK2OVasoPRJWK3Cu5eBzAM++f7FxIX8ni9n/c2JmjPJr9OmcxqWanXKwojWK0ns3+4vobozaOET3B4glTnYx3r2xaGkKKhSWZaWtSGh9dv2IKIfQIWxj/qXQR9FvCM3TjtT/g9CRC6w7Fn8isZGMGbrDsGg0CiswXLVhPAkN7IjDqh6Ao7ncg58TyqaZ1UWL1zKVHP57zlCyFngpV0WVGV0u21BGRrM5yUVwvREoXy3KccOuBzQVLXCjxnAThXfxyGfINo1fe6FiRLXwVI/qrk3dAnma/xh+UY8AIm2Pwz7NpDqou94raiaFK0uv5MxdD6SbM+YWX3urkpmtMFqr0Q1L0rGe2Sgg7QjDPRDwxwXKplFFh+JiWvokLDDVL0IpQ0GTu75OZg3yqWJB6mhjHy7a18htQONz5l+A97i7e4dW0gxuxPQiM8ZgTNGS03Hoje1mHKDl5Doh2lELVAit/y/sKaGmFsITIoGFuh2c1M9J+6JflP+jcr84H5Ud0k5cnuv0gAksrjyGie/5oX+prUhZZco7zoEjPSNrwgd/qsfTnXEoCqA8PYJ30giQo+LPCGuNKTnGWGIYH612d2MoVfCUV1HsnbW3olxIgwRq/+Oxy1fCKaPl3zGijZvD0DIkv4THnPjhOmurdIsxwGDEgKm5M4PwpLeunM8/5jknABUSjNMG4BMBcgYko9kel6N2Z8BC2mnhhg4q7D4VgTe/3ptPkfN8/C+nFGBfJD0GSeVxZ8XKMZD+YPQIfWV8BVQCw/J+mpLDSF2eg7jL+7rnTLeTnUmJuq0QlgKqIBXrVv4WUaCqHGhYUspFduR0PIkHq3QC5vYIXQ/+hCCD5NWACobWYJCKPXyDdfICbQIhBtQYcrhYVx7AwZVcOt7YSq9ZMuLlDF1eL7jaUcpTOL2I5pEeObKTb/WPNFcjDDAFG+mERXJclUG5ab7joVUwumDZmjpj9MFHeXQE1gs6+xD5dfCACTIWwNEJfQEDyHsLrlJ5eaaeW1zbBrULHqq9/swp7iI3LcYDVrpS8S6/9H/g8A6azedijO9gShPcOe374C9zaH0vAJmUosArTrk5RGjuiLcD9s/UhnmHeFeO0XUK0W524Kd8LRTYWNxmq1NJl7/APE+NOTSa7FhYiMYF2F7dvEYRL3eqj9kzClkGnr1I6AYb+uhPrp0f107BU5pkycsEE+H9U+8UWmSo6HDeUn4EeVyJnx3JF4gV1aPSNcV1nCakjHv62wgWENvD9KzwtrRzmReTC/dEtqUF+0zUShvAhDHpDXSD1xN/KtBf3o0BjwBbcE4COH67oxFclY8X3z3TYpAFdik8R2rgM/ioOlMklq1DLfNZJQxZUsC6ekmHT2QSrtgUoGRGS2hS0og5CPcfp7e93Z/6F4U65wN0/jk7i4wMjOAQn0kUQRhWshBXIrjhHkh+QY7jg6ZYt6u+nv+WHYrTzTsxaxPydAJqMAXP8DlAffW7CIWdGm7EHyFpw3AbrY+UH8n5RHZ1smruR2BoQFPu1Lm7kUrZVQTVLc4rG9AlVQ5tggzoJS6zZsLpLUCUqp7zY+nyFhYZMNRVbfMYVsX9FbW0h4N5htBkIeOK5f8YruT4Ad43d6abS0i6Xz0jRqz/D2JJNW5DKdsdAF1SvOR5snzV3CkHaKov+UdzpcYBr0oiumLR3Ikp1OOt0nindR83YFg+XRFbjISilP3F0QKt17KaBk9woYKLhuFK7S3wxNrkRdPb55BpXq9Jx/J1QZHmyZdY9uu0fG81C5nSimqFv3cewQZS4lKRSqs8rB8KmlQ8cPpIQdW4DAOKk6TWcqPRO4YQCl0+IhHJZN4O13tq3DIROKq1Dtc2rdb90HQl0h0lTWAPb25uuU+Q/gjHMJ3/gL7ohPqmmLlY2aSv5gZXV9RfDOE2pradU2AL2KsWbXLQEBaLCKQ2YrbC9TPgY+i3mOa5ChAAf/Bj02mvkuJH6pu37dci21bKhJ8PtkdhOf3PlW0P/sQSXw1tdCXdP4D4BFBGO/CcWDikcjyMeECay2H00nwIVdJF6ImW0Ohqp8rCxg5fXTMakUJyxHCSBGOmkl12SB58Kfs4UCyG0ZooEeR8UN3rrZ6ia5EITtY/jGyjuObIz4qYQsgYs160IDmfhvSzOxAJBS003aNUtaEqViWxq+EI54iRS0S9v44D499uuhuoPdRfSkQ727iyS8hOI8in/TiP238wXiLeAJC45k1OvLC2H+mfdrHoKMZUEz01t7OS4MV5J+AbNHKoRhSWInYL9QQ/Faup/Cr8BaObFUDG0geA7J+oP1Ic4Ww8SAjokk61mS4Js4yToj3M9z3banU0Ezh0HwOddtshOJHpXDRNy5THfn70RtV6eBR4VARJOMoq+S0l43h9S5GrhFCqMbPAJUvSfyhLj+IiSR3tqOKgFnrx7VTHM09BD1A5mNp19w0zWuEWmSE9RDvGK2Tphi2vwhuZpsoHFOijxkVSMDupWYMMZL4YQrxFIx8dGExNhF03j29imWETxG5dM70sBk2nERQbNGbFiuZHWPGLSg2LcHAfGdF8eZQ83vPENNBsKuji2WMaKDZDrmok7eKJx5d11zjZT2kkBVXH4h7XqYrskS6NgnVaRxf3V371nvODlxLpntszboSih0pcsv7F/hgxhY0GiylZSVQJdbWiAxPRF3tDwp7REnESmpchDS8wTuMSUNLRpMkseGGRbLOx6tzD8AUa5jKs8GCzXQhwSAuasM4RN8f35EmjKrlYxuSmDBn6okFNLPt3iyJ5mFFRYzPuS6VOUKEDG3I7MveBzwwph7zX8r+twFyvc6rw1JTLw7CNr5PuHsNIDumi57uLAqU0tFUic7c2dapWGJSRy2xiRUN9llG0WCgfqRTFwdJZ1hXTDzHCzK4wUuEvUjqhpGHpN4uOl0pPUbGkR8IAeE1OPfvdoX/QDrDTseLskoliDESLZRRTAbFKpvGCMPxwJW9TWxjVa/+zVTfqWfsL5w4eotKfvR9paY6fSO18Rw3UbYyuqc1czR7gA6uqdnH/8JOBZ5IqA83NplRIBepM4rqk1fRSi+iiAfZfHfVy6tjyrJk/88lZg30PG2FSy5hmP8dKu2IqVAFM3KC8XtNOlalhKkMgOYnRyWRBiKoMKK+0gnA6qyK0c4uNRdFrisKBYhcdAFvy8PVKfrXtvVNkj5sQkneD6KACa8gvmEGWJ8wlGuUWpCObO77ak/MUdfgyTt6/QBvSB/7i5YDbrFpEEBQHi1emyFZ8Rud4M6cqwDmHgMFEREeZkxljGk4GH5de/x7jjBtg9B/ul3gv5SnxVKEiHGz5qPy6JDS9gLaZLS0zqlxy5AM2i3anWJGWy49ACXCzJyiCgW9xSANBKfM4vhP0iFC4LOeQcezbX3OyyqnY+41LRanYJHa+oeTqbGQVonl6cRJxdn+rk7+0kVK5Ovyx8BfF8gtWB3/fzZ9L86EBLegbwnSfFnUMMg5J6kiGsuSTD6hiswoCogV6Tw9WHGrRDcdAPmN149/4nHYhHQSl3dIVmfr4YyejHCn+EKxuofdVqp1O+5Xk755sUojsoJUOKPym76MqgQmF2ZgcVGt947aWhj8IODt6UXCBd56nnB7tYNz8GGmppNxoZ3bWXVffTwhe8ym1yumhwVI3hetyb/t02RNNe4AI2OOhET2DwpFln4ati5JIeygfmv9k42oV/KSetYsx+L0AzqWsHcNuK2UegY1gxY+RFGGbmmLW6biW9Ic67NrRy5gvusWC5RkcvyPb4pUSW/jcdkwOMe+gB97NugRdqst5qGxyhK14XLJpp53oh5FxT0JOLyB4FAwN69Au5FC76HviYLlKZl62+/KTblX6Kcm9wEPbSoiukJYG7Q2dIoOhk4P2JfscCoREHnapb+EYxaH5WI9IJRkDnB3fVNxcwi3uBqV3BkXt/6uY2NF5U0FZqEHglNidE8pJUaKg1RJeM7dTlbkJ4TYM0autLxM0Np2VKBSGJ9pCoyKogcVm2DzqQCLsA0nGhKq9g3oiXXoBR7+GoCNHYueOEGua7by+9ooi3Tps1va510iAgCUzFuk1MA6Irs9Esiqs0Uy7OH0fAvVX+rvY1/aX6TIZBeE0caFqWUNbZihUxQ6rldZFAaoBqwEoYh4F7FrcdktA0+8OFirXKBhEnMSa9Du8YVXcaTxW+2tISpj8xItDsl3Y2ZQcuOW2WoCHQYBkJDt2Zwb8tyEnQhcYgFq74o/ut8qfswGKo7/DHHt1nM1fNq1E+JnXSIWA1kqTidpQ3O3qx1RIBM/Z91jcUls70WTUwTquZSB1vuzy5lTfyUDsnENw/ACzRASq7ck4EZvVWPTChM45L3oxdp3M48UyVYpxIs/MkqVu/mDUbrWUifAfizxxvsgbmYKLOa7XxvpI1d8X2jXbe5xHoypAWXqmRioeRTVf7dyhjt2jgdisEeT/Uu45PO8faEXAJVZQyoYs+YzXGqqZubCD4KF3C1AXYwY242lRWHJGLBr7jHVQipqHqg5NdGGzpX1AKjXoq+b6FwSczvBni4sBv3xGi51rV65Kt1ds+8l8tKBSO/95U9HI5a2xpZR0sW2E33/qxYJGyRfcBya6155PMxx7R8tm16NGh67ewbAwQ+4u8BPmQsbK2JwWBaNAUYIlmHNkNxKRNQr40owQN2DVg92AAMyoyC8sO/ML5hfBZNCzSvExKSsZZlcGME9VQlNvdzWRxyYr93Udl74EH+HoiFgscH4VEOu84WHhJSgNZFAZbnAjXYCxCTNmnrcQJ5X+a9dvOtqBxN/mFPsVGLNfCnNUwumzKGY2120VXigWmZ4uKrHnxFoKz+IGvhJ03jkech2s3oRRYpCpUUMwyddPLmDJw6wwaoNeGUFEw9M265b+3lgZ8XWWbdsWPF4GuSyCLi7gODi8J6LkJNO8NnFviPbqqIiRsIQEC+gOhJftKnrknZj1dHKj2hRlsd52iyE/Itiv5Pq6FjktUdday0f8MY2avP0oIPPf49ktbcfRN/kz0g2Iz1C3EGgBZ/lRDKWjH6ox/7KjgKD4+AgLphma8C6zmHgkd9yL1o+KcNhr5P420ewbVSGNxclr9p8lDmwk89V2lotdV1841jjVHFbZfdb8pe+V7OXqWv2rqipj7k5xaq5Z3Lc6W2ScNO3g8PCbC/YrHprp/2z+mJzu93Y0mjYjBg/z7wdURhIJqXdq7G8FzvSwllwbfYMhiSGmtcM6ujOcTSLiB6OXtpG2V+xCrn0muCYZn9Art7An0FKUPO4Di/OFL2dsiTuIxoSz27zN9clo7UJvyzqnrEx2zYB2Zzak+xAnc3HXVhBq0Ch5N7hz8J2itAK4lMcAfg5nzvEYJs9WiLiBuwkc4oQsi7O0yM8IOpJLwBbkAb6tVM19t099WpdfofI9yU0LId5alLAfNsfBJG6d9pdxihSJiVck35+lOZRO7rnMBa20OeK6l/O4ds6Bax9J2B7phol2TC/iSs6s3JhgEq8c2aaVCwmHCId6GakQ62RtBclO2ECkO16O7waRUgZCTH+pN7ZZLUemmJIwMAed2l1WSgGEXugujo5voABsVER5sgWkeDKbrbxZfMPfu3+7cS7iCFumBR//VL50IAxprYlf5X1bb2OSL18vG/Nn/bOlb2hrrSbMM4irqNWje64Vb46BcdQWUU+baYlFY8GBqH0UNIlJjLXkNWl0MjDe3BoeYeXmxuHxrov5JcZyYWHPONCFi+6/yxq3N8ROoNzhGuPe04jZP96hj/ZQfoGsyvD3LLoo2w185CeGnmGFq+FQpZpzxoFeGEDLM1IoVmPO4VAidZPIM4O1KxjKY1ImysbrZ9Gb9+N6KIQZxlpaYpdisMGp7+D+AXBQIxUTOvL2sO7lhjEvjmxMQcr1btlh/abW2QG8L7kCuiIfphY0rjvsznz6OfrpYHa1WLWlg/TeQp5mgct9DIjIfsNGfS7CzIX4gqtuKDBJ6tSmbPoZg6rcAjff60Q89AVsi50zfhL+m00HxmDRrJb1r7TbIBTofDIhpjIU436fuzpVbqN+p9FSSS4X8EZv4hRC0mthz5A3WEw+Vll6vVxYSAIlRvbtcNR0aidpW3qS283k4GGhbh0CaVeDLIs6vOMNfJ+Ryc18ghdKh9KNXqfyyjvlRehB4QO2Ky3yH6qzV1b3ocEnZvFJTn6iakoSoUxh7/2doAewyOha1AU43ykG8CORWppVmkcUStLoSbjDMMIbkVbhssPHutChLlAX3TOfAEiNSB1KqDGmwcreaKDOcvVh+GlfFuhImBBco3Zys2Dn/XKiOuW/oGcErV9GLlyJDmKAS0ZV7WwJSGBBYzOUsL0KCXhPOGQvxRWcmIRjoN+z3Cqwv8SSClvxjJerFLfRA9gi8PIzJ/R29bZxpQEa79MHwNb+X7kH6WmIBDFKaXlWeLbuZdxHYGDb7y9If+AEwCYhJWJ3JVWuVZGFhov4CczUApjxoUaz9JgMzKgYmALfrYlGcUcBiOlIzMmtjViOm1UsC/VBtlJL6Cph7mP8g9tVB8WoiPo8r9Lc5II0vpANlnwFYx7w7LNWJxjvwAE4jeK2cjXNoJ2pFooFA0WrdlUHzHLKAQ4lRO/z6R8DYnScn6QGkN2gidqcG/H0KcrwKNudNB4kVsK3z7TETT/jUd0hcl+jyge3bGXzurMI/GzLT/mhf3lVO9WQ08jBh0X4M0Phwej51aYvPpYrUZRblYLp+badl5U167RDNfGktiR6SN4wZgwV+ECrzjiEeO0EW/qSglCisrbIFbdEf3OJh6lg+N0fS/cSBEu12z0dpZ3jh67Kq0ty1uB0VRwaoeqy4Of0f7PE9EPL/t+FM6Lb32m35GOyX5GFkXO9YuKej+VNpRu399Ozm93An3Q/DGkozj6iWqOFQYUveztDEL3yjtyD82TA5pNRbCh6S4LOMxswCi6v3HtRqApok4oosH3bO2naJ2Oz/ZejCvF09q/nqN8Tg7PIjKx6lEKId9isgcYn3JqoR+3agbE31qiaTEpNFhrwtJhmHvuylLZBoxexZ+2Mv1Auo5gXJfrsdPcuOEmv3dpqqPAsy5ipVqBamLnjEqoHsrZFxUx7qQfZyhri2IF47vEeTRmqX9GDyFO7U2EAnNs/XbeUDxoHG+6J2yKHaSqvCNcuH6IuuzjcKRGNqPKIp2BmC8srygn7/5j56HN7HLsGzCVzSqrQ3sOybN4eHuzvunSfuME6aGSg7vrGY4AvzqyPezJrt/LyaCMRo6Bw39eLuSzxLPbyNfFRR0xuo4CoxSsgExpex21c9Gesn78vintYj3Rm+c7rNexPHHK6kg62QzaJsLSeHpuV2D3upelRoWTMUrnnnxUG3cBs/bfF1wWTdxu/BUSMUWxflPcV3Kb1ucpEYBc8IJQqMhBtm4avkeKeQPN9h4tQFtMF0GkJqq1Yb82ZpkluJ4ASgBdQcJaj5FOa/DZSyW8Ju6WVZkrUF8KtR6mnmHWO3IGJKTN028gU2+fvdkRiDW9E4yHGFj4ImR42XzejilypZ4TOB23LqTg3XHUlA5JYOvdQvymPt23ef+2lc2U0Noa87o8J4OuT+Fes6e1L1TkJjFGgZ+sd1qnDqveyqN7vU+/cOY8nzOJnBrv9K7KqpUpLJLNoptYDQpAgVM4dr/s/huslaJboZBYsdju3d6H4kG22yHtjy17wdR3Uk1yw0gBpbPfRG2s+fEPduSey79bgUDQsQMw65TISWIwaSzmK1PqjNKYNYMj2dr/s7n4nBD1McC1Sxsx5dkM9rgADpyoUqZgRMeJMBMDN887IMLZNUQAltYU/+Zxw0WSkbf8KPQCnQNht7g/DBR50he7MG03aF8R85naf195JUkJ3ihsZgPaTr5pUvxRatOX7LROmmjS4oMxIFk1xWXdyNCoOX/rMXCfHUpHGUetZJmFnouAgYOMWd1TFK2s/ZdsbMeAmlxdSGtUTS1mtLK4h/TBYnCXQoh8WkuotROEQWnvYR+yyAX2L08OI8Z7JunCvfNL2scV2mXw/yHrwRssglU1WAsjjXwS3bVrlXOc9mRuJd5pkguMCLdTfRKUPT1iEtt8gtTvvbGlMAdHBJxtzRsZy3UXZK6x7oj7JHmhOtByCaUUv1nfcuUGiUcqkVWsKuBXOMu+NzQPdtoQe0o8bY2NnHxcmju0GHigX2zAGENrcjr/1G1jBKNQvpO9WDwM6RnRCItufTp3ZQiUqgTJ/hfGNBLnUAF7/1SVJLjlJcGyu88k/jwY9E8zp5smWm8bL6BWnWT+ZbBf616vnvXk4MnOo1nkeI12huaajSpxh8ivHrkS8HO4/mq+rcrJpNUJABzDsoYU+UZfB44oBS7Ajjyc+YjdP4cwyNHmzW4Ibf2g/TBZOU0YtwFBT+I/hp7qN6SqHuUm/9Drfx+9Ng3M2db/YOIsc1Z+K755vNziCn8XmGcP7GfEJSs2psxdGdv2R5K/ghFUVK4K3anPHk85y/mgSuLsx6oaczlYeRdxjnxVleCiYYbCxgV8wu7hClZr3HptFZU9waXq7dVL6udYUrP9+rJAxxVjN3HASsTlpJskdB6qN8oF+Ljeqe8PrVEE+F7Z+DQ54TyVb6dK8521FV9j20OWwbebTYB3rYVoT1g9/sdCN2pz3uyGvessJXCGOLEpe0LY+2J7knyrbl7c5Z0gnqEsUbztvKBcRRDllTI4k1jkKqhXNHM1W02/t1bTx/eqvmBdaXcsNLltQFSgzoKmOnhAcueDlmJViaCoQqUrVW1vqaSYvbClOovvCP1BOpxkbPuR2penQcFxySe3b89r3/Fu0371HvkgiPmeYduZuQEe4kY2744bvsowKUMXeVoRg+/XaagzaX3JnwTtA1p5GslUatiQxoM4kPMjcz9ctdVfaPCjBg9OhU5GHTx2UPAEXWalAAgxcUZB5NNzAinavbFBntJjxEMxZXeZixi6uVntQc46olP7Afa624h2T9E+cs9D6VzbQOErNLoRxJJDHwZZXRQ/jWlfLQ4XaiuNwwmCBvnWPoeHMX64cLwNnDXcDefHL2hpwnxDQ1jRqRasIjy7ZOXM8j+2H25PoLONdKE+ah065xjpepKK8d5+YA+lnKSobxiXhy/IeaJ9vTzdrEmBQhxZwgayqghzc8TvN0op4vD2hOyQyONRRam7FpkfmMqH6r/wt2Y5qAXEPAYFBpRqEdw7bUN3b6jpy1r+fD195NY3WoxZ2wJ9z9WVK8AFfWrrVafiRmDKYDQ5tYQYfAReLvRFrV9+qxqCNgHS1sDbm8ln1rES1okMbD5HcZt26z4Ab31Z93meodEjiwxjpOGw8VKWtv5pXheGnyifPSXKJfhns91fn8tHQj8v90aG/WUm//DNd5xCLshD8SDQpwYj1D4i23K9kxFRMyiUxFp95yKHL5ZBBe74A0/lhIhtdyWi22DiH+KGyQ85x0i3Bf4sdUjJXl6GnaxEn2i3+sA8qggGsfXev63ZGr8HQ0IgwrA/SzD/ejl8QGPDqUmSfHIPxY0Ko3wImoj8X0DOrE7EfvuQh1KJzkwnHmSMGWz7xf66/i18Yo7JEA/0uLLsv/eTvfyE6fbVPr55UewejXY1lqn6GdrkbLpsxd0ccjdXcHGBuAqaGpMUfP5W1lE6KJaOxdJMjJSay0/purufbf8/tlxPr/gNtzIR4SBczoJ+FGPINRPekgVKginuGMecbQ/l7c+HUgSPvmlAQNo8cR8jeZotGNhOaRAyptXraHLrtjToyL/EK8rA/9XQ+UIkGlAYzZX/16aCuYeBIxBHhTolA6YA5T3dE0yNa19BgwneebWmxNy3Cpu/oc7IekwWAx2/qskxIHxypdsOzxQfx2dcAde7tz1cXGjkmjfPtcqVSPCfN23dOioSQrbUXtCHLFQtZOi0stTCulxW0yn8IpcLC1L/+GRqIPcihuRVg/KlA8ycSTPJ2metAYPtL9/7hGijtx7DiES+lEkvtii3Uxn1cnn3YccuBuSsZoevRwOmbMUnhLku7NNIRoNG614UMFdxHmj6q2lXUNm1m8fnHe8j2B6o4pXE7KFmbEmDfLGDMfAzVejNKDv30VSfnkcu3OoLzmwBnodBaSnl5bATvb7rYKYt+yL4XiLHKUpPFg4UWFC4DwMyGYyLawXrPH3KD5GH5PDuw6eg83+08+5TFo69phGFvhDuhEWMtCG3C/v8CzUOjGXpefzTwKE7OsEBj0VWIS4UEevCgnQtGKa45VHnU7dwFfGfJ8jVq4Vt9gwdNQWqdkHR6BhlVtfmQUoYbffDXos5xkngSjSx7pjIx6GsOLlHqNO8o7h0jZma9nnlkDIAWTEOLefSrNojytW7F4QWwpvwVV9FMHq4leWhxwx8dv3L6dteMIJHyxm7spMLHfH5hYmVsWVXB9ZnFDkGWEh0qp/iiSBsqqxcEj16XlQ2F9V4KfhmWpwYTEKzFaiKWi7piQgGZd/0NQHrYDs9U3A6Tz3svkMEgc60kSJ6/ItmyOTKHL9rtsSYrlnjqN6j/kKq9KKPB7fxURqjeymwqVzBHk2NjgeQYXizqTqkSo9N1ng+T1Lqvtl2NRA6q4XB5NmbRqNRWYjycsN6tuOk3+7gZmVzDbueHf7vPkoLnkmIss5UGeqI9B9OXN9c7v6wYruJ/0K7ROyoF+mJz7DvYnlugw9mcuiy2sk9bcyadHYmnokopocjg7yT14qOq9N0cQxsUmWqbPu04AoPQKv0DqcDnUVLUmw38GHUGwWXnya66zo3BeIPbxqTgQD2cmnmSsRgoZXTt4SX2qdvkGPZaJQVyz5UBpVxb/LKVOJ6LWLYW3IuVShiknv7roaWWE6aRN/lrW9foLXPSWI2Dauan//u+4/985Q0QGmVBXewwKVfLo8Z+J2gd9zog52czhkj3HnaIDdSZdAfReSqPXf4bGrfHyUtP6qrtTnXpS0b6cvnWLqgNNMNeOjoK81a2eOU/RkqC2u+Bi/duvVUo7cW86yVsf4ABQ7BHNC86XPdQYbs9MsVzj0wCJ2yU9YvU21dX0XjVSuBOWoo9Q+8pERUrIuv7N11H/gXqOPe+sdvKNp3w33URcT/6S4h0D160S8j2xqHDdckaczbDGuGzbK4yVUaVc/PPElrPW4TdOIiimfLCQh3ydMk5LBx792ljvgEZ38hCpCZe3EU0WV8mPM8aR0MrYQwp2DmE06fUL5Nc+e6/prZNfkI/liiEtiEMHqt56X+O2AFOKnarnAb2dVJJk6gX6P7StaFXAwCUdxDWAjd+yONDZqPa4dMqC2s+qeyu2HZIf/pZHql53Cd1DsbLA6VG40gpUuOBmLuJXTAymseDLPJ3oIVSXV+AGBQz4f+jw/zGQE9oFVuC2BucrqNIz5SAnwS1XwgSD2JxxshyIdftNkoSIjkW9+4TXpf8kz15tLrp0XhVOjXPn2z9mNJRp8R2G01qOIa4Vybt5xDHeWp0rz+ZK6RfA6vrYU5etY6LELeGf9M2YRrkIuRJrwe6L9+I+RBSIh9XbWmysWUZ3W8ZzJa7JE3q5QicbeNPMYpONPQEWHy26VZSSHMC3yehhbcZNuTcA5utxBSDnP6CytMR3aEpLUDQdHAeEJT2pkEhDC1gCTfCc/iBK5P2Pa91i8hZj75dSPiBrKb/MUu2rWXup8RFp6zXoEiO0GogWQN5gIUzm/pA96Pw3ga/mRjwdZ6yn7KfMh/ED/gWunTncCIXaTNUiyhBA5NtAzcfzbucgE90KknEoL1c5wzSt0KM51F2aevyreu2HTqWWzvjbdhKxuGsnsOA4bLTWs8U+aseNtvS7OEKxkN4xaFSuv2C8PL8mSCL4bd//qhGT0G7A6TLFjDknehWl4o8pNXwrfK6Lyo8t5dx8D7QCrmWOe5wBFRqgZcG9pRlLjsOyRNgsvncoH5mfybNk8uR3JrK3hKgIP4Xlh0AMJfBqsFBPhR/+Ppz26mUPu72xsOPJtNYrYqE8Iq3Rk2HdIlNytEAX67DcBRP1jNyTK627sG6m5K6GKu3Urjop70GFPqO3Cu3msnmfzOsoebCTxO3A+dBzNk8KIycQQQ+2eMzX7unY1ShNSt12XjlEy+pTzE1t7/6lf74FKj17TtkQ9r1MH9NR41xPMSIztXcWyTN2cji5+FnZ7BAeuXOvJsYc4E75F5eCfGK9MAx/3XPfUkTLvdMFnCoyvj1SCWEVSpkJGsZ0nBgbWyTzrP9khw7FC5v+E/noWlBRmEY81odjVA1lRqjYC2CcPX7kTitXisLsO/7SSF0sUPIQhUOLjE/284CnsLdhPp4rvZ2qsQ5hUJkMLL0V7GFrFLCNhAJlXzSKXCsqM+BSS4e+NE0AX+hMIKbNQ1wimjrOrB2v0XQvHaj7Arbk6X9ibS5qttrBZirjc/Ap7hm+tqRqukZ2UntnuXCyKfvieSZyRw5VrY7GkedjvVE+PjTKu6IKIM3LqXKsbW9Zlgdo3tkAuWP1gOcTzfjcPPny4kvqCc71pIhV9RK0EfislIE3UiM9A/dW5JP1nSXqMayvXOCt0Rm2fdRT4rXYo7MQV0btFlnhDXs0aU4TBrPepJLLz1LU/OJIpoU3xJFdwDob9VHxruVnuMnFc9XaO2+VOYBuSkHrP4Y2CuxjWNdOa8BaTH1qur2HupHxhZy3JKsUjr3aXDIukjzVvunpfXh96o9K3BTEMM8fxhyIVZ3q1tzCNeoxH3VyuoMPeJK/IQ+lhrED8mqWumkcWSR4Jx7jtDIbA6yDfo6dIGzpDy6sS5f4DCorXOB0Y/GFqjGjZZCmagAaWM6ToT4JVqVzxR5Y3JCEG/9JoDtCbz1dyOUsoJ0D7NDTgkEzG5hmuCU6cd9cYOYdwbnf8X6K4bIIO6WDfFiriJFlyjom6m+aJqYnP2mtldy4DEkbiASfKH3XUEntHCVYTsxGkiTbJN5kgNfONI//YewZExo0RYAAh0odwo6OGBOdAXSmNIY+HyxGtQBS0qm8wBqO/ZrtoTFm4PtPodTAzodiaC6wgxlp4E7QDZgSZzlV9wTMWtNGqY7Qkpmh3/e5zLcUJPIr8rycSIZZ28AFiC29yAyLfXRWQ64Vwku5dl3hVrjPWq42qy8H9q04Cy0Jw8WvcXOU87HscD6VCnX3Z5FpmmxhLgR3z/WmSOZnHV7yAc5cDxcay2JyBBa7z/Uugab5QI3TdjdzGdDZ7curlGQxDnD+H+FuCawkagUF6ptzf4oPvNwHO3h1iM9LDIpU7xT23RibU4sWvHcTGRnbAoM37eigTZyVS8QxZcHlIkE0ZGGPJg/qYOC5Qr+IoinIGuS4vlFaUWKG2Cg4sX02A57HhyDhUSUPDjQFZAto3PCZsiV/C/oFTONVcriog1G99/3Ojb+is7Gq+werYiCJjhJ2K4gaRPdqFPBEixhUG+6pbAZwY/hiwUuTx5h3VWi5x5YWukJV6Rf1ObbCsqZIat1Bi5tfrCWhO/B4P+K9Y7/uhSp7OPZHFKvAArUYlaIjNjUk/oFca7X1mc0wrhgcjoarsF947229kUuk8f3dk/enN/dV0eMyZhhXqPq3i761w+N4Fr+7Kf33QdRA+pQN+9LZPmhG3KDkf9WO49/NWUbjyuv+fXa82L1iU5Nsknxkuua6PtO9eE+WJMESxnBcqVm2ke8813Mvlx5zEhFS89vNnNTd0G9lWnP7ez72t3++6X7W3c0FRxqkm1qcNySmQ0pgxKSSIZ5Suebz9qJzkUwuhI5NFtM3sHqikq33qRX5aKfkR8tzTyjcKG3F6TlmFZHMEzIf/j213qC2nRGFbjHm4A6czGjthITWgBvXtrrnUHQZxg/d2eLHxJLXxlI0aDj6szgj2enAZXDggQijtMipT2Smm1k0H35VAUo6ERjUFD3lgMhXQV9cI3M4RwcggObXw2GGDlnWSq0VVfJXgfRyr8xPMv+OJLb3Y9D4pPe8ZrcLZeOVLpKbFV8d8EBp7dALqYLyxZ5g6zO2m1ppAPD5NFT/njA0ELo0DWUaKz3rXF/3LM3HUdPuON6nGWRvmA00c48EiUqItE09tTy6J1CLc5CvWTETUeBW4t0CDLZSD8/43Q0Q1DYM5JdCInggbJiRgQb4Elz4BNBL7Wh+at2Tqw3IBYN9jJ0AsKL0Bh9A+LVq7BKqYzW4b2G0j0/zKi1v5Y63qRaux4hWeLiPCu6uai5jjOA/KeCD34OursnG4XB8L3724rY9tcAO3F5Bkb2BUzqx8ZKYKv4WRG4Rg3vndzNGehPxMdDiYWvdL6JLnJo9D/GejCCraeu/QM40UmvEmFgVwk2N0QE0sn7QY0xBpE8fA/rnjut8MllOBmkkgtdoNq0NDUUxo+Rg6Rj3fxwpRUm+FBpz25yccO+jiSiUFzQ3vrJSZnuNKOrtFwxvgsP6aZblFpoT+rSgyeC7u5hS4uQ31+tpX5uJQTWprDF324ezfXFd6zujDm+Srcze5toXsy8sUH8l0BzsTuRzFt1aJitO5VnP4H2E3nFlXVsCn7feALf2dEJ+4pAzpAn6vttcgn6q87bEXA55ir4fAdOauMigxO+tOTnXezDB3V9X6GxuKmM7fqDJdgwhGdVIjzXlXpOvSPrMXMxTcf1hv271fEG5SdXB4/pW3E+WwJ1CGzQG8T6XNmOOwO5lXghgQFZN4G10uQasyOxqNHuLvoawLnxouqjYdmnqo4Xl5f5qJgmcM4euO5KTCgW6K6lG+hO875wFV++fxCYa/BAMptgYvW4UNjDzNJDOgJjO5jaKzvR2Rl7KuVfgc06psImLXysQPw30H2cHOYYbF8nGmgpau30sMCs+XppPXX+eGp+8PKxOgD2gqGhu3dJcZlDBN99RLqsx0j3O+8939VHO8Po7KqF4tCkuaJQNJIdcNu5wrDsKizzxSoMEoSlkk2hu9LVQ9LnGRINn4g3jbWcH1XeFSpZF8jmnU0+m2erFd7IJDDYuMPoci/QwkIjdeTwYEkcfriL0NdivMzTSIeWMQ3G3wo5RSFC29mEoyJ+f37l0egbvX+dIog3cBZKut6HXNKfLGsgl2/YX4qZfmFKv9rWBBW7UDMlzaQo12eJ/cAhUH1G8i1sUaLs3M38EhXfQ1ZAdWz2yDlJovlQYD2dNB96M31NEzN5hshEAe7cGZflrlgQ60K4VYsp5qzQDQPcReF5Lmfq1miGXjGXIySMf5AZdg4F8LnlF2yQLQaBNCjMAtFP3hOMPy8FYTo+nWd6/mEFS0KN7l/UzWGRtfyq2/oaOEILE+VitaxsN+6x27WMG6eu0O1/5rFn83W1Ctx6wUN6Y7LWP1ohwKH7I25u4Q5FXgjwNVYCoUsaYHtp5CjIFExEhw8rLd4SRcIL5Lu/R48BhSlxw7cdo/dffVLsHWhQEg3WJf1HcHxINhkYRprogn5y6OkSfmoSqe52039SP6eLc19RofNQfLFnD2upeyyWsRLwcGQ05Xql66A0i+YU4zPcLZP7+6UHHWwEFgK6G9XmtUYI/uq35m8wjjM8NDJ1cf3///VN9NasRmna+G+EewTyK9Qs2YUg/ZXQAnunbGXH07ZNNgY8Dxfx1LSBRlXLHJc7drQf5GJnuPutP80kN7De3G6kDBqMI04RDE09Mf6UOQkdNvvcz8gEttVU8W2iL/DXylSuEwTV3rt9cc70jKDPcctWd5DWERBifW2tQi/23lqq0WRzrXWBt62vbh9xHtdjpOiiFc8vx/SR4IFbEUz0mv8DkGvH+MNd5+EserW6Rc23iK1KAdVlNVbWz2z3bQg7CE9olDZdq8GDkhDBuPHZfSLe0UL2u+3SP1EmkZ5Ok9Fj5GGvi5N7APRY8tRaAVrrzGFEnxCltD5SF+e7+UHLpUHqN47oZ4vVoovrjr6PBqQDYVrt/GtsV34LLK/+mhhPnRu0Id1sLxvoWTOduIaUBYuEE1y6zW9NmrGmEAuSLXPeu31LBNn5fva7kWSSqMOrt6H8Yx6PCVfRx9mV26vudwRfQsgbQ1WOE0k3P8qeZLrn/x47gLVhdGECwMEtUqtmya3khDTVgvbBE3F4nD4D/2eJHPL/CmxMF9Jmb4sjNIkjUzPHoA307AwmexSCHSzCCo9Vnqvv8d0/PrO2lq8gGLkwPiQPU1ZsWWgQb0p+RjaAe8f0CTrUYPF19oQBdUgqt+JeTcrzJ4H/JsG6y22+LbDqMajQ+GKdnDDYor8u82bV2nDN81eRADERHKwv30ZWxBsowO6lISTEA7x8r2DJhc2BcHE4Ona1+81xRRKbcAOlHNGqvROJbVrc1nHWGfiipGB0fUSPinUYgqf91OByDk4yYiXj//TMtVrQDsDRbYw8NzR5HwtYZVpSohXtCoh/Yqe/7pUIMKiGfYWpy3XwDc9EgRPEJCJ/BQ/MOBejdwQohnv6lWOjFA9Kc5dIMqtyREpD/TukN8MFluHPqpxi/iPVtAXqcrsLE1woD16Pfem4HILEvNSxvmeQqAfYvqyFB+PFr5rZJ8XTdxbD5UljG9UOFInzLipPgvFjzw8ru17QEp3SYbr9igpg0wqA/RAXNC0caJMMOTqc0zKgqEQ/MvN8vYYlxz1zMWU85xsrlaoV1gGPmkGVMLmXIO3FySvDz6RRyeKBZ1OawkttvJS5RfZ9uFv+f0JKqoHxVaZvBrNqj7h0CVEYhoGMeHvP+dek/snBcw+ejhQ1bhM75LYnN0fMDT75z1L7fazFqKOXNvJzsqQi2xsbjfkS7TLlYsbjnGbgYmmO+2lzkJeZQdf3kWSp5Ys4EAAW5Er6pMJYx8pdHTbgdnWsRISv0KIVVmz715XAaimn2QGuFQNkmrctuw3qeAynKzJhrccUYvNR/UMduOJFycW9ylDZckYhsToUrRB2S/uWHuthWMOaMcrxgeJGc7Q2rzakfZPc08lLbAAvgvA3K7c8o4gt7fnpTbyf69ipirS1YTrRSWypqHCAo0p7e8LvaGPMDps0l//m+xGrb3L7sivxH+yLb80FxWPR/xsm6uahwmuQN+hzUNit7uHYvbp1+8g0xQOuuj6z8BZOH8Hm1M7+kue/E8oXYoeAGugRp9Ygx+mbFI37UKiEHBi9u39u560TAqOYfNWZ4JiJEWRQgwAGX2w1lIlNBuoffwoHBVlXjI7MvNA9JYr1Iw6aa3inucBkpndodTKdRVhtakY/gDR6KbrLlLWUn7NARSw90a61f1n3CAQP5CTIuGSsl/X7oXnVh36W6XpIHNg26wU/FflDb7vQ3mokL41MPvBfcZwAQa5yVqyAGTXKdFboM5+DDRONv0zdpr8MfUk/T2trw1frDWRWVGHZ0DeNRSw6YpTd3Dn/CyPbj+/OS/4HNbboCJHZ+xvhBc4k2/7DfBnS3c+kRvVrYIxbARfJwCsgp4l3r7JF9PW3RfVYSAlJLeH9cDlfHVZrU5MPml8LkPhGDrkD7bcdmNICQGMECPGEmhyGE3ZpqRav8OjN/UT9QRAIcIFKZ856osiE9qU3UIKiqqMm8CbIX31ZrW6c/oQ1h2OtvnjDpnnYGpUl8hAsMnlRLzx3WHCvRlzfFy2TGeM0tncVnzCCz2D3RzUfg8id6LCWm+XK6H7z3R0cPA1zR61oYbmDsfHNVlEpzkBIfgloBLVaIHJuOc+G1gls4opKjpArk2CVGLUy27KyhXMbXhtUnnvF2NFsOC2dHDOupNpQkwSfbPgdJsgVb5aRFU5lgcRk3JB6Bw4JHQ+MsciXL+r/WicZ6M0GXrdN55Sv6kcvNYyXlfbXUWCKZ5UgzGaJ4UybG5jCzMsnw/rJeKF4UaJWf7ZyTo6SPX4MfkHdw9Ys+DF3uQ7FDdS2l0eNCh4juB+ukfpNXazsr3ksvAdWHmymq2cO6pSCCHcpin6KbviaPMq3kUoO5TdUnZGcqVKgyspf98i/gSOXAaRWnfVJHsMdVQeIHcf5+lmrcWO6/u9ojGM5VLY43YsqbN4rM32+pz5c8Ga6Dx+TFe8lPP/dWff3GXV75YIHexOMCOuzPtl3BfD/CljHHMsqu5IDICmsqk96ZHN6QowAp7mnsuTK2FcG5taAPlmahupphKEB3SRDsS7QQzf9/09Kt/vV/U8xwL2o3UOinytgnWjOGaIlx/hV2Yo1C6pgiTNGSsqFixei/BjtAtZfIo2djtRijURkaX2FB849FMXUsAPcYMkurOzK6+k9SpZxmWwLbok3UZfdvodscqjan75U4th3cjd75saS76dnekv98ScI7rzep7JeAw7/WlyblwIEyLoL5iCK4rH8V0MFY2Gafb+KNChG66YufAR/GeHC9iLxT0pHUPkhZpQv1Hsb98PUU9z+e4lHLkT+8cl8OFkqhxE35kpssK3G381I1BYZfdu33ulbh2CPCl4A35O/qjybfbgAf93bEPizRfGT5qA68doqu/CF8hcxqdzXdSexNPeRV1ZXbkl4dSlhJ3Xg7dOE+0uTtfaPcvifXEACZNd4azuLDV7GCrGPx8NhVv/KEnDjljFWkupRoGRGTauNbkZ5h2rCRirmhzRitqT09JADi66Id2YGLxJNY+tE+Go3u+JFHDxR0dVg/mbNOHxVsZFEDTcxbhh9yfimTudio9OVeHFZ+vIYy4R48JdtIjBvyOACZr/1IbOxW9q4UnTaXwYc8Rc1inrnsjqvmPHb7PjGuId3sqdiFrN9e/ZKrFbx4zs3m1UkFyTThn9Z/QWByc7aUnXqpYZ6npNmmyOHXfg8I27f94qSEDU6u44RjyH0fZjckCgCJaCWLqHs2devEPxnFWReJib/n4KZYDgnYeKh3mRHcvIQStsNacd3c81kw2nGbnFIZlbkAW8z83D4STS89dn6G45NpkmSXhzzLKRS1RenC+FXmbpk1jGP0GL4kOmwW4v0vtjA+URe7+qGWLaZDBFJu2r4Td3Q2V2LRN29UsrX9kKkEpgImoLzPcj92XvbROcIc7PHdPZLF5euTCFiM10Pmb7q3FBx89rJEITNiuRbA9tCcModLcqrxQRqlMQEGmDkbEF9q0CS1310fUIEn2k1j+uztD/N2TstvH6nKpgtc2ahwWAjwERrYxBchGp5wwZ9dB3hWBFAygQnlyMhn/OhAS3rSPMBELWwWKx3BJYAjTLW54tUOI6DTQopNag3x728jnJQK/7ebCb8wgaIB0C909es1N/aN3lG0c/zJ3ZM5K0UjI0ZwhWDxc2Nazq4DvQ3xBUqDzx5P10BRQ5khAXUjAEGbBVD8RKBzCdN4t2oLAKJLUROgNKi8foKNWT42I7m2M4X5nV8grOJaHtREA6ClWW82sbOUVi35J+iPn0xQZkfal60ujZxpHFZ0ubqQIsK9jncAyWZnVviD8vmc3nzwJ6sPkgbcS7X7of02ZI9vbQB1Vvi0IEGHS5EwCGHqwI3J1Jkn24iXUOz0LnusjoOSpFDCkJp57NehaCYvOsGz25ckr6BQShpQNpdJQJSpoBpLeZCdX/aQ/vwjik225d1wrk3bziChZbIrXPY/lZBmD5z7Bws6c0k7oi861impRAqJSXRDZ5A9rV87vGzEqnUNlzga1I8FxlNL/kgfDRXCvQd5eBDiuI31gU8I3ba1rqeTYg60O+CVzj81Oq+DZ09cGzfeP7IkXEBe38ecTaQZbVJdpG5fOSmz2fvzgQw9aT8XYM38GRMAQQyecAq8cqd+20Vd3kUgeRx7pJwp+ST21Oo+Lto8aGRuuBPBKrED8ck81mvUe0Hjy24lgMet0O5VwVQ7pdAEIza7JyY5Tb74OkqGi07LMwicOl/bgg6dhpIDVTNWZgg0AXtHOs14n5ZgzUvD8/mNfMrXeYhZqPFp8Ih51IJ3rHdRJ4gbnpibpJlJxdjyyfozdV9zHw5+yalSCgE/hXPptyiKKK5EB8OBat0FYuDGhquU8KTqc2sHm6cgvLSTQX84wcrLueiy9/YrBV9c+j1XxHP8CU3LLZ0j55RMO0+Yq266vix6cSDQh6TJ9Uz5UQBmLOmXs0zFQwt/3Kx63uz4PbSRO0QcjouOJEfn5uQRKQpIF4LrYoFUGQu4sxKi89E49P8UpzdmFaYpGn1flbkcEuEp/Tt7a8zYnZ97NJlCbc6AnMORAN17Gu9k+NKnZZ8j+c2CllrXiv9krtSnRh566cilAJW3GzqUfyooSRxe6z29X84Qw9pH9yn+UmyzfBfcM3IkonDyeQ5+g/hbJCIWnDtKxyMIqJM8VR9q2YvpiCxIpPyOB0jdmpRg9hLEThxXBZPSYYpyePfFGYVz6b3/1uLA6p5rav6UxMRyislw0FoM+0g7OVz08RmBPcbRfeH342SBnrqUcguJTSZQZNms1jLDAM6An+uEO5lCZx3FHRlm0vr3vYb/rePzcINvYK4ebi0HpcAQXctM7Dk4no240OGQNKcvVuAvmFoYYO1+1SZBe9Di4QULJXaHtfJpADGPOrVYE8EViALygzzEDJLSp9wYbst3gIt1qTUInNS73qhGVueb6Vy5ZVSSaGQ179gQp/uqQugunnyQrRLR0ksl8Jse+XxEKdm9MmCjKYyej/hzqiLAfpNtHsU18odaUoFM/ANCCblpnwryVQZTecv6dNAJxpAAoAONMjQv410sRAneEQa2AxNO/o4whdAJzynhG6CHuxCgPzFQLe+RNosA+Y/dpjEuIFP3ctZfP3X8F5VhA3XmJni0DbOfxid2OB39g7QX7d1NC8gD0EPL/0GRstnxtIgGBu9A/NrAcE1WKlXJlZM4JARa+NGGpoMv5hnYKbcM/KuU7N4q8Ryl5Iw54ybUMtfbC6Vu4GVWSXPG3NDgUuRsxjvmJLoweASl6IdRiBptwWi9VVVbv9/p3rQJRZSoSkVbih4R7WLnaOPQGtSzSrSYQnAGrtV6wY7sgUA8xDV0j2oNZ9+PELfwRbMgoRHa4jn3ljlV4GcFPAYFtlI/L/hUeu/4q8GbfBUAuwgev5G8fx6dV6XqfZVYNnn0OSOgjuOF6D8Cr1kMCxrxJgY81gxW2G5SOlTR37IuOORazXwfsRofw6xHqv17OX7GtNd4HTRNEA1FYX4UPPeQGI5aWrP7vUYwf7TE047egXETgU2VHc6FA5zF1YW1A9z7QdAEKQNirHeoy6Wk8Q8NtRkECIkSn771mQ8XgeDSsIf2gmcee7DuqLr5v1vgPUH2XsvPSRzNsVpSrXzR0hvwARntl8FGy+AG7kxtWI30B56xFgkV635WpHrAjtetIJTpgRSdrGpiuKZ45jq82r6YvpJbXMe6RFIoAXfTRQzkkHmB8joRRmHbW+RuBgyTmy50Oqgao686sl+PYXD8SrecgifTO2/wXOJ850ISk2GUCmv3IJw3NArwX5OQvptf6gHeKctcaD+AXbUIVCMJkaBc31UMOmaLn4UTeqHDglYDtJw3MVkZIYlQnAc3aUR6FjJuMGrDPFR+iRy/r8jZGrlrp+qo4OLWeBq8kmGpqPpW5c2aTOBLlknci0DzV3SkksX4UXQvxEn9N4W0XfTTZ4KSV5d1hV/rHEVMhV4+2u9nlRkmlBZhBsLsZ6NJ20qTAWyHIPuvItgooyDO6eyQyvqg5OcRxKwG88tDMLnlNK0+eUDgXKP+vVL2w+BT5o/tVInfboCxQMFzhxdqyEsNKNT7s5O9c+NyXTcS0ZaHd9JLitEupGf02N/hcbTZQPL4gsdEWkF83t3RQ+SzVNCJ54vy/7cpLeFqto9dNC0MYvjbDyajSfzC/qa8h7D5CAQSdaEEKetdxewjYLVqeLlPjsOc0SMrQUgQ+d/+bD1pKW+4cPgb7Xz0p60DU2+v88mk/dwIS/XNGXRRpNRFiCgT8IZYC3HrcmBYRD11vdZIaa9mf+GF/FOdj5Nn0por+JqVzQn+OLSBjnOP05AsMZpto8vyKvgFxO59Gra7MMXPDzC/caW1Aa7GB0t11FrNUj1X0hDgP4muRJ7xAGnLv/LxJRnwdoZGVlitDy0dLsz5B0gNuqkmqV7WLahgvq8bBmFSMAwxMisWpuithCl5LRcyTWOyOqgRc//J8DHVw+lCA13skxoUugeeJIeTa3fNTlMNa3kmanaLvkO+aVI2odlZ1B6R3ACQzcrSXraExbs01e4mDmczjgnou1WF04a5xLv7zzWmD1sRbQtepJlggisv3mVU4kjx3WCX78jzqzFGEeyvVdO9RjrrC6GX7CJcaw5oj3QfY1BLltc6Flb4uBM+e1plL4gv7FLY1hdgEt5cbhe2ut0taGI7kR4+Ba1uCH+yLXVNi9g1rbKUyXfrRABmFa4sosL8P0tsOZEXw9yJnVoqzNdGZ5tyJKSavYA2X9XDR4B6JAOmk2SuWWoxYQVFAwYvQWyXAhxkkVCETLk+ozVN+hXJ4a8TYAT1+G0gphjEWHEdc9L/0BLCikoYYkYuwDR/eOai5DsRIyCYRbgGx9vEjBwIkUs9A21dM5twg8E2gz58xOmPMRFoMKA39mCp9YQC9+Jf15Yd+wvdn0M07INI6lxL/ghGd/jTXA5mXJ7BF0EVEWFfXpd750LomHEP8CcIOZltRWZ9uDu8eTB5h1pjYytOG1XlEFbSq054KwbCW0sK6Gr8eyEGnKbG+m6JgrupnpXk6QCrnx7KXo+YYW7GwTmDZybynhvyvyv1Ej33RS3SstETlWWAczAcDIqo7eNQz7C7Jysc32sllLpgQiX6vi3kudtcpwzjrV70YQSxQPGbqOzGWluZUViBNRe5jQFVHsf3FE7l1DgUJjXsIr9rVn+mfe0VnjHREof8Hs7XPfDKdTMwRxtIoxB2TbdTH7HHsQmbzfpLnkIARVvx6/kFI1We+3AnVUSJdKETW7ZZQ1LGdg/fT1qr4shBfydYSlp+FQcVYgZIZz6t8arL3SrbVEBOYsokiorxcJHUf2g1yiFx2dfSzcWRloxMjvnYd3Nqmwd2Ld5E1s9v7Vr8/dWTHpngm4PEo4G5xH4yW5LD/1WD7Er8Eh6HBtDlRPnRHOpZ65nNmkeXRzWjV6x9+PvjChbAI8DrpnIRUp5bnWaHoDPRZfnXbwD0kRttgriLQ3aZYhysRnjc20ieIgMNbtin7Zg0C/u9uPbOx6c/fzJ1BWf4+QooJ7le7I0Eaj9s7oQjX88jgTn45qaPdra6ovxwy9t+I082C/IazCHwdPziZcHZMrYvmp9ao8QTsWW1orTaA1V0UHAvsGoEMjLX+DWvVoMkB3dQoN8EvIYEXtyZmv4+IS5S1pYn/HDA284BkSKIFf1p2lUYPTnf6gJEZ96OmrflSyACQs+f63kVTdMVPS+jY0ZJPknELBpsPhQ7mAPY1PfW4/us4HlaoU+Dgu65XN0Cbh5zi6Jopw6Txnq/FV/6vpAVKsGcnLtbbsVBSZtyxstJ7bLTJO8OlazuxsPtChxVGUs0hlqI5TvOlTxC3cbtDdkj0FuW+yR/5SGuBGOPJMUKe9QAazGabJO9GeuZXTAYWBz8qZSGoJirq6idN+XsagXlt9pkDY/4HqJRaUQoLu5MO2J8ZEXGLvwAIExi7X/itjAhH+sz9z4kM8X8ooL+zA6tZ4dW339Ryd5/3i3BehYZPlcDnzPMHnDNeBQTBO7t8S0DVUIjIsOTxNyeaxNg4vEoaJUZT10gsKSfTerv/5+hKG48CQjSGHOS6FnXSUj+l41xxEDuasuq/H46IZJeOaeUhq5dCsMBev247VpXVnGSXwwCrXEY40UT+VGHwskGgdYOw46LBSg0sjmO8N5huElA8Ift2FOO8V5Bb38SyeX+KzLaV3VEPmAj1kuv2mFP3PuycdvewF3OXaOEnZrPdAZfbURPJ0GNETev2O8/u89moMIn7w5hQwic3FKJMH71wASi8gLh6UPryFqdCyS2l2bhkxfSMGo+RYvyU1nDOpurUmQ/3kbUhWsFA7CIKeKkCMcnLIiiP8FM7We3/6O/xlaNWfq4nXgsME7beSddpQ655WPtAMO+ikr9TJzh82lVr6ihEU+D4GHG/49eHV6IQqRWZ3VnL7v6H8w4IqbxdV7kcvsmilCmzqn7jh1iUSJfA9vawBVzXJ+VjVXNQ+IttqNowsgSjK+i+I1dtt10qYUaO3M2rcaHbFRbNFoJ1Wy6aXlW6pXeD1vZaxxWIwyUNcemlY1skH8IsN4EFjlCO/sgGTqilpfcqxoVBUv9gUlV70n5H06o16++Y4t+iweNKehVCQ7usgmJEH1zYx9IBn6f63GIfhVGHdV155TS0vmpatvvZbAuooPDP4GzWeS6/LKEu3IyltReGY77a7/m4V80xy94M51m5rLKEEgcf6Ki8EnHorsAa5oO1U+gb9/Kaf64EQVlcNaDvfYP+MsgoxmCkxDyThrbJEkPLUoBIPKi8g+f/52VUCDelI24rsgnf7ei4zp1erxz8AJTKuDyYWmWCO+Yp91qw+5BnQywRhJ7IJDDYtr87fpGM5SNaSulQ3h/ZjdzGhpiYddk5NC8DGAtm0G+H04rQX8TXcgV23EtL1jBzt+1Nh5cxxHz4db2zQHMbi8JLxgl6uPgmhWWBg44Rq9uv5w56eL9uIaHL7qMKlJFiNKYT/yEmWkFhUdwOhyY7nTAxTdh2JiEZ1xxfQw0hek79AOBmfmY/z7M5FyktmMsYdCBAQ747+16Apav9c8rgm/d7VFiNI2DQfKWJBDlW7/q+JHl6MUiw2YcvG0Coxb8eL+nxwXmBaYtmlFiWSQuURZhdXTguYfSpwa80jFGg0e40vXwQBcLQcMwid6dbAXucB0ZYUJKjmShParJI+sn+NHAUG6JfIa8HMuhxXbXnnMBE/qCrwTErygofyXk3F0SWB0pitlFts6hsBo+C/5oafRzN6Ywt9sQ4dZnvXlPJUIpGqrH6dZJvKzwMssjGVTACRhFVcO8JWH8uRTCBq3SWOrxoPjyX7YGS7ZUGUutqBKj5ihbAR6U5YGWW0OCLQsFRLqpeVCSDEEgWMHkl/rfkPTpBGgAw8kEV+o7tep0LNoQyqJ+7/dt4ZXUL1Q9QdW+gmYPqESO9hvCWSH0/NM6haTZtLOXL0di1nFYrAUuHEuxk4OV7OA5sJLiwBC2jniK0MEvBjbtORxUARbFHXF3r/pijxfPpKkiNyd7L9ExQIfHrrAuiNyHz4Y8d01F6G2CeiDdrHEwgv1u6g3BozaP9L+daL7PAN20FZPsyQCTZgGBBGtsVIBro8xi3IJQoU04BQlAN54W3ifN6PztaBLj80sj+bgRdRwAAr5FJcTzpeoqvqCbHJnNszdxTLMrmQS0ya8B85cGKwHBM8AiNe6MSYqfyg6yNB3A9Tvaq4GAV47RA7G4f7AEhMkgOp54ysatH0vcj8cLQcDH7is4roIogA0Yt8cYNcYaHDM+lWnGf566HfcS6Ym/XSbYHqyG7HWr+PO36Q/gBnd8pcq/JXizrSVu0sBRM+tLBQ+TGP9dLaJEakBSbR0bw5axqNVy20WuLLczU6puKb6jz2Di7e/RyyPnAusHdD2A19HKGxapp7oM5oOmlL6YoE+QqLvBsR9hTjQHgU5hQ2Bjz85vmogyoq4Tk1YrJctxY9aIdK1sb4yaaA1FlxY1dZruB4m/eCMGpuhwc8DM3cRtTu6wU/0YMXSnZY4iyRUxPb6WYW3RwtUXjNVVxohFj/OAY8KIpC6mK8V/0FAz8MXogGpvNfRWzJowU7vfGmyaKsHp1YReWCfKUq2wIzFCxHT0d4LWkd+mkHl3Amc/NotBzmjD1LBCmXSgKlkKbqaa61wQwDfavGJznEnFNOduZ7qIgGAEUZZIOvtoJHoTerUSxDKiMAwTimscjc9OBw/T3nPtIyjmWGsvE97xOuxiiPuZL/T10SYoW/5MSVa11c0uhfkHo+IpmorbiCzNjC8Cn85G1eXyaOY8lUdixI4XDXDI7+K7Cmz1geDb5ODwV6vwfg/o4H1tJKSxBNyUeUJ2Qi/xj8PtUqUsuq7ow5nOjhlNbNAbMgczsgveHwDtCYm6TotUs3PR4hz73OjemMiDuUx6uX7qVmkub6fgecFo2YWphCC5olr0wlk7hwbgttSIuNAPnwKAF/3GtiTAXxzpXNod4mPcoAjFIBIreigpjOZ+8ADyCUTEVsBA7tZLlXErOnl2WpWppui3yCLHsU06t6jUwCtQOTvQvXPtGpglo5VJSr8eCfy4qC9651PUysd/QMR87riuUxGe08vNSb6YsuTYAzjgB9mAcZUPcTJPAK8tz26DYmEF0elrUInYcx3PYZbV9RA1HQKpfirhfQBthzFiYNy19dbTM9V/zMN9Yw/g2cexeD698Jygl42fURs8sN06rMH2dGINLG23M1VY8u3peMhvn0EZFq6uh+lQ6qx6nlW94KeA/xVwCXu8MPu79fKEFhyNQvrP7ARxGCFX6LkOL7CtNJW8O/jJMZLC+UXVOpnDHQf9vTFFXFxt92bVMxK/Am8DYGlRmOYfSnVs1mw2qWWEbmH5t+8S8qGwCRZI4x4spCLduralOQ8x7lLphz6Cla56ev9eWq9Yc0CvNsZCYtc3FYnmC8qehWHNwDLkirMZK4x3ZFRO5PNVulphvlZBr69WWavLfHb5e1OWSoJD7bNu7TCIC86bohDEuat8xu1vdwrgITtpfQ9xg19kc1lYhytb6QO5Evsn8XL8PWGt/ihSfRfe2ehk5E3+8MZEPof+6mPkaDP0O1CJk2jUFxYH1F3AQJYALVYvydt3w0LEqPa3nH92H7S3XpA3FBUZo0LrW7fxZWxxcDLlppYWy/T8RJ0x9yz+/0is41Blj8vyD4uVlTDKZcCmZsuFj9Bf4EGRskX7BwxjYq+pdNvnLduW1rZ8JziC6VFymVdJDnWB0Qa7SOS8z2XGP0/zUvyl6jTjWDt9jyBuo35tBd9+xAhug9saW+aqEp441eRXceyBK3myUBAMTHCWNJJAlXjEusOZDALqMh7iUPqVMoramEzVJ+NIvmdvQS/PwhdjWG2SoZLByq/XkB+FRE4c4i95jCD3uSrKe8SlDW/YrA3gbUj9oW0twKjnwLHnzqQ2BwiOAn/8Y34siz7jMKagee1rWyzjW6Nbf8ndNNcVZ2gmsi1JrwW/dh76jfnhiv2SxLTWEOqf5NZng9aMCk2cHiOVahIeFt1y+XWTDeiu+Cbc1iequXEX7CQf6N2UV6kekfoTV8oTHBPVrJv/LtldyppY7MqRYgKcm7xFYn3jNtSinGT6/eCeVDFS+SRmOz4WUUfp3avvjMON3h6LJV/I7HSYflP4BhMCoK0Qiw5EmME6TvEeYQ7fPAJv4Oo+P/JcNWJEuVY0yE2JHf7S5JMvl6zGv8fraWeXZHfdMTfHzSjf/vy/StQrRew2lRh3k4/cOMsbsFXS091o/TXb5NnVOT8dxJtoT0ebFvD5yyZnfZqziavPqUB902525zdaXtEQSD+POwaoSxbdgtPqcL/B2q+oVLNtGTS8tPZ7fzkFOhV8EVYMgKPJ5G0XnCjqEzqTDOKGYkSIWKoqxBhNTBTGJznltY1f4cGZSWJwAq9xfGfkrZUlha9Svxhf1lY+9IjpBVKERzV35cgscFGv3XLoHKwA67Q0UaSs3ouKSi9XzTv7lz7YN6sjcefc3zqa1abZyoxvmHcwkQ8QZuf3lGU7Bt/oiOEt5nRFckrMWyGEnsaz5q560zyHR5PPWLAAlcHVQsg/e8zAbSLKdHIZvyFV/Eye6lM/NbzS6Mbl9N3ED/pEoH9Fq92w+uu3PizgnQGe64rd2NfTmhkNf4xJ0po7dCmMgsnnHF0NTwbYOUcKMvHwNaF+HrI1y/cZGf1CqBHv2QKYNrm1BInA5QYO79RbuzjMQKDT2h6st0U7PO+bloIOoHt5lFy+5vmKpTV9Y5/nw/Kyr6a7S70cUfdOEBq/PY8Y3BaPmslqCwx71+jIYtQZ9ugsm4ZS5xK7c0gGVexhM23eYiDl/TfFfLx4Vq9t/c1VXKIYHolC3vdApBoC8xDx3pE1AwyybbNv63QOqHjSgQJ0eXewYEmBgUajP6uSvmXg+edq/cHKDkaowXb2dVHKfQz/ejGPzPS3Xnso2GBAUFq9BfzmdGqoUPNfIHi4iqyWkPyeKPdHT+YmIKXtWaZ9YVqnLOwBJ9gRWj3DJjM56GEjwJeuXR4v+niNcw4HswHcZ12zePJ9DHnOD0AmdBFUiPmlJdyptHoY6BLQaqu2NLE6+HkJAA2qV75QoxfHtRsXJbPw1pJB9qxCdRHKhvGxE0UQC4c265Z7VqdlGqxhMA2B5/IMw82ISY6PrXcgjwfhBVqGAV4hmuD39vuk/OLr7WsVaIfJDYwOM+No23fZafzx7v1l+mIR2r0gH/lYNrDBNNJD52ZVwuYl89wVyeSjR36mY+J/Sv7I/R+8v+j/aLUCfQmLF8qIR5NAyCNVxqipfQAKzyq5q0l0vdLp5WudZpkiGmjWXp+VYWCpZL1Mft9iozlQP7miDiZcYwlGta48a6kv0Zc6GQnIWms7G4DRjrL07Z58gtgzUvqoRF32QY1IjyP+JNgUl/+IjtzfIoiR9PEvUCM5Jqw8FcYeHeFiTFMrF8rzOEqpVS1BDIk+oCRd+4q+GB0kCzuf45zIydZ4x75b27CFKcyMpPx7bn5vQYxXThM3Ymb0+54SSh8TV1I9nP+ly1Ymw1eOrdMD5CzY7P4dF52cw0gsGA/InYEmhiqoZ989ZQccQNEaxFTdZXeisWJbGObxetgv0qbu9VdkuHJMpjQEVp/qzXd2/GhM1tNqGF6KLbBTP2ra6r/ES6nmtFbL7Qsw4HNScPYDf6rX4h4XU38q50e2pHKexemwvweqaEMbWLxnfiyWCdNvAjNaenOCD4ilHqWyYuHmoPfOsJFcZdtlIdYLoyZ0eYCAmTfV2yR6C5GSS75kXDEMRch3xGfYNX/qEWGdW8HRTbBTJMFRih2VBkocstGdG4v9Te4ZNbZmz2hIolY7/fk7qUlhfi5C/sonbu0SqynLL+iZCb/OOcc83gPmRbz8QESWLcENafRG9X6Hg1fYrZrJA0e5jNwhOVeykc0pfnI3ZKMQZUrbznKZ49ReAoMw8iDpCTktN9o1l0vshIyCby/V1QFYpjV6dij5XzXFHJxa0MZ6EzqtqyFTc0VP+m4+L+e0tjDUGoW4cVnIX5yiIQZZ9cniwysDxBXCaRP7Z/6p7sNxwP5YNupYimi5BDZn14tyEHWuYLfg4MMUdL/lBw9vc/J2AToHopqnSQGZJUSsvdixU0rXC8NrRStKME1Ras8+x2Vj8EJ+vJ6DLaDP8gqLAIrAi+svlrIZCjwTj7jYiRblwVVcgJuanKJLwGFe4h08o9rItNOwu1qYMW440cA+eO0iTOfTXsS/+K1qTpON3hbECrh3MZ9x9mcvP4E73kNGH2g7iZZce+2Ksr0DrwMrhx6vh0m8iibXR5DesHGWBb+uc1sAA5jCMZLaZ2xsjsl57F4j5KDG8YhQMZje8TFoKx0DYJ1NTz51deqVNba3qcd1r8FaPNwRg0gQhRF8ABfMEmB4yuxIO2D2oszIVV8toSm3HQofN8GiNaguGlxrC1iK3T276bn3lNizwMeplrjrlXShLPqMDBhc3X0dFt9vGs9ScT0z9Tl92sUkofadZP1vljUktRG9uhZsAOGEVTC2FNVaZWdtTQp0SyUd4aLUxvaIwr5WwErdqhWfALcEwtsEkvUY7lBjR/vLpGG+wQjCa7r3dMmB5BHcA9LNhQWgSrzyoYAo+AQ+UtPMoboZAyT1B8RosklcS4O+xubzHmrQ83xLh+kTw9xrW2W2XPUF8UrSX32jy6C4MWOpyX16QLwEyt5Uhwx457nje5U8zmmiRCAR/2Nam9TyFKSABjskWNJ72BzZmImXsKS0DyCLzut6Gl/9oh9VWh7CgnwwAfo7Uj0dUc/85UhhhlqFKIT21ESRMBycaf8vCtGHRdZvf3TDKDxBRSKat+jn4/a8rNKn8aqBVo6gLrj7IvP83jcmcfdbsxFrVvXxCrhaGMvOR6g5R+SeROEnQTlTZiPnvE+oWndGrm91JaSQD88kHUog7ZgQLvNeQoW50dUsSwDp3cr3dqO7eJqeShwTvprY8NCmG9mx0DKy4Q66FpM0xIcA0gAkMjy76OyBBZUUHyOG9V4iWnXiRRPRwRkie0oIXUqVCpPLe8/u65dhsoT+6BngCxfN7oaVFgw+vk+ZXrTf/je0m2bJkcEBTZR/89EK7x8Bh6+xsjMu0EkumNkKm7k9uXSgRCCdHAMYifgP8N2VWIG/N09fZcnO1dFxrV8dr2lgD9TB8kYl7MzWwyywyxNvUi4emo/mCbIxxeRzGdFQ9i1O3xqAaFU1m9kkwvdvJ/2B3KosAFbWqMo/08SyAAZ1pzEbYu8rDKDZc9G7od4tcgoUMV/5LSfckoFMcq5HaDwSNBR88ah5PP2sr2+UkBsDaCEC5Tm5zxapCuI8rB6ZwbqNNjQCJDWMIOf2i9sW/evfkEQYANGQ0W+wGXyr7lVScED3AeRrD3+aeSwRMk6Aty/vuZY05wk1nKkSHYDfK35KMu4kawNFrSH2N02W00CbXyP0nOHPAfHFapL1bIWhAthsMgFgMrYALO9T7CV0RDGugjGAXMnad4KJg71FlNlZ7q3TqPF1lN+1dPiYsi1ADc0wW4F5h6zdIymDknRRb+XffgtidTC3OODbEvCUjm2uWDCoxAbz8KeTVGeDzDnyypJKPDEYjES7m2o9B+SaG3/vmV5MK3KF5hEeexX8QPaMxvS8Qg5qquJh63XKKBRMalFOvm07h01Ecp16TD+5ZB+mbM5UopXGnXjjxKJgcVKv1b/YI1TB487QQ1KYFen+yLY8hO8lvNfGmiAfpg7ZOT5hY1V9ia9AFbGn4nO0bqnVHC7BgRmek+HD6GfkN6ywNFH8vYcSFSMMX827EgBimmN6i8Bm+2FJUdcemdpjVS9IzbyIvMZl22jHwD9Y2+SO+ctb9YNv8qVj+Z7x8fC1ryezSLryEwV749+yaSxOF3Nfo9sQP9Bg/QkmDZMhGnRiujufzQG3WmX/tL0t2lZpxlttxdiboBDKDQRwsgYyjvEZ5f1/nBzSRDCQs0qxDgAfD0WctxjgUn9U+L1sAXWufqdsEeYPR9im2AjXRKcKACXjO9nhF+9ZHsnHzL2MPtJw2YBeBWRuIBLEZQ/yNYz02cW4By+7zD9zND6b6Qc04q8ltfU7vUM9af8F6BmSnEPGPzgLpOuh8Os6Ozu+ymcemY8qdN973Houc82Qmqw/m+7iSoSYdK2m1v3nfxJts6glmuzRzhQAKD3Kn+dUK7DfbXVp030r6vgcfl5S57dHKJ8omEA6HoLZbGRF73F0TXdzN/4srayllWO56X8KEyeXVDZ969kzBCL8KCpBFh6amDLbGgawA0/2VMS8x2rD1w44NbHYya2BIaILHP6gNu9uTkxK1wgOgeVDl0IvXKKa0PL4PjfOxifDhI9wJKxTLIfgDTW+HdDjVQ2va2YQl9vzRmpKOyRjWZAFUg4xZLV1FGo8WMpgKBaprhUTqzR1/WlU949CebmkidZJ2fWm1M6CgaRMkjWJcuSvSbZmN12pN0kVh5b9IKp/WRGwRtROX5J7zrY7O6MtrD6BBgSgGez3hudpEtSrnY6P8MUEWaYkhe1UsXF1eI0Ims5w/Bt4fdG9aetRN5YAYml5qg+Ng6falFH3aFOD4/rqbOv0D8YhK0FrcsctrtrJ8nYvBRCRGEsJ/I36vhUJJ3EYyJjMiY7cAwvxF51tN69RodRnb8dNDPpg4X/wrCx4WmpgLh9PWhtVK9SR/GTHbtflkHXQydlXzkTi221720xw/YKatQBUwuqndKTRpNEw/IZkCz1g0ZAuNTXBpF63nwiuRw8nNY21lYKZl8bDFsjFcod34K0sAf0NvE+hCIrcY65tVYQM9xYfIOw0+g8zS+vf3bo3MyzkHvGxEAuyZLUmYYqEL5kkeZVyWuNhC3eREsDqh5MQpCDjJKAleHg4x+iSZ/LDVLO+7PFPHjIO4lvyr1qjEJAVKvkCnaSt8z4OKW7bmHjxZMkQu5khJQ70Onz9xN33F12uI8KSq8AaVzqKf8efekx89DkdIuacxlLJUJvPeUYeIWNFaHEmXT0RFQEASlYE8OZey2ESXOkTDirsj9Gt6pdBh00vFu7PLdAhsy+FshDdB+EFLS+b9bC3W25/rOc1brm3H061JLkfGdOPseDz+T1fY8NudvVg6bvwsyb0jp0vBGd06Wpaw9nIJc0m+KqyMaFciLsB4SLK7yOTzNW/LFmugFn0I4tJCQxZg0T68O4Yq7i4yAP2iMzD0bvL896TV8yAe5vZrmz2FIzqFTeNX2ELTZc6ex2hynS8dLXI3uw6tkW2rnk4Ou0qqlZlA89+I+CHnwvuRUq7CBeT/xrVMfadg4z81ULQM6g0f1RqJvsFhnfy/wEzRHP8ceYZkbmEbLQDnY3ultWIpmqaiW39ozRazkkR0pk8vhnwgxEUXy8/LDEZEZF6gXlJrZoJCosuKbyqG8CgqPU1pWLx3InVfR7VLx7RSW0Y3Y9wZ07w73zdYymaFyTTF9ViNQRKYJEfWXe3Rqc4Ug9+E4w6U/6t2B4P+8SdYPG1UTLnmK+aeq1tv84geOyhd+AZjJsCZ0X37lXuurLdc96J0SM9KWIiQ5e7LtQMUGktZ7lkSUdCly+2Gth9Aq4bPVcc8rsDRCFfRJ5IcWE5pbv/2SjyWxWU/QbzQ3MLmAwuJvA4RDOgNCF41+7miK4BLQBpX5J68Mm/HukPeRC4fF8+kDabvphu9P6WEYjzHV4fi/VyDGVl2oo0KG5XxcSpjfJ2ZUQuDizXN7ppcWZev8E3pjSiAfHnYt7OlStWXqjSYAxTDJsk8LU9ByOAjPDMH7VZUeK5Qy4bbmVSP/hGAZBtNiWgbh9jCWkV/f5b7Cv54wEp0DzkBFN4ImqGga500J0Qi8X5oD1GqjSAnJnuxOQMOygSEakNiNaAkizTSXsDBdz3bBpyMqzufVjhFXHYqCoFRro1D29eXVj/f7IVZVcS531Lnq07a+tmQTpioo2uLRyLxOJhsVyvL1yzbwQzkiTpmpRlQSnEg9G6sofA6ya0NQbNfukIIVyHVCvPZ/Q0LR7QMuXSNzGP1PgSulEKnvsdX075s4gwdHK8kGznHhq3gtxVuOi3UzVYV7ckGWCEruE29Z47cQX50IHqFy/0o2epaMecInDXLSIlkb7qroxRZ889dum1H3LXjHazQyDydmrADqrwl+yojOmnasMIBLcSZ/DKpljlhxdZ0HF2GjKxj2S64BIeCv0AbkcekFv1VowgLasOS/YKBx8qJDvEOMqmXXhz9uZFnke+WVYOfPvtL//8xeOUM1Ylxe66KDS7HsFCOdhUFyiYvlXvTt18hpVXxEauuSxtH6hafTYNle0lCB6eWaaytGouMuMLosx2ly4RqLB5S9B9ZNaiqukle1SY9W6V/onCWtLgmMVipRNlYQhrsV5k6tep4ziksT6qzdMZpw6kzHOqe3Qb5KR16RAdKs1FzksPqYaOZCdXfBkI9FWiHzmOecoHyQukN2SdwnUDoxRQRVTEL2IxmOtZtKoX1aitCOM1jde47Sq6Vx+0LXRAofooTqJE7BjwW0mQZWz6t0Yvh3ZAvEwKAQN0FEL53+aYfQuWhlTIuNz5ND0sPD4Tph+xgBQ8cuiqSIXtV8OvwRx7LPHv2CzWVNZI+N77z2ZiZE+exfqeSt4DTRscUSzWRODbAJRBjlg5Z4LF4xq4ETqG38ULdtzUsVhvNr9Cd30GSHz7rMjePfN6LxUMvfKlSKLq1uWSUj1en5DhgXP9Hsd+hQu7qEDvrd5ZmZfAKzr7tERoLylh4yyZu8hKU1siyqr8lO5UzD9HXwXWC/q3QktW2sNhwbkB53o9RqK1WZMnHMhfP3wR/2lkDGBtTiZycGwp2oUjApB3RLEswPY+1sBS49dTvNLMP67D16tf6fDrfYhfIUyAFzeFqHibbhY40dPXBHawjtep/Z+vS8Vj8raCQbJrRFJlm6WqFKV41p0giTnC9Wow+aGGgEbQEgpRn0+dbCtqfRDdHs7mbcd/aJISZADVcpraKgbzQWpm0lZazw9ievV1/Vr4RoRtxPsZUzRvucrS0qoTi3wESq/E/JFMmez/hYT6TsiZ/yDmSgIOb20T8owv2UTBsqFYV0hbfZhkrBg1yT+TgLK/qBAB/hl1gS4Ga+5uPHXObOXr5M5sCczgvcEW0IadDzkCm6g8BB6EDsO4Xpakvt6GyaeckUMBhijpjb0pWBvAhSOF5wS09ooc3fODscDU9y3jfagC2KxF8PEryDgrW5pI8lk5Q2GfO5injgoJAq7inwQM3SRWuh67hwE1obAMPBlnrBP+Je+LJKnAB6TAlPJuWD28sjx36cYQ8Vl3qssjKJcSiFAhoSgt95jM5p+Rr3hWBXlK7QW4Vsc46vNVv0r0vVDVq1RnqX8BuHlXQNGODsBCNLsOdlAqr5H31IAkmlE+fyAcL9TeYE2fujO0Ulw+fYwv1kso8Q7heZ+BECQtVcOrWRqz333Ytf3Jbn3uCoPmchKb6RpWEaZ5Se0TIDPXt2fnSiaQcFUcSXUyF770YoOSJJrGRvlvbbW7uqMzRdjgBfjQPt/XGoXS/pzfqz2fmiqK9LmGcUqtQPrDTQPHxF6lDhJelWQDzmZo5OVCCg6hpxHecnL0KKSHf4LjeTLNtlBWcn+CIe8vsfxJSNDIKcVgoBUBksaZm4gmBHAdmsk9ia9jrWDJQuAi7FiKMg7EooUZKEWEYn8uDJHohibUNaoF1aWxt54dGeheO84mTaHNG+Ofl5Ug6hVCFD6ye2mjbivez18bSatOi8/om7yYNn7LS2ajLLXdI5vrzU3amRH66/ha8uF0UP+Z2FEXeD6hoBLygWxlMaxgfGtlyE1Z7YZKETuODRp+/XCoTVoJ/KiCLhey8QDpFyi9kzcs3BIQ/RAXfy3dPYyCRR1zvIj8TZMuuGp7mNxzR3wujChMLWO7SKfKEY88RqmnKyUoADcnKtEEaRB2mMLlvag/n7Otw14LM6GhQJedlzNaVHOW6JTqQRve8WWPQ9jCyJ8Sxa85kNREijVHfZX8AJUtxOMlQvh7E3pHY1iRk6QknOSHmgU8dJIAN7OmDXWXXICWxSnuWB56+upWvd7Hus4sQI2wWRN2Aty8ZO99CUv0V1HXrHY7IHQuKWHQnIMGXfpTGdjsDAtcDrFG0q166DwtRjp4XDQCd8eoIi2rXBrg4Q4ZhoNInHujE7mGMQ1+7M+ic2NHAN/dG2k1Oy0c88839OJjjIQfKLSp/dI06f8ybWVWjFSGAbkAcQaKG/jtR+i3kaNE/CSMH+9jltFkyQ2nOpohxYpF2tZE1hlOS7BAn9yFVUgQh/DxYEKMnZ31T/mN9u1c7zI7oLm6JBOfuHk9SOymr0Cta4XT+zSXDCBMvl1Qml8eGS7WeA4hkwq7OTzLe3IGaZ2l53hoBGX8GNFLDVPg2zPU/Jto7V9MNJW7oXXorPwsqTDu1SJSkmsvED7VxmJwD2E/wyz6DBal+ZX0fqDJz3qg53LraB5BfIdZilZF3Hl1IgZiVc9ADq6w3V4KFdUAB7oFDLQCLwnIJ6vQHYvZkwHKTkNXQI9+6rJTeW5fqeQ6gItscgj613wXo82DZUJ6zFKevdB1YQVYEe6kamI5NLW4rVaB1NVlgfQaRz3qD/vbW3TDMabr3cYJUmNvHMjyUuMyXi4416AOpi0T8NlOLOYecWstO3csrQTjKM2EZERIYHRcebeAifZ2OOJ7vovkj12dIYtUzOB1x7ywk9M9ufgEjkSIFRvwxO1+tn4cAw9PDug3ixMQnTpZFmQG9SwSHQa86nUPn/JrHtUQgL9t9vmTmkRhw5o+Y4Z3LXCygNhHiaTx3kNeKEoL5gvnS4XgLHQ/gY5s/Df9uQWbZZLWURXbPQI/WG3xMBUy7r42TAfTQAkKWVGgwq8yRtC3f6PFtOQwra5W2pye1AB+6/SS58DN86MFdfwKdjfH4f7FD6S92Lepcgv3FLZHY6LvFBA3sElcvVTKCCeRxSmqzlx9Gep+GP6FWObguULWNicMOr88FruawKEpOSpzpIhQw8pjH9rgSLsfd36PM8g3HlTP+V0YO0cJYlHHrTbWRwmrKYNDJA5Paeqa4VoBD4tbs7fCRSIuh/9aNp8HXmg46ab5xyTahSDmr7WL1pnOsacDHasbotKq9E5TO6V0L7AJXAxd5Fb8neUoRisotXNiIK6vUiupyqqnaQxjnksUfmwmTi5pEp9dwj+7PQbIyWxlmXMNr0sabBH2AJtuXMmyBZJ/hMOtm4JyYetuouuR6CeRRvilOxwvmY1oxS1H5HdP+pjoZyvS9O23YRwVmSAUqYweWxeajj9TKPpJCk7FBfpe6rxYr+AAuTDonH+TNZF4c2XLcMzXdodeP8rkPJ2dWyblBt2F+YHEJSCJlGRsWfUkxhhNuJrjKM1C5tIINNFVBOiUyBuZ1Q0kDTRsmHIgna+ZzxGyygqxAp4/3UTGhtZp/cSsrpB0hnQqWpYo4+S0P2SUkj+5vJxovrYUaY4Pc8S+pbRPIBQ4bNdLiZeEGZ/P7dykTj0cW44axlxAMXOWKQZNjdktacigII1mj+/SV5NmpZHv6QN0w3EYhHLjGvwVsro9WUGtd7lGa86rUNAW0vQ/FX/di7YDJCqhY4oF5LlvgXvy82DpzR5uaWAm5IUy0rsUgDotQfDh+YNSY+2LvJaVzpBXFZgp4+owqfaH5HIYg2eBqbzL4Kb7BeMvT/oqfB/tYeQDFPoMtwwAk98BjAl6l+VnFEYI9IStYLfuZdb8dav/0uzZYvQLQ88M4+L8BixWVu14OkoV7GnOyWt1+tWoIZBPDRDvk0yS3p7/tdItp97pJMpW686d6VHzfkwUQ/mtGXBYIFDGbyZ7Aq66usmBu2yC0DvwfT2R2WjExFh5VY3X7Es1kC0mMtjnBB0A3LRscCiuSgW0wrnJer5G46/2fbiANuM71B4/Ee6Vak0whVCS/0q9RPbAeDxvrWHHK9212YVzcdDgrbLkPvbTuArjW5WENOR7mR0yn2Z6lPo1prF/1Z0RrNgQeI6da6/BK8AZmJIU/S/IyB6l9WbmF2azqyJJzYaJS9Wc8K597eyCUGOLcOp1thp73y61VqeL6HWwa3k8UVT33Y1lzt+iiwDx9jat5qr8fXgqrc42DnI0l/w1BjXqS7SP0wX488UOHbtURrLcF4Isy/H4aIO3pAO0dbC81aIOPGGZUQlrYocJd8YriHE1zmbnbhGq9h+xNLbrT++V9eQOjknFJSazVkXiQUKbLBMJR5PxskBR8iFJiL2ZYHhxchABwtFGwIMt1pm7xaQSFeKF6JPpCSmu6J7TCy8okF8WnB4vdQVHU/UuVlYFYr9+4ZCYIJczfBlKvjfzYHv5M9Da5pa4G8cW0SSTrMnsGtn6uaEiQ77siQ6LiwjroR3J0jmJ4d8yAtJa2jkTbpkk6bSu79x7zRfqWfrF154862tcw4WP1zqQnGXAmU44GYALzayasR58FbmLFLoGkR+2peiia3p+l0nuCPlYq5E2zdP8gWoGdGqUDQR+msCiqpanr4PWbvanLuu/5PItp1fDmEHeejYU1qZvIS7HJP8cLxA4siGuyjuysyiwxMpgKvr0ZoQjqrW8SoFBb8MlFYzvzXtmxVFEMs4oC2uXC/s60YxtkE8VuD/EDqQ3EWlWh3s1fT6BK0jMN3PSbnNgljvInOpneQASSjbR0UpKMJ7Y26vdcGkrFZ+u+Tz3Prre1glegJJXaIJN35xu8fm472diZFPveVbVwCHK4f85Rp6WGChBfOCxcR7M5TQsbk+Ui676TJJC+AJXEjmVmccdv3lK2zHK4i9fK8M0zl8FIRCzS2+ZdGMdhEDMKMJ158D4dgB37ReYiJDNQ1Smk7hRCYd1YRhWyaFGDTklgsiKFMxuW8BSwe1tg6dXnlkJTzLal9xKY8ztmBAqujaOxPg8BbzjhsHLG44dzxo0T6GzhfuwE2wO0M1T5JlOcRF6zfuQ1xK/D9sfGvjuMEERDgz79FzU3HoeJi6AcOgUPYT7loG0XSsnUlEKtEG28pOta0rCHaMvOZ4AlNDFcUp+yL6R6P90Cqr6xVcTh6yAZropA5LWe6ig4i0pR6ulpSK+sR7Ur10H7tYEdlhK7w42tdSK3RSL0dfLmMo5zPPx4YG+11a0S9PofEGTF232MBIrAYn5+ShUfLhrWqVjHW0UB7OCAnBNfPOcajiOLL9nmw5cgiZX2kL5u878B0pNTAR9eOrCAPMPFx3bhmCcGa65Ap4t7QJ3bYsW4WH4X6P+NrAHWkSZO3RyiygHqONMTDVofgI2fSe+Kb6px/2ADTeZzCy/iLIEJqAobZKqNV7F8Ky6UYpaBOWs1ULRH6v04AnHiwJ3Hk18TMVNv2fqbbwkGraeuR+BlInMzbFFH27C/cp9Hta8M4Aun/IaM8gwaTiX0bWZSpbRQtT4KU05B8q7cPJwtV0V+ukd+ph5ikUw21e16rsGwDYSRi/XDwF/QzUSEd2TgzTis19L81ci8nIfTKcvkQfg+0W+P72bTDjrjpq44P/MrMK/S4d1WJJdYm/SJkqawGzwM/tJxnk8C1kS9tRR98kKxwBaYi8SfGeSxV87+dLia3toAjZlqfIqd/DBTtWSiE2jacXs28RdiQ9ss0AKfIc4w5Q1NL1/Yx/E9kEj1p2hYO1rtDTMRpgmn/NFf1iSw4I5vJtVyUjozxmRjyF/Kr4OqtA6ktMJ7Krhq897/Z502NzQFjODqYTDWCeHNtgoEmHQHJXz3uSWHPEIjpltR6xg0ZL1PoZem1Lzgr/tpR9pGgXQHGfFTGoIj3nLPixMPUTDZms/8NRzSC19++rM0vm1R3mBG3bxkPs+uUbW+6Pl8r54hahAXv/JkqWfU8nfto3qRVju/mZztbe2ruWsNbaRohj/ZWrauf4MIxZPS0GDh8OrGjd8LQVbUQX48O8Rb/yTqBdygR/5PFzpAap258UIoWS12pror+fMbyLLXURApytyCtUwxt0UQmQ7hDmd7bQI9gT+3cPdo4Xj3Jx7MVvhOyEre1IC460oLG4nGYcwPpyu1uvtKavSuYG+uV+BLeyXNoLw5t8N2ycl98UWN7UxwgSH0xLmbWi6vzTcg0YIRNkaG51+pIIZdBpB39hWTzQfVkz53+5bzPfWFD2mGA59+YpgIZS3TvKWj4pqGs9uHbj8fXOmIJKaOmeniza/TSpYtqqvP7jAJR4ezXuqiC/tKghjECie88UJHLpqmJr+VuxRIEV+JaQYAsUNBPAl+YxSyvzhVv6oe9BuLvxhJ8Va3eNUwAlgOBcnmZ50dVEjPVTsq7wDjcvRy1RH0U/s4K8/+TDDDKaM8Lq4CWDFVwgXYCk84A9Ea5UFCm02k5XSNNbwTeQYB5RALPG1ZmiZJLWL78VMVzEC14Co5MW8ZT4qhYOL4Z/RWBF/SedlOibAVBOulJ76SGQqlOVmMbAQmI+b8VzO5BqEBYxMQSk1mbyjFGTMthhJXOuOUPKABaArpBaYcLeZlnbQ0V22x+JL4EBEf+Z6LSQhLRNy52o3wz4Bm0KpqGZx4zI8ax8mZKHGvpkEwKfTnc+l5qMI+xnE95kJZh80KOw6rd3/ry+udAvIjpEhRwRrJN5TC9kAMZcQImkfXpdhLKzxHwYTgypNplCJqHTEymNcnBpr6JPejJmUvu02W3ci8Epj6udvquqP7KhjW6ekbkJpD9Ky8uArmD3n/jDTuwJ1XSpp/Q9gHEpBlFEjHidS4ixrvbR0yX/U6EUsyjFYb1JrjK6NupN/HP/t9d4G5R8W08kkr5AqosN2CmJLm6ukRGvIhAIchJO+QE21A4H6cmDnHGoDlz8KgLI3l0WbjXlQm7G9wk6o8OSBKSjgs4Z1GH/3Atpo2KrKvkPEjrabNBAEOQNY2oEi3qKpLUpwdqs0bDF/CUntwSUYsnlfM0Eto9Myv4R7AbL8qNOHAs2P/TkDmIRFOvB/CtmN5Q1ZGWwTqX6gfEYrCfZT3Q09zRF0WMCjYR3h9VAAO4HvhmRwYUUxLVe0c2np0zHxv251I+eIAgoraES+TCAD3z1UI44onKvb1O1AFiRch4XB6NsFpvvGt+a876uTgk0VJBKesxVEFarT+Wb6DnNtxsFmezszHfXwM9ptU4D+R58OA5XXailXXl8RARYFPtebS8Y2IGH6+yKkHp55q4KOrqAYvbMXEP/zi8tVyeua751jZZbowK7ihiUznA9kKuGtPoPxxx/0Yztojhe99ObhKWFQEUEnMMqllm4bCywN4NjSiVKbfUtzDxqMmCJYvhfWyOl0QQ3KSiFDL9W4RbzI6fO62x+w/7+vJsNXhqzeKR2ylFOYAFf726o1XjJiNF+VsYykqx717uJk4p7pj5xff1mM4jniW2DsgS2i4kx/rDS0j3PE5CP/SaHCWV7arGTeVj6gCLxGoDdTRSGrwNBSnvwkNLWgBeGlWOlSd+9tgJuo/34p+2Ciovq6PhSwm/bDwYwXOPr/5UFbXzTnq+Hzw3VIrFSJNugfjSZlgdCCMeHqa6q4unHQKlMwDsi94R25COOByTIZw0rd/1Hf1FNh/NSJ19PjYFCHkZVahrABMuPBp291PRsZt7gIbPafZyMpi/0Bns3XtuFI5XbcEza3KnkbcUFxhvOLXax0OST6nwm0ydjh4ikMme0FVX83puxZ4OLm35fxRcNz8a8Lnzu11D+M1vx3s/tk2g1YglZLCT3eryi7SD0yLwHGrNwAMHH3r+u1PHCI7HGssOuXMs7vv+S0J911gM7hneJCF3PNdGUTCLnVjSusS48CZEujuSE7juTaXMCYkT1FJGTY6oi7jmFIOy1KXU177sc/G65c9G5NkdDa8+S4me9PWMoBuIbhL47IBFkBE5B3FuHwooyXms8LnbDN7vaJKmE8+yK4/XGocNRhcwa5jU9Tl3kpFwpkL+v9cyuh6MoEhZyjNYLMktvRqwf0jVvPv8ZV1wlNVAPqrpUecd6/K98vqiwMDt9xs32mk/tHHjBGBTPd/057GdxgfHYb/f6oCFo50DOyfJ7gpSRp9WVVNfE9BJ7yhGcU12tPpNCUaWKPL/42wrHZeI122cCcaPpOGOnZH7AVhQ1lnaPa63bqaQlIr8T7a9l4wOIKVhK9VcIYBFc8KI+VPhg/lYBEaXcBvYVp2twWFL/nEpgVo9sT/jT0jbkDDDZCZsdTwXH+oMVYTZOjyDgh8ktQ6ZybEtRbnCrYEazNCHiYlbyqUrQXZbuuy1vbrTLRWlT3DIxEvO+znMr2XGIJZv4U44aYBN6mGcbXZ0rFEJQ8AMX7gtnRMoyD+AGhdla0Oj+45HeRQL/6YjeGfxOnDoQ2RLSwpmiB9YIePhuk01lRTdrIZYkbtHa0b0YGX4DotsDvkzKqXet/7WaCNHZFAIKZ8mVND09C6KjVrI6bnzuJ0i+Wgqh1zi6t7l6h5G5VD64hx4NTxJausSzS62lMLXzduSpXlLAvaCSJkdYehp2R4qPhk7pfM053m+uTb4Mq0alEGGrwkCHHoQamnJ6hClK8OhUax5ngXFgnzJprF3fTdBnCRQFH9p82CTOUMON9DG2qOWM6Fck41ndSvR3D4EZOWmquX59RXR0rrSD3UidAdsuH9qed2rpBiKI62KN+Rv1GjxffEC+/2SLs52GznTAcdaipsWpRUgY6EVpPlqlOWzAhCtsMXbKN2dF5pUNI5nAJTl0mwPW78Dmhv05q/EudQ/W2nInoYuf/gQg+3SDr4TmyobIXnOkgSVbzZA8mrpLc6CxPbe8xG7QXVvfQ9ICDHXmnlYmzsgjjSL4CYZ+C0KYrpPKCj73S+JscNCvPGNYXCZqyulPFFsX/Xp+N62O06ABAkH+oNGhGg1eS5JdPAoqlNXog2dsKKwQAccxCOQGE6/5DKV2rtS87+JW5Gc6RvCWEB07IslH/HhXxCRnCj6N+dz8tM/ma3TbgCburoiC55oepOaV/Rmsf2wbpG8iUGomyOzSMoZF8URY54rzGcAAbab9VSAcjBxM++/WQpeB1dHEWqFE27xiA8fp840DEEURpuGgFRCcMQhCFDB9U9PNv/TZ2E/AXuP5rZZnCxeOEZVFn9S5vPiz2jVsiPhFe87/CLX3Tbc+cRBb6dGUPpSGM0DY167WmZ5+2kLSMrX3EKAhwGkFD+fECRMnWNFgZ1KDqKXLK1m2/NcRHUxxkozGVBuYHFSN4NYSaxoCEHN/KXtJop5Z7n931Ecc2ZSnKcaNLtYjdVkJaHHT7R+sj+MT1iYa9I63BmhaR247ZFng9gywrZFSq6gsPkjhE0WEaX5ofjM4F7/3CGDvRV1RnlsJKHZKTEbQep4XHZ2k0QEQCLdXqbls1o7zs/LJWB8gbMLDtxMDpU6FsLzurgB5MJR1nJUDMU3Oyozm9U5nHZ/QYVg7uQYX7qmWpzYNc+NpMk/C5HhiYDjyuwlQRjj/8wQs2cOBouo5K/9qMqYzfjOqcCWUTDZxtDB/VLEviMksb6gsePIvEDkyC+5TT95FL7hc3LH739r6/2RgvU9qDE2Zs43UfRjypNE62ClhzLYo46sjHF1wWyBApzF7WvSWvYHkQgiUDolAt45XqtN61gTi9NF/ehqL1+FMZ2W9TU1dWafgbe4AzRWjIB7cPDl9tclybtGrGshBI3nfwYM0OGPB6LTn4Eh/DUaClCXJvHGIlSGYY1mJ40HkRHq76EZIFn6vH+u5o+WxjvWe8dUXM8bFTkveRKGGJxPR3i8Y8Re9hqcLgcv26zSwhe1c9Aic16xj5H4eWONZbra9JfPh0lKqiLcJuvBV9MNykhw8uyCXgxsxjBkAFemRyoUDzPwMDpFyG8tu3Pwg5vT1iiUAlybhdlQQOrx3/48in+nRo13mrlXD8bIz9lYhX/8DF1kh9Sy67ZIYIbwuMaRYOt3mfxd4M/rHKtHNXBPyOw49qeFrUAHxHJFUU+BsSI/RvSBRE+jvP2QjLTq5dtsY/sux5FYd1ijl2HDVRSY8v+d2fohUoIQOQaD4OYHmK7WWVIYo6Mu0z/Uvol00AOvlzednRE7p//eDk3l/vfqZPNk4DWU/7M2IqZIMhgIMVGt+eKibKUJPB571E/hnLeZmy+59dZTFtPN4X0rtGyIZN5/MHpkOvzB6/GnvZQnD41xaKzqASrCppq4eumQX1yePkByV1rkpIv36plHboFJg9TUsx55PBd5hKuFlf4w9hhxLv9+kbDj2FI0YeGIIPH4bJ3ilRz+OXSEPr8unKPKPAggaufm0vIphD4seVF/TIT7k38cW0CRTTR11ZXOGEw81XRXEj9DJLsCFN+doeAMRSG0mpnOusFfGJ+JvI+kQ1vaiGxsYI75E7AupkUDJw6giCNnKtd+x0eP0kRu6SmBw742VaKn6x4NcqpWHctGhm2uxJ/JLz98MfoIbStlBR7a3ryG4spyrFCWDT4MNugHr6C38Ie4j/Q6tBzVwbO9guonQNTPY5Bpy7zhXO6rOtC2mg3vi1hv7CtC5i4n8qDT/MwWHUtmLcmkw4njw96jyeAaA1tnt78zWWX8HZmbo4zzjGbIvHI9nW481j3vyaenbTr8qmdaQaxuyKaXhwNfXR75vmSlC0LltS9kznJLKo//h6NItSMrIYRY2BVMWrxEGd4G8uDAmnaj8dCa7tfB796PKAKd0SO9Q7FoLNJ3jnQhnvdVFyzosla3JBS3NSxHWjOhvltRAl7eOV0+aNyjlF6Stt1qmHMsaKOO2taqseHQvUq8Is3WCQgs0RUGLcq4ndMMnDKiTB6+Y71IA0OFSJTInb1ICdn4cdrAZ8gQunBwfVluKlcDyQvkokWwehTglRI7qlDOpFmzWKdYzouu6/iwnGyKXkKAFhyIpXAbpUCqymndn3bd1rffhw8m3gCq8n+Aqnh/b8JVw+VrrZiCOa/v1hRPp7BAN8FCj3wrFfQTtUBpRYZINRQMQlPYjBfzJq0ceKPcwMO3u1D8U4bSRrwyJccM6+Lu9cjos8xeBCEJLyp3DLSrW1LgMQH6/c5JVIG+Gy5icfJXXWdmeHar+U6zBpwA4LxsIHPKqafD6fsL16jg1FdSODJ/zjBIlhA0O9Jm/QFlckYdUX6Rk9rqqmdKBL+4GZRuEzElD4ChStIr7+ZIyrv0kug2jPJZqpwvVBW4FJ2W6GRSr7/71+q1h2giZMs3/LM/iu0wehK/x8POPPbMVyZRLLg5IGbygBUr44WpKP1FjoqHQxZ0TeZ2wS/gL3Fb+B0qFKUX7DRpHIZJuyIp1nkktAVeyTzhLeS8dirTljQaCFOcW/LtZLcTSmSFLnafR3LydP5FLnqkCnvPnMHlEYt/Ptb8BSrPi3iltE8DQx+jnfBOgjouQlJNJqosv6pU31lg+mQfsnSRuH+pCT3aqRCqJ24PFBHcIKEDAfkXvRxhi86xTT2WzeDOZpgHHK4Vh+YMrg7jseEpmUXln/NY+EX8Ak/PVQGwDAWs+bVohnPkrb39TX7zvAOpe4QhgavfOlcGymhSmnQaIZpAzoq/Pot041SE1Xn4FgN3KW5qaY0HODWFIrkvaT9mXCFCmO7U9XICFhBr9upQ0S0DQ2WPI8pfpvgZUeutTk6LfZKWLxp+RvG2TyFphyGZoWkllbUWfbxofBnp3wTIv0zK/jlEySQwdJU8xa1P4+4dO+bsCj8cJePAK3JZ6C2n9+7kd196Um3xapA5R2ooWUtOX7HgV5QCleLOzZxg0ZvNmQ4u04i65SJmux73y5JkXNzLiqT2IWdeIYYMpvkv6c4xdiJxerNk8TRswdu2kTkVo60At0KTwb+mgFDpZ0f6JZM30jBjQ8CSlExDA2ltAqyCfBgo0qw1fCd0FAHIAjGmlxmljge2jc7ye5FH4cGYTBWOT+DJrU5+FSSFykGs/jPUNpEWYMWxrFJ4ZTTgFjHz2wmF2s07t4vaqv9LCvrX8sW2CogMtyZmGJAvgGpxTiQlePwoh6+R24tWSvjLcnD9g7D9fKb/8htWgwCmnxdNp6loMlsVVaugv+RL8YbRr+IxemhRab/WZcuqJjZUD+cSS8DkfP/bhqtyBYs0+CF2uf29tfOp6DuZV0DsfefowxjpFoSRluMBB9b0gmCL9/fBXAX4LKpyQAJ1RtAB2MOx8HZwbDPpvw7TixOujPMAZ69KhAJhIAVO5JdmsF+ssOhcZ+KY1Zjq6Owi0M3Cl6CdnJsrYmW8EnbD/HLXzw1q4FcqwlJxHgZOMLt5WlZS0h7o70tc++CnWu604zqg2YLaU+1heRmHf2xSdgk3TvBhS0UrMRT5/Bg6vX2XWoVQjdTa96hE0A+CJeu/eiUTGagtQFJMm0HMIjrZ82gemvedivOpo5p3K5o4CGup4flk3lakk4At5yAMSfqeHOI2BH17I3gTiQyQE97YnW/g++qpUvFtfD9nB4A37mNrsUAaD2FmlbnatwNKDR9Xfao0SgSMQ5pqbTo/i6g80vxwjYMmzmYOC/NH9xgjBfZLYH9+9ToEZdvBRc0QkP9W/YrlPro5uqcLhxEGytJG/lG+0ieE8zFrQKiBjbJJGT06bF6U0QewrH6Fvq6C28TMcZOZMToqDd/E9e7f5Xn99c/WDhlt87rY/HAt0HTQolLsQn2YH9zL0I2OrxD51WbwQ/1xo6ezolYsw4+cELX88/Tjf2tNbz0iAzMpVu+zzXfbJoGNOTA1MK90aUUSYVxlfpSq+xFY/fGZONaXpFx78J7sIMibDMfavEKSAGBcVaLeFng/aI1nlKJRR+/9drlDW8R58/svjLG0m8rbyE99yE8e3KyWCo03sxC9vx4FsuZp5Lo/VgQCGJXi1xDNtWPibgY1AENNwUS56DmftpJDp9QKXO97IkmNdoFF5qpEXKIwP14+tQlVNHBBL5xFebVQg9xibiSbTiugK/oRIj9WhMfCRugUULFxvuAMZwxJ3yHn7f6yBykTm4P+iQmB/WFLBLrbstwYj/TBTo7523TZLIT07z4AtKNBceLo+c7tILbuM408VIo482sueryaG5akVW3IGckUpsl51DbOT9V34Z7RSIq0juL5OIZ9WnJ3/XLqMWZP8bZ5TJ1OFWpRynuFuFT8uX7aUxHtWO44DWu2WrvTG0bqlXvswLq3NcNmu0KwD7u/P1CGNGH4bHCkqblU4j/SiN4ZSf++O0cPD5MvfGouVxF5svTXeG6gE5StRXI43WEXw6piKHAmKGjXkumcthS3zCGhdqtgtEbpA6ezhOu3/xzllAM06CfPPq2O3tbjgh9/ibs5KeEEvPvCEqiYdajC7R5828Z3PLTeRkWHL7tvlC3z6qXEdMs1tYDoL3QliyaP7I6MK/CSkYB/+uHpDe4KGGjNpfm7+IezeyDW4mi2JUVCRgudplDQr+P+GN7ZP6zjaN/CFA6CV7XUe3CNKnnJhA70KLcS+rNeSps0eyxY1Cmy3TMLNJQrj1VNlWCp82tFXREASiv7Ch4Dzn2FtPEXyI4tcRUBiNZI8Al4zYHhKEnD8VMU4IA+0TfBoE5TKIworAB2k2p1WSnWeoHfFWedeRRLkIVfxeXW80V7fgbyOb0puPMxqsh22CL1EXPSStmSae3BMrQc2JOSnF33/X62UQrm6nxCPiT17q1flQC74AKbav1v0izEqp2Jt7jdnb6DvwdRk7l8Z5kpv6EA0meTmdt+JvrvEyhR10Zhkf2zu9hfj/j9QDDV0Bg6hNWzpUDxCyWpvHGENRkzjBVohS3VyHNdD+jDobyu9a7/gAWHketHQRRHoItjD72EsJlhup20dhhGHdGJwssRqvGQrrgxwQAAAAA=&quot;,&quot;width&quot;:&quot;2024&quot;,&quot;height&quot;:&quot;1033&quot;,&quot;x&quot;:0,&quot;y&quot;:0}" math="0" shadow="0">
      <root>
        <mxCell id="0" />
        <mxCell id="1" parent="0" />
        <mxCell id="S9oytCH6w2mCLMnaVK4n-74" value="" style="group" vertex="1" connectable="0" parent="1">
          <mxGeometry x="40" y="30" width="1930" height="1030" as="geometry" />
        </mxCell>
        <mxCell id="S9oytCH6w2mCLMnaVK4n-75" value="users" style="sketch=0;outlineConnect=0;gradientColor=none;fontColor=#545B64;strokeColor=none;fillColor=#879196;dashed=0;verticalLabelPosition=bottom;verticalAlign=top;align=center;html=1;fontSize=12;fontStyle=0;aspect=fixed;shape=mxgraph.aws4.illustration_users;pointerEvents=1" vertex="1" parent="S9oytCH6w2mCLMnaVK4n-74">
          <mxGeometry x="7.394636015325671" y="708.8683602771363" width="47.57505773672056" height="47.57505773672056" as="geometry" />
        </mxCell>
        <mxCell id="S9oytCH6w2mCLMnaVK4n-76" value="desktop" style="sketch=0;outlineConnect=0;gradientColor=none;fontColor=#545B64;strokeColor=none;fillColor=#879196;dashed=0;verticalLabelPosition=bottom;verticalAlign=top;align=center;html=1;fontSize=12;fontStyle=0;aspect=fixed;shape=mxgraph.aws4.illustration_desktop;pointerEvents=1" vertex="1" parent="S9oytCH6w2mCLMnaVK4n-74">
          <mxGeometry x="24.535402298850578" y="518.5681293302541" width="47.57505773672056" height="43.29330254041571" as="geometry" />
        </mxCell>
        <mxCell id="S9oytCH6w2mCLMnaVK4n-77" value="" style="edgeStyle=orthogonalEdgeStyle;rounded=0;orthogonalLoop=1;jettySize=auto;html=1;" edge="1" parent="S9oytCH6w2mCLMnaVK4n-74" source="S9oytCH6w2mCLMnaVK4n-75" target="S9oytCH6w2mCLMnaVK4n-76">
          <mxGeometry relative="1" as="geometry" />
        </mxCell>
        <mxCell id="S9oytCH6w2mCLMnaVK4n-78" value="" style="verticalLabelPosition=bottom;html=1;verticalAlign=top;strokeWidth=1;align=center;outlineConnect=0;dashed=0;outlineConnect=0;shape=mxgraph.aws3d.application_server;fillColor=#ECECEC;strokeColor=#5E5E5E;aspect=fixed;" vertex="1" parent="S9oytCH6w2mCLMnaVK4n-74">
          <mxGeometry x="1205.3256704980843" y="585.1732101616628" width="58.517321016166285" height="58.993071593533486" as="geometry" />
        </mxCell>
        <mxCell id="S9oytCH6w2mCLMnaVK4n-79" value="" style="verticalLabelPosition=bottom;html=1;verticalAlign=top;strokeWidth=1;align=center;outlineConnect=0;dashed=0;outlineConnect=0;shape=mxgraph.aws3d.application_server;fillColor=#ECECEC;strokeColor=#5E5E5E;aspect=fixed;" vertex="1" parent="S9oytCH6w2mCLMnaVK4n-74">
          <mxGeometry x="1037.4674329501916" y="247.39030023094688" width="58.517321016166285" height="58.993071593533486" as="geometry" />
        </mxCell>
        <mxCell id="S9oytCH6w2mCLMnaVK4n-80" value="" style="verticalLabelPosition=bottom;html=1;verticalAlign=top;strokeWidth=1;align=center;outlineConnect=0;dashed=0;outlineConnect=0;shape=mxgraph.aws3d.application_server;fillColor=#ECECEC;strokeColor=#5E5E5E;aspect=fixed;" vertex="1" parent="S9oytCH6w2mCLMnaVK4n-74">
          <mxGeometry x="1037.4674329501916" y="337.78290993071596" width="58.517321016166285" height="58.993071593533486" as="geometry" />
        </mxCell>
        <mxCell id="S9oytCH6w2mCLMnaVK4n-81" value="" style="verticalLabelPosition=bottom;html=1;verticalAlign=top;strokeWidth=1;align=center;outlineConnect=0;dashed=0;outlineConnect=0;shape=mxgraph.aws3d.application_server;fillColor=#ECECEC;strokeColor=#5E5E5E;aspect=fixed;" vertex="1" parent="S9oytCH6w2mCLMnaVK4n-74">
          <mxGeometry x="1050.0383141762452" y="66.60508083140878" width="58.517321016166285" height="58.993071593533486" as="geometry" />
        </mxCell>
        <mxCell id="S9oytCH6w2mCLMnaVK4n-82" value="" style="verticalLabelPosition=bottom;html=1;verticalAlign=top;strokeWidth=1;align=center;outlineConnect=0;dashed=0;outlineConnect=0;shape=mxgraph.aws3d.application_server;fillColor=#ECECEC;strokeColor=#5E5E5E;aspect=fixed;" vertex="1" parent="S9oytCH6w2mCLMnaVK4n-74">
          <mxGeometry x="1042.6436781609195" y="155.09468822170902" width="58.517321016166285" height="58.993071593533486" as="geometry" />
        </mxCell>
        <mxCell id="S9oytCH6w2mCLMnaVK4n-83" value="" style="verticalLabelPosition=bottom;html=1;verticalAlign=top;strokeWidth=1;align=center;outlineConnect=0;dashed=0;outlineConnect=0;shape=mxgraph.aws3d.application_server;fillColor=#ECECEC;strokeColor=#5E5E5E;aspect=fixed;" vertex="1" parent="S9oytCH6w2mCLMnaVK4n-74">
          <mxGeometry x="1205.3256704980843" y="685.080831408776" width="58.517321016166285" height="58.993071593533486" as="geometry" />
        </mxCell>
        <mxCell id="S9oytCH6w2mCLMnaVK4n-84" value="" style="verticalLabelPosition=bottom;html=1;verticalAlign=top;strokeWidth=1;align=center;outlineConnect=0;dashed=0;outlineConnect=0;shape=mxgraph.aws3d.application_server;fillColor=#ECECEC;strokeColor=#5E5E5E;aspect=fixed;" vertex="1" parent="S9oytCH6w2mCLMnaVK4n-74">
          <mxGeometry x="288.39080459770116" y="71.36258660508084" width="58.517321016166285" height="58.993071593533486" as="geometry" />
        </mxCell>
        <mxCell id="S9oytCH6w2mCLMnaVK4n-85" value="" style="verticalLabelPosition=bottom;html=1;verticalAlign=top;strokeWidth=1;align=center;outlineConnect=0;dashed=0;outlineConnect=0;shape=mxgraph.aws3d.application_server;fillColor=#ECECEC;strokeColor=#5E5E5E;aspect=fixed;" vertex="1" parent="S9oytCH6w2mCLMnaVK4n-74">
          <mxGeometry x="295.78544061302676" y="413.90300230946883" width="58.517321016166285" height="58.993071593533486" as="geometry" />
        </mxCell>
        <mxCell id="S9oytCH6w2mCLMnaVK4n-86" value="" style="verticalLabelPosition=bottom;html=1;verticalAlign=top;strokeWidth=1;align=center;outlineConnect=0;dashed=0;outlineConnect=0;shape=mxgraph.aws3d.application_server;fillColor=#ECECEC;strokeColor=#5E5E5E;aspect=fixed;" vertex="1" parent="S9oytCH6w2mCLMnaVK4n-74">
          <mxGeometry x="295.78544061302676" y="214.08775981524252" width="58.517321016166285" height="58.993071593533486" as="geometry" />
        </mxCell>
        <mxCell id="S9oytCH6w2mCLMnaVK4n-87" style="edgeStyle=orthogonalEdgeStyle;rounded=0;orthogonalLoop=1;jettySize=auto;html=1;exitX=0.145;exitY=0.855;exitDx=0;exitDy=0;exitPerimeter=0;startArrow=classic;startFill=0;strokeWidth=2;" edge="1" parent="S9oytCH6w2mCLMnaVK4n-74" source="S9oytCH6w2mCLMnaVK4n-92" target="S9oytCH6w2mCLMnaVK4n-85">
          <mxGeometry relative="1" as="geometry">
            <Array as="points">
              <mxPoint x="887.3563218390805" y="680.323325635104" />
              <mxPoint x="887.3563218390805" y="499.53810623556586" />
              <mxPoint x="340.89272030651335" y="499.53810623556586" />
            </Array>
          </mxGeometry>
        </mxCell>
        <mxCell id="S9oytCH6w2mCLMnaVK4n-88" style="edgeStyle=orthogonalEdgeStyle;rounded=0;orthogonalLoop=1;jettySize=auto;html=1;exitX=0.5;exitY=0;exitDx=0;exitDy=0;exitPerimeter=0;startArrow=block;startFill=1;strokeWidth=2;" edge="1" parent="S9oytCH6w2mCLMnaVK4n-74" source="S9oytCH6w2mCLMnaVK4n-92" target="S9oytCH6w2mCLMnaVK4n-84">
          <mxGeometry relative="1" as="geometry">
            <Array as="points">
              <mxPoint x="961.3026819923372" y="661.2933025404158" />
              <mxPoint x="961.3026819923372" y="447.20554272517325" />
              <mxPoint x="517.6245210727969" y="447.20554272517325" />
              <mxPoint x="517.6245210727969" y="100.85912240184759" />
            </Array>
          </mxGeometry>
        </mxCell>
        <mxCell id="S9oytCH6w2mCLMnaVK4n-89" style="edgeStyle=orthogonalEdgeStyle;rounded=0;orthogonalLoop=1;jettySize=auto;html=1;exitX=0.145;exitY=0.145;exitDx=0;exitDy=0;exitPerimeter=0;startArrow=classicThin;startFill=0;strokeWidth=2;" edge="1" parent="S9oytCH6w2mCLMnaVK4n-74" source="S9oytCH6w2mCLMnaVK4n-92" target="S9oytCH6w2mCLMnaVK4n-86">
          <mxGeometry relative="1" as="geometry">
            <Array as="points">
              <mxPoint x="932.463601532567" y="655.5842956120093" />
              <mxPoint x="931.7241379310344" y="470.99307159353356" />
              <mxPoint x="443.67816091954023" y="470.99307159353356" />
              <mxPoint x="443.67816091954023" y="243.58429561200924" />
            </Array>
          </mxGeometry>
        </mxCell>
        <mxCell id="S9oytCH6w2mCLMnaVK4n-90" style="edgeStyle=orthogonalEdgeStyle;rounded=0;orthogonalLoop=1;jettySize=auto;html=1;exitX=0.855;exitY=0.145;exitDx=0;exitDy=0;exitPerimeter=0;strokeColor=#000000;strokeWidth=2;startArrow=classic;startFill=0;" edge="1" parent="S9oytCH6w2mCLMnaVK4n-74" source="S9oytCH6w2mCLMnaVK4n-92" target="S9oytCH6w2mCLMnaVK4n-78">
          <mxGeometry relative="1" as="geometry" />
        </mxCell>
        <mxCell id="S9oytCH6w2mCLMnaVK4n-91" style="edgeStyle=orthogonalEdgeStyle;rounded=0;orthogonalLoop=1;jettySize=auto;html=1;exitX=0.855;exitY=0.855;exitDx=0;exitDy=0;exitPerimeter=0;strokeColor=#000000;strokeWidth=2;startArrow=classic;startFill=0;" edge="1" parent="S9oytCH6w2mCLMnaVK4n-74" source="S9oytCH6w2mCLMnaVK4n-92" target="S9oytCH6w2mCLMnaVK4n-83">
          <mxGeometry relative="1" as="geometry" />
        </mxCell>
        <mxCell id="S9oytCH6w2mCLMnaVK4n-92" value="" style="outlineConnect=0;dashed=0;verticalLabelPosition=bottom;verticalAlign=top;align=center;html=1;shape=mxgraph.aws3.classic_load_balancer;fillColor=#F58534;gradientColor=none;" vertex="1" parent="S9oytCH6w2mCLMnaVK4n-74">
          <mxGeometry x="986.4444444444445" y="637.5057736720555" width="147.15325670498083" height="90.39260969976907" as="geometry" />
        </mxCell>
        <mxCell id="S9oytCH6w2mCLMnaVK4n-93" value="" style="aspect=fixed;perimeter=ellipsePerimeter;html=1;align=center;shadow=0;dashed=0;spacingTop=3;image;image=img/lib/active_directory/internet_cloud.svg;" vertex="1" parent="S9oytCH6w2mCLMnaVK4n-74">
          <mxGeometry y="235.02078521939956" width="98.17113163972286" height="61.84757505773672" as="geometry" />
        </mxCell>
        <mxCell id="S9oytCH6w2mCLMnaVK4n-94" style="edgeStyle=orthogonalEdgeStyle;rounded=0;orthogonalLoop=1;jettySize=auto;html=1;exitX=0.145;exitY=0.145;exitDx=0;exitDy=0;exitPerimeter=0;strokeColor=#000000;strokeWidth=2;startArrow=classic;startFill=0;" edge="1" parent="S9oytCH6w2mCLMnaVK4n-74" source="S9oytCH6w2mCLMnaVK4n-97" target="S9oytCH6w2mCLMnaVK4n-85">
          <mxGeometry relative="1" as="geometry">
            <Array as="points">
              <mxPoint x="369.7318007662835" y="883.944572748268" />
            </Array>
          </mxGeometry>
        </mxCell>
        <mxCell id="S9oytCH6w2mCLMnaVK4n-95" style="edgeStyle=orthogonalEdgeStyle;rounded=0;orthogonalLoop=1;jettySize=auto;html=1;exitX=0.145;exitY=0.145;exitDx=0;exitDy=0;exitPerimeter=0;strokeColor=#000000;strokeWidth=2;startArrow=classic;startFill=0;" edge="1" parent="S9oytCH6w2mCLMnaVK4n-74" source="S9oytCH6w2mCLMnaVK4n-97" target="S9oytCH6w2mCLMnaVK4n-86">
          <mxGeometry relative="1" as="geometry">
            <Array as="points">
              <mxPoint x="266.2068965517241" y="864.4387990762125" />
              <mxPoint x="266.2068965517241" y="243.58429561200924" />
            </Array>
          </mxGeometry>
        </mxCell>
        <mxCell id="S9oytCH6w2mCLMnaVK4n-96" style="edgeStyle=orthogonalEdgeStyle;rounded=0;orthogonalLoop=1;jettySize=auto;html=1;exitX=0.145;exitY=0.855;exitDx=0;exitDy=0;exitPerimeter=0;strokeColor=#000000;strokeWidth=2;startArrow=classic;startFill=0;" edge="1" parent="S9oytCH6w2mCLMnaVK4n-74" source="S9oytCH6w2mCLMnaVK4n-97" target="S9oytCH6w2mCLMnaVK4n-84">
          <mxGeometry relative="1" as="geometry">
            <Array as="points">
              <mxPoint x="229.2337164750958" y="904.8775981524251" />
              <mxPoint x="229.2337164750958" y="100.85912240184759" />
            </Array>
          </mxGeometry>
        </mxCell>
        <mxCell id="S9oytCH6w2mCLMnaVK4n-97" value="" style="outlineConnect=0;dashed=0;verticalLabelPosition=bottom;verticalAlign=top;align=center;html=1;shape=mxgraph.aws3.classic_load_balancer;fillColor=#F58534;gradientColor=none;" vertex="1" parent="S9oytCH6w2mCLMnaVK4n-74">
          <mxGeometry x="414.09961685823754" y="832.5635103926097" width="133.10344827586206" height="80.40184757505774" as="geometry" />
        </mxCell>
        <mxCell id="S9oytCH6w2mCLMnaVK4n-98" value="" style="edgeStyle=orthogonalEdgeStyle;rounded=0;orthogonalLoop=1;jettySize=auto;html=1;entryX=0.5;entryY=1;entryDx=0;entryDy=0;" edge="1" parent="S9oytCH6w2mCLMnaVK4n-74" source="S9oytCH6w2mCLMnaVK4n-76" target="S9oytCH6w2mCLMnaVK4n-93">
          <mxGeometry relative="1" as="geometry">
            <mxPoint x="22.18390804597701" y="105.11085959891959" as="targetPoint" />
          </mxGeometry>
        </mxCell>
        <mxCell id="S9oytCH6w2mCLMnaVK4n-99" value="" style="endArrow=none;html=1;rounded=0;" edge="1" parent="S9oytCH6w2mCLMnaVK4n-74" source="S9oytCH6w2mCLMnaVK4n-93" target="S9oytCH6w2mCLMnaVK4n-86">
          <mxGeometry width="50" height="50" relative="1" as="geometry">
            <mxPoint x="325.36398467432946" y="323.5103926096998" as="sourcePoint" />
            <mxPoint x="362.33716475095787" y="299.7228637413395" as="targetPoint" />
          </mxGeometry>
        </mxCell>
        <mxCell id="S9oytCH6w2mCLMnaVK4n-100" value="" style="endArrow=none;html=1;rounded=0;exitX=1;exitY=0;exitDx=0;exitDy=0;" edge="1" parent="S9oytCH6w2mCLMnaVK4n-74" source="S9oytCH6w2mCLMnaVK4n-93" target="S9oytCH6w2mCLMnaVK4n-84">
          <mxGeometry width="50" height="50" relative="1" as="geometry">
            <mxPoint x="137.80156179639508" y="105.24432719506939" as="sourcePoint" />
            <mxPoint x="320.18773946360153" y="184.96822200507324" as="targetPoint" />
          </mxGeometry>
        </mxCell>
        <mxCell id="S9oytCH6w2mCLMnaVK4n-101" value="" style="endArrow=none;html=1;rounded=0;exitX=0.75;exitY=1;exitDx=0;exitDy=0;" edge="1" parent="S9oytCH6w2mCLMnaVK4n-74" source="S9oytCH6w2mCLMnaVK4n-93" target="S9oytCH6w2mCLMnaVK4n-85">
          <mxGeometry width="50" height="50" relative="1" as="geometry">
            <mxPoint x="113.39926294582034" y="352.0542117216283" as="sourcePoint" />
            <mxPoint x="295.78544061302676" y="431.7781065316322" as="targetPoint" />
          </mxGeometry>
        </mxCell>
        <mxCell id="S9oytCH6w2mCLMnaVK4n-102" style="edgeStyle=orthogonalEdgeStyle;rounded=0;orthogonalLoop=1;jettySize=auto;html=1;exitX=0.25;exitY=0;exitDx=0;exitDy=0;strokeWidth=2;startArrow=classic;startFill=0;strokeColor=#0000CC;" edge="1" parent="S9oytCH6w2mCLMnaVK4n-74" source="S9oytCH6w2mCLMnaVK4n-105" target="S9oytCH6w2mCLMnaVK4n-84">
          <mxGeometry relative="1" as="geometry">
            <Array as="points">
              <mxPoint x="635.9386973180077" y="329.21939953810625" />
              <mxPoint x="621.1494252873563" y="329.21939953810625" />
              <mxPoint x="621.1494252873563" y="85.635103926097" />
            </Array>
          </mxGeometry>
        </mxCell>
        <mxCell id="S9oytCH6w2mCLMnaVK4n-103" style="edgeStyle=orthogonalEdgeStyle;rounded=0;orthogonalLoop=1;jettySize=auto;html=1;exitX=0;exitY=0;exitDx=0;exitDy=0;strokeColor=#0000CC;strokeWidth=2;startArrow=classic;startFill=0;" edge="1" parent="S9oytCH6w2mCLMnaVK4n-74" source="S9oytCH6w2mCLMnaVK4n-105" target="S9oytCH6w2mCLMnaVK4n-86">
          <mxGeometry relative="1" as="geometry">
            <Array as="points">
              <mxPoint x="598.9655172413793" y="375.8429561200924" />
              <mxPoint x="369.7318007662835" y="375.8429561200924" />
            </Array>
          </mxGeometry>
        </mxCell>
        <mxCell id="S9oytCH6w2mCLMnaVK4n-104" style="edgeStyle=orthogonalEdgeStyle;rounded=0;orthogonalLoop=1;jettySize=auto;html=1;exitX=0;exitY=0.25;exitDx=0;exitDy=0;strokeColor=#0000CC;strokeWidth=2;startArrow=classic;startFill=0;" edge="1" parent="S9oytCH6w2mCLMnaVK4n-74" source="S9oytCH6w2mCLMnaVK4n-105" target="S9oytCH6w2mCLMnaVK4n-85">
          <mxGeometry relative="1" as="geometry">
            <Array as="points">
              <mxPoint x="317.96934865900386" y="551.8706697459585" />
            </Array>
          </mxGeometry>
        </mxCell>
        <mxCell id="S9oytCH6w2mCLMnaVK4n-105" value="" style="shape=image;html=1;verticalAlign=top;verticalLabelPosition=bottom;labelBackgroundColor=#ffffff;imageAspect=0;aspect=fixed;image=https://cdn1.iconfinder.com/data/icons/unicons-line-vol-2/24/database-128.png" vertex="1" parent="S9oytCH6w2mCLMnaVK4n-74">
          <mxGeometry x="598.9655172413793" y="528.0831408775982" width="95.15011547344112" height="95.15011547344112" as="geometry" />
        </mxCell>
        <mxCell id="S9oytCH6w2mCLMnaVK4n-106" value="" style="verticalLabelPosition=bottom;html=1;verticalAlign=top;strokeWidth=1;align=center;outlineConnect=0;dashed=0;outlineConnect=0;shape=mxgraph.aws3d.application_server;fillColor=#ECECEC;strokeColor=#5E5E5E;aspect=fixed;" vertex="1" parent="S9oytCH6w2mCLMnaVK4n-74">
          <mxGeometry x="621.1494252873563" y="853.972286374134" width="58.517321016166285" height="58.993071593533486" as="geometry" />
        </mxCell>
        <mxCell id="S9oytCH6w2mCLMnaVK4n-107" style="edgeStyle=orthogonalEdgeStyle;rounded=0;orthogonalLoop=1;jettySize=auto;html=1;exitX=1;exitY=0.5;exitDx=0;exitDy=0;exitPerimeter=0;strokeColor=#000000;strokeWidth=2;startArrow=classic;startFill=0;" edge="1" parent="S9oytCH6w2mCLMnaVK4n-74" source="S9oytCH6w2mCLMnaVK4n-97" target="S9oytCH6w2mCLMnaVK4n-106">
          <mxGeometry relative="1" as="geometry" />
        </mxCell>
        <mxCell id="S9oytCH6w2mCLMnaVK4n-108" value="" style="verticalLabelPosition=bottom;html=1;verticalAlign=top;strokeWidth=1;align=center;outlineConnect=0;dashed=0;outlineConnect=0;shape=mxgraph.aws3d.application_server;fillColor=#ECECEC;strokeColor=#5E5E5E;aspect=fixed;" vertex="1" parent="S9oytCH6w2mCLMnaVK4n-74">
          <mxGeometry x="627.4348659003831" y="756.4434180138569" width="58.517321016166285" height="58.993071593533486" as="geometry" />
        </mxCell>
        <mxCell id="S9oytCH6w2mCLMnaVK4n-109" value="" style="verticalLabelPosition=bottom;html=1;verticalAlign=top;strokeWidth=1;align=center;outlineConnect=0;dashed=0;outlineConnect=0;shape=mxgraph.aws3d.application_server;fillColor=#ECECEC;strokeColor=#5E5E5E;aspect=fixed;" vertex="1" parent="S9oytCH6w2mCLMnaVK4n-74">
          <mxGeometry x="606.360153256705" y="971.0069284064666" width="58.517321016166285" height="58.993071593533486" as="geometry" />
        </mxCell>
        <mxCell id="S9oytCH6w2mCLMnaVK4n-110" style="edgeStyle=orthogonalEdgeStyle;rounded=0;orthogonalLoop=1;jettySize=auto;html=1;exitX=0.855;exitY=0.855;exitDx=0;exitDy=0;exitPerimeter=0;strokeWidth=2;startArrow=classic;startFill=0;" edge="1" parent="S9oytCH6w2mCLMnaVK4n-74" source="S9oytCH6w2mCLMnaVK4n-117" target="S9oytCH6w2mCLMnaVK4n-79">
          <mxGeometry relative="1" as="geometry" />
        </mxCell>
        <mxCell id="S9oytCH6w2mCLMnaVK4n-111" style="edgeStyle=orthogonalEdgeStyle;rounded=0;orthogonalLoop=1;jettySize=auto;html=1;exitX=0.145;exitY=0.855;exitDx=0;exitDy=0;exitPerimeter=0;strokeWidth=2;startArrow=classic;startFill=0;" edge="1" parent="S9oytCH6w2mCLMnaVK4n-74" source="S9oytCH6w2mCLMnaVK4n-117" target="S9oytCH6w2mCLMnaVK4n-85">
          <mxGeometry relative="1" as="geometry">
            <Array as="points">
              <mxPoint x="746.8582375478927" y="423.41801385681293" />
            </Array>
          </mxGeometry>
        </mxCell>
        <mxCell id="S9oytCH6w2mCLMnaVK4n-112" style="edgeStyle=orthogonalEdgeStyle;rounded=0;orthogonalLoop=1;jettySize=auto;html=1;exitX=0;exitY=0.5;exitDx=0;exitDy=0;exitPerimeter=0;strokeWidth=2;startArrow=classic;startFill=0;" edge="1" parent="S9oytCH6w2mCLMnaVK4n-74" source="S9oytCH6w2mCLMnaVK4n-117" target="S9oytCH6w2mCLMnaVK4n-86">
          <mxGeometry relative="1" as="geometry">
            <Array as="points">
              <mxPoint x="563.4712643678162" y="240.72979214780605" />
              <mxPoint x="563.4712643678162" y="233.11778290993072" />
            </Array>
          </mxGeometry>
        </mxCell>
        <mxCell id="S9oytCH6w2mCLMnaVK4n-113" style="edgeStyle=orthogonalEdgeStyle;rounded=0;orthogonalLoop=1;jettySize=auto;html=1;exitX=0.145;exitY=0.145;exitDx=0;exitDy=0;exitPerimeter=0;strokeWidth=2;startArrow=classic;startFill=0;" edge="1" parent="S9oytCH6w2mCLMnaVK4n-74" source="S9oytCH6w2mCLMnaVK4n-117" target="S9oytCH6w2mCLMnaVK4n-84">
          <mxGeometry relative="1" as="geometry">
            <Array as="points">
              <mxPoint x="746.8582375478927" y="128.4526558891455" />
            </Array>
          </mxGeometry>
        </mxCell>
        <mxCell id="S9oytCH6w2mCLMnaVK4n-114" style="edgeStyle=orthogonalEdgeStyle;rounded=0;orthogonalLoop=1;jettySize=auto;html=1;exitX=0.5;exitY=1;exitDx=0;exitDy=0;exitPerimeter=0;strokeColor=#000000;strokeWidth=2;startArrow=classic;startFill=0;" edge="1" parent="S9oytCH6w2mCLMnaVK4n-74" source="S9oytCH6w2mCLMnaVK4n-117" target="S9oytCH6w2mCLMnaVK4n-80">
          <mxGeometry relative="1" as="geometry">
            <Array as="points">
              <mxPoint x="866.6513409961685" y="361.57043879907627" />
            </Array>
          </mxGeometry>
        </mxCell>
        <mxCell id="S9oytCH6w2mCLMnaVK4n-115" style="edgeStyle=orthogonalEdgeStyle;rounded=0;orthogonalLoop=1;jettySize=auto;html=1;exitX=1;exitY=0.5;exitDx=0;exitDy=0;exitPerimeter=0;strokeColor=#000000;strokeWidth=2;startArrow=classic;startFill=0;" edge="1" parent="S9oytCH6w2mCLMnaVK4n-74" source="S9oytCH6w2mCLMnaVK4n-117" target="S9oytCH6w2mCLMnaVK4n-82">
          <mxGeometry relative="1" as="geometry" />
        </mxCell>
        <mxCell id="S9oytCH6w2mCLMnaVK4n-116" style="edgeStyle=orthogonalEdgeStyle;rounded=0;orthogonalLoop=1;jettySize=auto;html=1;exitX=0.855;exitY=0.145;exitDx=0;exitDy=0;exitPerimeter=0;strokeColor=#000000;strokeWidth=2;startArrow=classic;startFill=0;" edge="1" parent="S9oytCH6w2mCLMnaVK4n-74" source="S9oytCH6w2mCLMnaVK4n-117" target="S9oytCH6w2mCLMnaVK4n-81">
          <mxGeometry relative="1" as="geometry">
            <Array as="points">
              <mxPoint x="887.3563218390805" y="188.39722863741338" />
              <mxPoint x="887.3563218390805" y="91.34411085450347" />
            </Array>
          </mxGeometry>
        </mxCell>
        <mxCell id="S9oytCH6w2mCLMnaVK4n-117" value="" style="outlineConnect=0;dashed=0;verticalLabelPosition=bottom;verticalAlign=top;align=center;html=1;shape=mxgraph.aws3.classic_load_balancer;fillColor=#F58534;gradientColor=none;" vertex="1" parent="S9oytCH6w2mCLMnaVK4n-74">
          <mxGeometry x="807.4942528735631" y="176.02771362586608" width="117.57471264367817" height="85.635103926097" as="geometry" />
        </mxCell>
        <mxCell id="S9oytCH6w2mCLMnaVK4n-118" style="edgeStyle=orthogonalEdgeStyle;rounded=0;orthogonalLoop=1;jettySize=auto;html=1;exitX=0.145;exitY=0.145;exitDx=0;exitDy=0;exitPerimeter=0;strokeWidth=2;startArrow=classicThin;startFill=1;" edge="1" parent="S9oytCH6w2mCLMnaVK4n-74" source="S9oytCH6w2mCLMnaVK4n-121" target="S9oytCH6w2mCLMnaVK4n-84">
          <mxGeometry relative="1" as="geometry">
            <Array as="points">
              <mxPoint x="924.3295019157088" y="2.8545034642032334" />
              <mxPoint x="635.9386973180077" y="2.8545034642032334" />
              <mxPoint x="635.9386973180077" y="52.33256351039261" />
              <mxPoint x="334.2375478927203" y="52.33256351039261" />
            </Array>
          </mxGeometry>
        </mxCell>
        <mxCell id="S9oytCH6w2mCLMnaVK4n-119" style="edgeStyle=orthogonalEdgeStyle;rounded=0;orthogonalLoop=1;jettySize=auto;html=1;exitX=0.5;exitY=1;exitDx=0;exitDy=0;exitPerimeter=0;strokeWidth=2;startArrow=classic;startFill=0;" edge="1" parent="S9oytCH6w2mCLMnaVK4n-74" source="S9oytCH6w2mCLMnaVK4n-121" target="S9oytCH6w2mCLMnaVK4n-85">
          <mxGeometry relative="1" as="geometry">
            <Array as="points">
              <mxPoint x="717.27969348659" y="19.981524249422634" />
              <mxPoint x="717.27969348659" y="366.3279445727483" />
              <mxPoint x="341.632183908046" y="366.3279445727483" />
            </Array>
          </mxGeometry>
        </mxCell>
        <mxCell id="S9oytCH6w2mCLMnaVK4n-120" style="edgeStyle=orthogonalEdgeStyle;rounded=0;orthogonalLoop=1;jettySize=auto;html=1;exitX=0.145;exitY=0.855;exitDx=0;exitDy=0;exitPerimeter=0;strokeWidth=2;startArrow=classic;startFill=0;" edge="1" parent="S9oytCH6w2mCLMnaVK4n-74" source="S9oytCH6w2mCLMnaVK4n-121" target="S9oytCH6w2mCLMnaVK4n-86">
          <mxGeometry relative="1" as="geometry">
            <Array as="points">
              <mxPoint x="680.3065134099617" y="15.224018475750578" />
              <mxPoint x="680.3065134099617" y="209.33025404157044" />
              <mxPoint x="341.632183908046" y="209.33025404157044" />
            </Array>
          </mxGeometry>
        </mxCell>
        <mxCell id="S9oytCH6w2mCLMnaVK4n-121" value="" style="outlineConnect=0;dashed=0;verticalLabelPosition=bottom;verticalAlign=top;align=center;html=1;shape=mxgraph.aws3.classic_load_balancer;fillColor=#F58534;gradientColor=none;" vertex="1" parent="S9oytCH6w2mCLMnaVK4n-74">
          <mxGeometry x="1205.3256704980843" width="118.31417624521073" height="76.12009237875289" as="geometry" />
        </mxCell>
        <mxCell id="S9oytCH6w2mCLMnaVK4n-122" style="edgeStyle=orthogonalEdgeStyle;rounded=0;orthogonalLoop=1;jettySize=auto;html=1;exitX=0.5;exitY=0;exitDx=0;exitDy=0;exitPerimeter=0;strokeColor=#000000;strokeWidth=2;startArrow=classic;startFill=0;" edge="1" parent="S9oytCH6w2mCLMnaVK4n-74" source="S9oytCH6w2mCLMnaVK4n-97" target="S9oytCH6w2mCLMnaVK4n-108">
          <mxGeometry relative="1" as="geometry">
            <Array as="points">
              <mxPoint x="499.13793103448273" y="780.2309468822172" />
            </Array>
          </mxGeometry>
        </mxCell>
        <mxCell id="S9oytCH6w2mCLMnaVK4n-123" style="edgeStyle=orthogonalEdgeStyle;rounded=0;orthogonalLoop=1;jettySize=auto;html=1;exitX=0.5;exitY=1;exitDx=0;exitDy=0;exitPerimeter=0;strokeColor=#000000;strokeWidth=2;startArrow=classic;startFill=0;" edge="1" parent="S9oytCH6w2mCLMnaVK4n-74" source="S9oytCH6w2mCLMnaVK4n-97" target="S9oytCH6w2mCLMnaVK4n-109">
          <mxGeometry relative="1" as="geometry">
            <mxPoint x="569.3869731800767" y="994.3187066974597" as="targetPoint" />
            <Array as="points">
              <mxPoint x="499.13793103448273" y="999.0762124711317" />
            </Array>
          </mxGeometry>
        </mxCell>
        <mxCell id="S9oytCH6w2mCLMnaVK4n-124" value="" style="verticalLabelPosition=bottom;html=1;verticalAlign=top;strokeWidth=1;align=center;outlineConnect=0;dashed=0;outlineConnect=0;shape=mxgraph.aws3d.application_server;fillColor=#ECECEC;strokeColor=#5E5E5E;aspect=fixed;" vertex="1" parent="S9oytCH6w2mCLMnaVK4n-74">
          <mxGeometry x="1589.846743295019" y="85.635103926097" width="58.517321016166285" height="58.993071593533486" as="geometry" />
        </mxCell>
        <mxCell id="S9oytCH6w2mCLMnaVK4n-125" style="edgeStyle=orthogonalEdgeStyle;rounded=0;orthogonalLoop=1;jettySize=auto;html=1;exitX=1;exitY=0.5;exitDx=0;exitDy=0;exitPerimeter=0;strokeColor=#000000;strokeWidth=2;startArrow=classic;startFill=0;" edge="1" parent="S9oytCH6w2mCLMnaVK4n-74" source="S9oytCH6w2mCLMnaVK4n-121" target="S9oytCH6w2mCLMnaVK4n-124">
          <mxGeometry relative="1" as="geometry">
            <Array as="points">
              <mxPoint x="1323.639846743295" y="118.93764434180139" />
            </Array>
          </mxGeometry>
        </mxCell>
        <mxCell id="S9oytCH6w2mCLMnaVK4n-126" value="" style="verticalLabelPosition=bottom;html=1;verticalAlign=top;strokeWidth=1;align=center;outlineConnect=0;dashed=0;outlineConnect=0;shape=mxgraph.aws3d.application_server;fillColor=#ECECEC;strokeColor=#5E5E5E;aspect=fixed;" vertex="1" parent="S9oytCH6w2mCLMnaVK4n-74">
          <mxGeometry x="1589.846743295019" y="256.905311778291" width="58.517321016166285" height="58.993071593533486" as="geometry" />
        </mxCell>
        <mxCell id="S9oytCH6w2mCLMnaVK4n-127" style="edgeStyle=orthogonalEdgeStyle;rounded=0;orthogonalLoop=1;jettySize=auto;html=1;exitX=0.5;exitY=1;exitDx=0;exitDy=0;exitPerimeter=0;strokeColor=#000000;strokeWidth=2;startArrow=classic;startFill=0;" edge="1" parent="S9oytCH6w2mCLMnaVK4n-74" source="S9oytCH6w2mCLMnaVK4n-121" target="S9oytCH6w2mCLMnaVK4n-126">
          <mxGeometry relative="1" as="geometry">
            <Array as="points">
              <mxPoint x="1264.4827586206895" y="228.36027713625867" />
              <mxPoint x="1635.6934865900382" y="228.36027713625867" />
            </Array>
          </mxGeometry>
        </mxCell>
        <mxCell id="S9oytCH6w2mCLMnaVK4n-128" value="" style="verticalLabelPosition=bottom;html=1;verticalAlign=top;strokeWidth=1;align=center;outlineConnect=0;dashed=0;outlineConnect=0;shape=mxgraph.aws3d.application_server;fillColor=#ECECEC;strokeColor=#5E5E5E;aspect=fixed;" vertex="1" parent="S9oytCH6w2mCLMnaVK4n-74">
          <mxGeometry x="1589.846743295019" y="161.7551963048499" width="58.517321016166285" height="58.993071593533486" as="geometry" />
        </mxCell>
        <mxCell id="S9oytCH6w2mCLMnaVK4n-129" value="" style="verticalLabelPosition=bottom;html=1;verticalAlign=top;strokeWidth=1;align=center;outlineConnect=0;dashed=0;outlineConnect=0;shape=mxgraph.aws3d.application_server;fillColor=#ECECEC;strokeColor=#5E5E5E;aspect=fixed;" vertex="1" parent="S9oytCH6w2mCLMnaVK4n-74">
          <mxGeometry x="1589.846743295019" y="7.612009237875289" width="58.517321016166285" height="58.993071593533486" as="geometry" />
        </mxCell>
        <mxCell id="S9oytCH6w2mCLMnaVK4n-130" style="edgeStyle=orthogonalEdgeStyle;rounded=0;orthogonalLoop=1;jettySize=auto;html=1;exitX=1;exitY=0.5;exitDx=0;exitDy=0;strokeColor=#000000;strokeWidth=2;startArrow=classic;startFill=0;" edge="1" parent="S9oytCH6w2mCLMnaVK4n-74" source="S9oytCH6w2mCLMnaVK4n-143" target="S9oytCH6w2mCLMnaVK4n-129">
          <mxGeometry relative="1" as="geometry">
            <Array as="points">
              <mxPoint x="1930" y="540.4526558891455" />
              <mxPoint x="1930" y="42.8175519630485" />
            </Array>
          </mxGeometry>
        </mxCell>
        <mxCell id="S9oytCH6w2mCLMnaVK4n-131" style="edgeStyle=orthogonalEdgeStyle;rounded=0;orthogonalLoop=1;jettySize=auto;html=1;exitX=1;exitY=0.25;exitDx=0;exitDy=0;strokeColor=#000000;strokeWidth=2;startArrow=classic;startFill=0;" edge="1" parent="S9oytCH6w2mCLMnaVK4n-74" source="S9oytCH6w2mCLMnaVK4n-143" target="S9oytCH6w2mCLMnaVK4n-124">
          <mxGeometry relative="1" as="geometry">
            <Array as="points">
              <mxPoint x="1900.4214559386974" y="486.69284064665135" />
              <mxPoint x="1900.4214559386974" y="115.13163972286375" />
            </Array>
          </mxGeometry>
        </mxCell>
        <mxCell id="S9oytCH6w2mCLMnaVK4n-132" style="edgeStyle=orthogonalEdgeStyle;rounded=0;orthogonalLoop=1;jettySize=auto;html=1;exitX=1;exitY=0;exitDx=0;exitDy=0;strokeColor=#000000;strokeWidth=2;startArrow=classic;startFill=0;" edge="1" parent="S9oytCH6w2mCLMnaVK4n-74" source="S9oytCH6w2mCLMnaVK4n-143" target="S9oytCH6w2mCLMnaVK4n-128">
          <mxGeometry relative="1" as="geometry">
            <Array as="points">
              <mxPoint x="1863.4482758620688" y="191.25173210161665" />
            </Array>
          </mxGeometry>
        </mxCell>
        <mxCell id="S9oytCH6w2mCLMnaVK4n-133" style="edgeStyle=orthogonalEdgeStyle;rounded=0;orthogonalLoop=1;jettySize=auto;html=1;exitX=0.75;exitY=0;exitDx=0;exitDy=0;strokeColor=#000000;strokeWidth=2;startArrow=classic;startFill=0;" edge="1" parent="S9oytCH6w2mCLMnaVK4n-74" source="S9oytCH6w2mCLMnaVK4n-143" target="S9oytCH6w2mCLMnaVK4n-126">
          <mxGeometry relative="1" as="geometry">
            <Array as="points">
              <mxPoint x="1788.0229885057472" y="290.2078521939954" />
            </Array>
          </mxGeometry>
        </mxCell>
        <mxCell id="S9oytCH6w2mCLMnaVK4n-134" style="edgeStyle=orthogonalEdgeStyle;rounded=0;orthogonalLoop=1;jettySize=auto;html=1;exitX=0.5;exitY=0;exitDx=0;exitDy=0;strokeColor=#000000;strokeWidth=2;startArrow=classic;startFill=0;" edge="1" parent="S9oytCH6w2mCLMnaVK4n-74" source="S9oytCH6w2mCLMnaVK4n-143" target="S9oytCH6w2mCLMnaVK4n-81">
          <mxGeometry relative="1" as="geometry">
            <Array as="points">
              <mxPoint x="1711.8582375478925" y="337.78290993071596" />
              <mxPoint x="1242.2988505747126" y="337.78290993071596" />
              <mxPoint x="1242.2988505747126" y="96.10161662817553" />
            </Array>
          </mxGeometry>
        </mxCell>
        <mxCell id="S9oytCH6w2mCLMnaVK4n-135" style="edgeStyle=orthogonalEdgeStyle;rounded=0;orthogonalLoop=1;jettySize=auto;html=1;exitX=0.25;exitY=0;exitDx=0;exitDy=0;strokeColor=#000000;strokeWidth=2;startArrow=classic;startFill=0;" edge="1" parent="S9oytCH6w2mCLMnaVK4n-74" source="S9oytCH6w2mCLMnaVK4n-143" target="S9oytCH6w2mCLMnaVK4n-82">
          <mxGeometry relative="1" as="geometry">
            <Array as="points">
              <mxPoint x="1636.4329501915709" y="347.29792147806006" />
              <mxPoint x="1220.1149425287358" y="347.29792147806006" />
              <mxPoint x="1220.1149425287358" y="184.59122401847577" />
            </Array>
          </mxGeometry>
        </mxCell>
        <mxCell id="S9oytCH6w2mCLMnaVK4n-136" style="edgeStyle=orthogonalEdgeStyle;rounded=0;orthogonalLoop=1;jettySize=auto;html=1;exitX=0;exitY=0;exitDx=0;exitDy=0;strokeColor=#000000;strokeWidth=2;startArrow=classic;startFill=0;" edge="1" parent="S9oytCH6w2mCLMnaVK4n-74" source="S9oytCH6w2mCLMnaVK4n-143" target="S9oytCH6w2mCLMnaVK4n-79">
          <mxGeometry relative="1" as="geometry">
            <Array as="points">
              <mxPoint x="1560.2681992337166" y="361.57043879907627" />
              <mxPoint x="1197.9310344827586" y="361.57043879907627" />
              <mxPoint x="1197.9310344827586" y="276.8868360277137" />
            </Array>
          </mxGeometry>
        </mxCell>
        <mxCell id="S9oytCH6w2mCLMnaVK4n-137" style="edgeStyle=orthogonalEdgeStyle;rounded=0;orthogonalLoop=1;jettySize=auto;html=1;exitX=0;exitY=0.25;exitDx=0;exitDy=0;strokeColor=#000000;strokeWidth=2;startArrow=classic;startFill=0;" edge="1" parent="S9oytCH6w2mCLMnaVK4n-74" source="S9oytCH6w2mCLMnaVK4n-143" target="S9oytCH6w2mCLMnaVK4n-80">
          <mxGeometry relative="1" as="geometry">
            <Array as="points">
              <mxPoint x="1501.111111111111" y="486.69284064665135" />
              <mxPoint x="1501.111111111111" y="380.6004618937645" />
            </Array>
          </mxGeometry>
        </mxCell>
        <mxCell id="S9oytCH6w2mCLMnaVK4n-138" style="edgeStyle=orthogonalEdgeStyle;rounded=0;orthogonalLoop=1;jettySize=auto;html=1;exitX=0;exitY=0.5;exitDx=0;exitDy=0;strokeColor=#000000;strokeWidth=2;startArrow=classic;startFill=0;" edge="1" parent="S9oytCH6w2mCLMnaVK4n-74" source="S9oytCH6w2mCLMnaVK4n-143" target="S9oytCH6w2mCLMnaVK4n-78">
          <mxGeometry relative="1" as="geometry" />
        </mxCell>
        <mxCell id="S9oytCH6w2mCLMnaVK4n-139" style="edgeStyle=orthogonalEdgeStyle;rounded=0;orthogonalLoop=1;jettySize=auto;html=1;exitX=0;exitY=0.75;exitDx=0;exitDy=0;strokeColor=#000000;strokeWidth=2;startArrow=classic;startFill=0;" edge="1" parent="S9oytCH6w2mCLMnaVK4n-74" source="S9oytCH6w2mCLMnaVK4n-143" target="S9oytCH6w2mCLMnaVK4n-83">
          <mxGeometry relative="1" as="geometry">
            <Array as="points">
              <mxPoint x="1449.3486590038315" y="593.7367205542726" />
              <mxPoint x="1449.3486590038315" y="708.8683602771363" />
            </Array>
          </mxGeometry>
        </mxCell>
        <mxCell id="S9oytCH6w2mCLMnaVK4n-140" style="edgeStyle=orthogonalEdgeStyle;rounded=0;orthogonalLoop=1;jettySize=auto;html=1;exitX=0;exitY=1;exitDx=0;exitDy=0;strokeColor=#000000;strokeWidth=2;startArrow=classic;startFill=0;" edge="1" parent="S9oytCH6w2mCLMnaVK4n-74" source="S9oytCH6w2mCLMnaVK4n-143" target="S9oytCH6w2mCLMnaVK4n-108">
          <mxGeometry relative="1" as="geometry">
            <Array as="points">
              <mxPoint x="1560.2681992337166" y="785.9399538106236" />
            </Array>
          </mxGeometry>
        </mxCell>
        <mxCell id="S9oytCH6w2mCLMnaVK4n-141" style="edgeStyle=orthogonalEdgeStyle;rounded=0;orthogonalLoop=1;jettySize=auto;html=1;exitX=0.25;exitY=1;exitDx=0;exitDy=0;strokeColor=#000000;strokeWidth=2;startArrow=classic;startFill=0;" edge="1" parent="S9oytCH6w2mCLMnaVK4n-74" source="S9oytCH6w2mCLMnaVK4n-143" target="S9oytCH6w2mCLMnaVK4n-106">
          <mxGeometry relative="1" as="geometry">
            <Array as="points">
              <mxPoint x="1636.4329501915709" y="884.8960739030024" />
            </Array>
          </mxGeometry>
        </mxCell>
        <mxCell id="S9oytCH6w2mCLMnaVK4n-142" style="edgeStyle=orthogonalEdgeStyle;rounded=0;orthogonalLoop=1;jettySize=auto;html=1;exitX=0.5;exitY=1;exitDx=0;exitDy=0;strokeColor=#000000;strokeWidth=2;startArrow=classic;startFill=0;" edge="1" parent="S9oytCH6w2mCLMnaVK4n-74" source="S9oytCH6w2mCLMnaVK4n-143" target="S9oytCH6w2mCLMnaVK4n-109">
          <mxGeometry relative="1" as="geometry">
            <Array as="points">
              <mxPoint x="1711.8582375478925" y="1000.5034642032333" />
            </Array>
          </mxGeometry>
        </mxCell>
        <mxCell id="S9oytCH6w2mCLMnaVK4n-143" value="" style="image;html=1;image=img/lib/clip_art/computers/Server_128x128.png" vertex="1" parent="S9oytCH6w2mCLMnaVK4n-74">
          <mxGeometry x="1560.2681992337166" y="433.1709006928407" width="303.1800766283525" height="214.08775981524252" as="geometry" />
        </mxCell>
        <mxCell id="S9oytCH6w2mCLMnaVK4n-144" style="edgeStyle=orthogonalEdgeStyle;rounded=0;orthogonalLoop=1;jettySize=auto;html=1;exitX=0.855;exitY=0.855;exitDx=0;exitDy=0;exitPerimeter=0;strokeColor=#000000;strokeWidth=2;startArrow=classic;startFill=0;" edge="1" parent="S9oytCH6w2mCLMnaVK4n-74" source="S9oytCH6w2mCLMnaVK4n-121" target="S9oytCH6w2mCLMnaVK4n-128">
          <mxGeometry relative="1" as="geometry">
            <Array as="points">
              <mxPoint x="1306.632183908046" y="195.0577367205543" />
            </Array>
          </mxGeometry>
        </mxCell>
        <mxCell id="S9oytCH6w2mCLMnaVK4n-145" style="edgeStyle=orthogonalEdgeStyle;rounded=0;orthogonalLoop=1;jettySize=auto;html=1;exitX=0.855;exitY=0.145;exitDx=0;exitDy=0;exitPerimeter=0;strokeColor=#000000;strokeWidth=2;startArrow=classic;startFill=0;" edge="1" parent="S9oytCH6w2mCLMnaVK4n-74" source="S9oytCH6w2mCLMnaVK4n-121" target="S9oytCH6w2mCLMnaVK4n-129">
          <mxGeometry relative="1" as="geometry" />
        </mxCell>
      </root>
    </mxGraphModel>
  </diagram>
</mxfile>
